<?xml version="1.0" encoding="UTF-8" standalone="no"?>
<svg
   xmlns:dc="http://purl.org/dc/elements/1.1/"
   xmlns:cc="http://creativecommons.org/ns#"
   xmlns:rdf="http://www.w3.org/1999/02/22-rdf-syntax-ns#"
   xmlns:svg="http://www.w3.org/2000/svg"
   xmlns="http://www.w3.org/2000/svg"
   xmlns:sodipodi="http://sodipodi.sourceforge.net/DTD/sodipodi-0.dtd"
   xmlns:inkscape="http://www.inkscape.org/namespaces/inkscape"
   width="128pt"
   height="128pt"
   viewBox="0 0 128 128"
   version="1.1"
   id="svg5"
   sodipodi:docname="BPC.svg"
   inkscape:version="0.92.4 (5da689c313, 2019-01-14)">
  <metadata
     id="metadata11">
    <rdf:RDF>
      <cc:Work
         rdf:about="">
        <dc:format>image/svg+xml</dc:format>
        <dc:type
           rdf:resource="http://purl.org/dc/dcmitype/StillImage" />
        <dc:title></dc:title>
      </cc:Work>
    </rdf:RDF>
  </metadata>
  <defs
     id="defs9">
	
</defs>
  <sodipodi:namedview
     pagecolor="#ffffff"
     bordercolor="#666666"
     borderopacity="1"
     objecttolerance="10"
     gridtolerance="10"
     guidetolerance="10"
     inkscape:pageopacity="0"
     inkscape:pageshadow="2"
     inkscape:window-width="1600"
     inkscape:window-height="837"
     id="namedview7"
     showgrid="false"
     inkscape:zoom="1.9555922"
     inkscape:cx="163.00294"
     inkscape:cy="53.452217"
     inkscape:window-x="-8"
     inkscape:window-y="-8"
     inkscape:window-maximized="1"
     inkscape:current-layer="g1247" />
  <g
     inkscape:groupmode="layer"
     id="layer1"
     inkscape:label="Layer 1" />
  <g
     inkscape:groupmode="layer"
     id="layer2"
     inkscape:label="Layer 2">
    <g
       id="g912"
       transform="matrix(0.22416423,0,0,0.22416423,5.1268204,5.7998316)">
</g>
    <g
       id="g914"
       transform="matrix(0.22416423,0,0,0.22416423,5.1268204,5.7998316)">
</g>
    <g
       id="g916"
       transform="matrix(0.22416423,0,0,0.22416423,5.1268204,5.7998316)">
</g>
    <g
       id="g918"
       transform="matrix(0.22416423,0,0,0.22416423,5.1268204,5.7998316)">
</g>
    <g
       id="g920"
       transform="matrix(0.22416423,0,0,0.22416423,5.1268204,5.7998316)">
</g>
    <g
       id="g922"
       transform="matrix(0.22416423,0,0,0.22416423,5.1268204,5.7998316)">
</g>
    <g
       id="g924"
       transform="matrix(0.22416423,0,0,0.22416423,5.1268204,5.7998316)">
</g>
    <g
       id="g926"
       transform="matrix(0.22416423,0,0,0.22416423,5.1268204,5.7998316)">
</g>
    <g
       id="g928"
       transform="matrix(0.22416423,0,0,0.22416423,5.1268204,5.7998316)">
</g>
    <g
       id="g930"
       transform="matrix(0.22416423,0,0,0.22416423,5.1268204,5.7998316)">
</g>
    <g
       id="g932"
       transform="matrix(0.22416423,0,0,0.22416423,5.1268204,5.7998316)">
</g>
    <g
       id="g934"
       transform="matrix(0.22416423,0,0,0.22416423,5.1268204,5.7998316)">
</g>
    <g
       id="g936"
       transform="matrix(0.22416423,0,0,0.22416423,5.1268204,5.7998316)">
</g>
    <g
       id="g938"
       transform="matrix(0.22416423,0,0,0.22416423,5.1268204,5.7998316)">
</g>
    <g
       id="g940"
       transform="matrix(0.22416423,0,0,0.22416423,5.1268204,5.7998316)">
</g>
    <g
       id="g1247"
       transform="matrix(0.44632815,0,0,0.44632815,11.786527,8.5604372)">
		<path
   id="path1243"
   d="M 30.808,65.876 C 13.81,65.93 0,79.772 0,96.781 V 206.15 c 0,17.042 13.868,30.915 30.907,30.915 h 109.377 c 17.042,0 30.91,-13.873 30.91,-30.915 V 96.786 c 0,-17.009 -13.817,-30.851 -30.809,-30.902 V 43.206 c 45.763,2.539 64.404,57.932 110.405,66.445 9.831,1.818 14.025,-13.213 4.144,-15.044 C 206.775,85.698 190.962,29.348 140.385,27.535 V 3.479 h -44.1 v 7.8 c 0,5.898 -4.796,10.691 -10.687,10.691 -5.891,0 -10.687,-4.793 -10.687,-10.691 v -7.8 h -44.1 v 62.398 h -0.003 z m 124.781,30.91 v 109.375 c 0,8.439 -6.865,15.305 -15.305,15.305 H 30.902 c -8.44,0 -15.308,-6.865 -15.308,-15.305 V 96.786 c 0,-8.439 6.868,-15.31 15.308,-15.31 h 109.382 c 8.44,-0.005 15.305,6.871 15.305,15.31 z M 46.408,19.078 h 14.081 c 3.334,10.702 13.322,18.491 25.106,18.491 11.783,0 21.776,-7.79 25.105,-18.491 h 14.081 V 63.563 H 46.408 Z"
   inkscape:connector-curvature="0"
   style="fill:#cccccc" />

		<path
   id="path1245"
   d="m 27.825,241.498 c -4.311,0 -7.799,3.494 -7.799,7.8 0,4.302 3.488,7.8 7.799,7.8 h 115.537 c 4.316,0 7.8,-3.498 7.8,-7.8 0,-4.306 -3.483,-7.8 -7.8,-7.8 z"
   inkscape:connector-curvature="0"
   style="fill:#cccccc" />

	<g
   id="g1389"
   transform="matrix(0.10741565,0,0,0.10741565,24.002814,151.74746)"
   style="fill:#cccccc">
  <g
     id="g1333"
     style="fill:#cccccc">
	<polygon
   id="polygon1331"
   points="346.857,84.409 346.965,92.546 360.178,107.18 358.436,114.867 202.938,131.59 41.869,127.092 24.512,134.368 11.727,150.614 5.149,188.614 3.987,215.93 0,241.437 1.096,266.842 5.58,267.759 12.098,260.583 17.397,236.746 13.102,203.678 14.596,203.453 24.692,253.795 17.815,297.485 24.094,384.681 24.692,394.337 30.811,399.557 57.866,399.599 66.584,396.962 42.379,357.545 54.387,307.489 60.676,307.5 82.619,374.053 93.93,391.139 99.51,394.574 129.375,394.596 133.207,389.801 107.354,373.92 89.825,319.936 94.219,311.172 104.516,312.128 110.981,327.958 120.346,312.528 129.42,328.024 137.106,311.198 159.729,293.808 240.008,286.12 253.482,302.593 264.838,383.123 270.812,394.694 298.166,394.683 301.115,390.347 284.489,367.206 282.491,323.141 291.469,328.124 300.926,357.395 312.953,395.403 318.346,399.584 342.82,399.599 344.852,394.072 337.697,387.45 314.619,342.349 319.939,295.083 345.799,275.954 383.469,205.985 426.826,185.969 466.697,181.43 470.115,177.724 475.695,161.998 473.006,155.496 421.754,102.028 444.061,87.801 445.363,76.713 435.016,76.096 408.182,95.397 374.697,95.426 354.199,82.91 "
   style="fill:#cccccc" />

</g>
  <g
     id="g1335"
     style="fill:#cccccc">
</g>
  <g
     id="g1337"
     style="fill:#cccccc">
</g>
  <g
     id="g1339"
     style="fill:#cccccc">
</g>
  <g
     id="g1341"
     style="fill:#cccccc">
</g>
  <g
     id="g1343"
     style="fill:#cccccc">
</g>
  <g
     id="g1345"
     style="fill:#cccccc">
</g>
  <g
     id="g1347"
     style="fill:#cccccc">
</g>
  <g
     id="g1349"
     style="fill:#cccccc">
</g>
  <g
     id="g1351"
     style="fill:#cccccc">
</g>
  <g
     id="g1353"
     style="fill:#cccccc">
</g>
  <g
     id="g1355"
     style="fill:#cccccc">
</g>
  <g
     id="g1357"
     style="fill:#cccccc">
</g>
  <g
     id="g1359"
     style="fill:#cccccc">
</g>
  <g
     id="g1361"
     style="fill:#cccccc">
</g>
  <g
     id="g1363"
     style="fill:#cccccc">
</g>
</g>
<g
   id="g1452"
   transform="matrix(0.13134585,0,0,0.08677877,81.222034,146.00145)"
   style="fill:#cccccc">
  <g
     id="g1395"
     style="fill:#cccccc">
	<g
   id="g1393"
   style="fill:#cccccc">
		<path
   id="path1391"
   d="M 377.297,445.388 C 387.958,274.649 452.691,139.764 452.691,139.764 324.524,211.768 301.155,388.562 297.016,460.703 302.991,204.198 379.936,19.868 379.936,19.868 228.994,148.246 216.951,399.642 216.733,472.127 214.405,409.36 196.096,215.932 60.516,139.764 c 0,0 69.358,144.518 76.312,323.729 C 132.973,415.271 110.993,319.837 0,286.203 c 0,0 57.626,68.643 57.626,205.929 H 454.374 C 454.374,354.846 512,286.203 512,286.203 413.612,316.017 385.175,394.383 377.297,445.388 Z"
   inkscape:connector-curvature="0"
   style="fill:#cccccc" />

	</g>

</g>
  <g
     id="g1397"
     style="fill:#cccccc">
</g>
  <g
     id="g1399"
     style="fill:#cccccc">
</g>
  <g
     id="g1401"
     style="fill:#cccccc">
</g>
  <g
     id="g1403"
     style="fill:#cccccc">
</g>
  <g
     id="g1405"
     style="fill:#cccccc">
</g>
  <g
     id="g1407"
     style="fill:#cccccc">
</g>
  <g
     id="g1409"
     style="fill:#cccccc">
</g>
  <g
     id="g1411"
     style="fill:#cccccc">
</g>
  <g
     id="g1413"
     style="fill:#cccccc">
</g>
  <g
     id="g1415"
     style="fill:#cccccc">
</g>
  <g
     id="g1417"
     style="fill:#cccccc">
</g>
  <g
     id="g1419"
     style="fill:#cccccc">
</g>
  <g
     id="g1421"
     style="fill:#cccccc">
</g>
  <g
     id="g1423"
     style="fill:#cccccc">
</g>
  <g
     id="g1425"
     style="fill:#cccccc">
</g>
</g>
<text
   xml:space="preserve"
   style="font-style:normal;font-weight:normal;font-size:31.36705399px;line-height:1.25;font-family:sans-serif;letter-spacing:0px;word-spacing:0px;fill:#cccccc;fill-opacity:1;stroke:none;stroke-width:1.68037784;"
   x="27.573494"
   y="133.6353"
   id="text1456"><tspan
     sodipodi:role="line"
     id="tspan1454"
     x="27.573494"
     y="133.6353"
     style="font-style:normal;font-variant:normal;font-weight:bold;font-stretch:normal;font-size:24.64554405px;font-family:sans-serif;-inkscape-font-specification:'sans-serif Bold';stroke-width:1.68037784;fill:#149fd1;fill-opacity:1">BIO GAS</tspan></text>
<g
   id="g1475"
   transform="matrix(0.33200474,0,0,0.33200474,128.23426,93.07272)"
   style="fill:#149fd1;fill-opacity:1">
  <path
     id="path1458"
     d="M 361.41406,443.58984 253.14453,179.6875 c -6.00391,-14.64063 -9.05078,-30.08594 -9.05078,-45.91016 V 64.019531 c 0,-7.511719 2.92578,-14.574219 8.23828,-19.886719 6.47656,-6.476562 10.04688,-15.089843 10.04688,-24.25 V 10 c 0,-5.523438 -4.48047,-10 -10,-10 h -139.6211 c -5.52343,0 -10,4.476562 -10,10 v 9.882812 c 0,9.160157 3.56641,17.773438 10.04297,24.25 5.3125,5.3125 8.23828,12.375 8.23828,19.890626 v 69.753902 c 0,15.82422 -3.04297,31.26953 -9.05078,45.91016 l -29.749999,72.51562 c -0.01172,0.0273 -0.02344,0.0547 -0.03516,0.082 L 3.71875,443.58984 c -6.285156,15.32422 -4.53125,32.6875 4.695312,46.44141 C 17.640625,503.78906 33.035156,512 49.597656,512 H 315.53516 c 16.5625,0 31.96093,-8.21094 41.1875,-21.96875 9.22265,-13.75781 10.97656,-31.11719 4.6914,-46.44141 z M 130.49219,187.27734 c 7,-17.05859 10.54687,-35.05859 10.54687,-53.5 V 64.019531 c 0,-12.851562 -5.0039,-24.9375 -14.09375,-34.027343 -2.67187,-2.671876 -4.15625,-6.21875 -4.1875,-9.992188 h 119.6211 c -0.0312,3.773438 -1.51563,7.316406 -4.19141,9.992188 -9.08594,9.089843 -14.09375,21.171874 -14.09375,34.027343 v 69.753909 c 0,18.4414 3.55078,36.4414 10.54687,53.5 L 258.78516,246.125 H 106.34766 Z M 340.10937,478.89062 C 334.52344,487.22266 325.56641,492 315.53516,492 H 49.597656 c -10.027344,0 -18.984375,-4.77734 -24.574218,-13.10938 -4.214844,-6.28515 -5.824219,-13.57421 -4.730469,-20.76171 h 16.476562 c 5.519531,0 10,-4.48047 10,-10 0,-5.52344 -4.480469,-10 -10,-10 h -9.1875 l 11.484375,-28 h 16.867188 c 5.523437,0 10,-4.48047 10,-10 0,-5.52344 -4.476563,-10 -10,-10 h -8.660156 l 11.484374,-28 h 17.34375 c 5.523438,0 10,-4.48047 10,-10 0,-5.52344 -4.476562,-10 -10,-10 h -9.136718 l 11.488281,-28 h 17.8125 c 5.523435,0 10.000005,-4.48047 10.000005,-10 0,-5.52344 -4.47657,-10 -10.000005,-10 H 86.65625 l 11.488281,-28 H 266.98828 l 75.92188,185.05468 c 3.80468,9.27735 2.78515,19.37891 -2.80079,27.70703 z m 0,0"
     inkscape:connector-curvature="0"
     style="fill:#149fd1;fill-opacity:1" />
  <path
     id="path1460"
     d="m 312.03125,444.21484 c -2.09375,-5.11328 -7.92969,-7.55859 -13.04297,-5.46875 -5.10937,2.09375 -7.55859,7.92969 -5.46875,13.04297 l 0.0547,0.125 c 1.58594,3.8711 5.3164,6.21485 9.25781,6.21485 1.26172,0 2.54297,-0.23828 3.78516,-0.7461 5.10937,-2.09375 7.55859,-7.93359 5.46484,-13.04297 z m 0,0"
     inkscape:connector-curvature="0"
     style="fill:#149fd1;fill-opacity:1" />
  <path
     id="path1462"
     d="m 297.89844,409.76172 -35.8125,-87.28906 c -2.09375,-5.10938 -7.9336,-7.55469 -13.04688,-5.45703 -5.10937,2.09375 -7.55078,7.9375 -5.45703,13.04687 l 35.8125,87.28906 c 1.58594,3.8711 5.31641,6.20703 9.25781,6.20703 1.26172,0 2.54688,-0.23828 3.78907,-0.75 5.10937,-2.09375 7.55468,-7.9375 5.45703,-13.04687 z m 0,0"
     inkscape:connector-curvature="0"
     style="fill:#149fd1;fill-opacity:1" />
</g>
</g>
    <g
       id="g1251"
       transform="matrix(0.44632815,0,0,0.44632815,11.786527,8.5604372)">
</g>
    <g
       id="g1253"
       transform="matrix(0.44632815,0,0,0.44632815,11.786527,8.5604372)">
</g>
    <g
       id="g1255"
       transform="matrix(0.44632815,0,0,0.44632815,11.786527,8.5604372)">
</g>
    <g
       id="g1257"
       transform="matrix(0.44632815,0,0,0.44632815,11.786527,8.5604372)">
</g>
    <g
       id="g1259"
       transform="matrix(0.44632815,0,0,0.44632815,11.786527,8.5604372)">
</g>
    <g
       id="g1261"
       transform="matrix(0.44632815,0,0,0.44632815,11.786527,8.5604372)">
</g>
    <g
       id="g1263"
       transform="matrix(0.44632815,0,0,0.44632815,11.786527,8.5604372)">
</g>
    <g
       id="g1265"
       transform="matrix(0.44632815,0,0,0.44632815,11.786527,8.5604372)">
</g>
    <g
       id="g1267"
       transform="matrix(0.44632815,0,0,0.44632815,11.786527,8.5604372)">
</g>
    <g
       id="g1269"
       transform="matrix(0.44632815,0,0,0.44632815,11.786527,8.5604372)">
</g>
    <g
       id="g1271"
       transform="matrix(0.44632815,0,0,0.44632815,11.786527,8.5604372)">
</g>
    <g
       id="g1273"
       transform="matrix(0.44632815,0,0,0.44632815,11.786527,8.5604372)">
</g>
    <g
       id="g1275"
       transform="matrix(0.44632815,0,0,0.44632815,11.786527,8.5604372)">
</g>
    <g
       id="g1277"
       transform="matrix(0.44632815,0,0,0.44632815,11.786527,8.5604372)">
</g>
    <g
       id="g1279"
       transform="matrix(0.44632815,0,0,0.44632815,11.786527,8.5604372)">
</g>
  </g>
</svg>
