<?xml version="1.0" encoding="UTF-8" standalone="no"?>
<svg
   xmlns:dc="http://purl.org/dc/elements/1.1/"
   xmlns:cc="http://creativecommons.org/ns#"
   xmlns:rdf="http://www.w3.org/1999/02/22-rdf-syntax-ns#"
   xmlns:svg="http://www.w3.org/2000/svg"
   xmlns="http://www.w3.org/2000/svg"
   xmlns:sodipodi="http://sodipodi.sourceforge.net/DTD/sodipodi-0.dtd"
   xmlns:inkscape="http://www.inkscape.org/namespaces/inkscape"
   width="128pt"
   height="128pt"
   viewBox="0 0 128 128"
   version="1.1"
   id="svg5"
   sodipodi:docname="DSSC.svg"
   inkscape:version="0.92.4 (5da689c313, 2019-01-14)">
  <metadata
     id="metadata11">
    <rdf:RDF>
      <cc:Work
         rdf:about="">
        <dc:format>image/svg+xml</dc:format>
        <dc:type
           rdf:resource="http://purl.org/dc/dcmitype/StillImage" />
        <dc:title></dc:title>
      </cc:Work>
    </rdf:RDF>
  </metadata>
  <defs
     id="defs9" />
  <sodipodi:namedview
     pagecolor="#ffffff"
     bordercolor="#666666"
     borderopacity="1"
     objecttolerance="10"
     gridtolerance="10"
     guidetolerance="10"
     inkscape:pageopacity="0"
     inkscape:pageshadow="2"
     inkscape:window-width="1600"
     inkscape:window-height="837"
     id="namedview7"
     showgrid="false"
     inkscape:zoom="0.69140625"
     inkscape:cx="79.353817"
     inkscape:cy="87.488842"
     inkscape:window-x="-8"
     inkscape:window-y="-8"
     inkscape:window-maximized="1"
     inkscape:current-layer="layer2" />
  <g
     inkscape:groupmode="layer"
     id="layer1"
     inkscape:label="Layer 1" />
  <g
     inkscape:groupmode="layer"
     id="layer2"
     inkscape:label="Layer 2">
    <g
       id="g838"
       transform="matrix(0.22416423,0,0,0.22416423,5.1268204,5.7998316)"
       style="fill:#149fd1;fill-opacity:1">
	<g
   id="g836"
   style="fill:#149fd1;fill-opacity:1">
		<path
   inkscape:connector-curvature="0"
   d="m 112.485,289.022 c -5.659,0 -10.836,3.186 -13.388,8.237 L 54.521,385.511 H 241 v -96.489 z"
   id="path834"
   style="fill:#149fd1;fill-opacity:1" />

	</g>

</g>
    <g
       id="g844"
       transform="matrix(0.22416423,0,0,0.22416423,5.1268204,5.7998316)"
       style="fill:#149fd1;fill-opacity:1">
	<g
   id="g842"
   style="fill:#149fd1;fill-opacity:1">
		<path
   inkscape:connector-curvature="0"
   d="m 412.9,297.259 c -2.552,-5.051 -7.729,-8.237 -13.388,-8.237 H 270.998 v 96.489 h 186.478 z"
   id="path840"
   style="fill:#149fd1;fill-opacity:1" />

	</g>

</g>
    <g
       id="g850"
       transform="matrix(0.22416423,0,0,0.22416423,5.1268204,5.7998316)"
       style="fill:#149fd1;fill-opacity:1">
	<g
   id="g848"
   style="fill:#149fd1;fill-opacity:1">
		<path
   inkscape:connector-curvature="0"
   d="M 510.373,490.237 472.63,415.511 H 270.998 V 512 h 225.987 c 11.155,0 18.424,-11.79 13.388,-21.763 z"
   id="path846"
   style="fill:#149fd1;fill-opacity:1" />

	</g>

</g>
    <g
       id="g856"
       transform="matrix(0.22416423,0,0,0.22416423,5.1268204,5.7998316)"
       style="fill:#149fd1;fill-opacity:1">
	<g
   id="g854"
   style="fill:#149fd1;fill-opacity:1">
		<path
   inkscape:connector-curvature="0"
   d="M 39.369,415.511 1.626,490.237 C -3.402,500.193 3.841,512 15.013,512 H 241 v -96.489 z"
   id="path852"
   style="fill:#149fd1;fill-opacity:1" />

	</g>

</g>
    <g
       id="g912"
       transform="matrix(0.22416423,0,0,0.22416423,5.1268204,5.7998316)">
</g>
    <g
       id="g914"
       transform="matrix(0.22416423,0,0,0.22416423,5.1268204,5.7998316)">
</g>
    <g
       id="g916"
       transform="matrix(0.22416423,0,0,0.22416423,5.1268204,5.7998316)">
</g>
    <g
       id="g918"
       transform="matrix(0.22416423,0,0,0.22416423,5.1268204,5.7998316)">
</g>
    <g
       id="g920"
       transform="matrix(0.22416423,0,0,0.22416423,5.1268204,5.7998316)">
</g>
    <g
       id="g922"
       transform="matrix(0.22416423,0,0,0.22416423,5.1268204,5.7998316)">
</g>
    <g
       id="g924"
       transform="matrix(0.22416423,0,0,0.22416423,5.1268204,5.7998316)">
</g>
    <g
       id="g926"
       transform="matrix(0.22416423,0,0,0.22416423,5.1268204,5.7998316)">
</g>
    <g
       id="g928"
       transform="matrix(0.22416423,0,0,0.22416423,5.1268204,5.7998316)">
</g>
    <g
       id="g930"
       transform="matrix(0.22416423,0,0,0.22416423,5.1268204,5.7998316)">
</g>
    <g
       id="g932"
       transform="matrix(0.22416423,0,0,0.22416423,5.1268204,5.7998316)">
</g>
    <g
       id="g934"
       transform="matrix(0.22416423,0,0,0.22416423,5.1268204,5.7998316)">
</g>
    <g
       id="g936"
       transform="matrix(0.22416423,0,0,0.22416423,5.1268204,5.7998316)">
</g>
    <g
       id="g938"
       transform="matrix(0.22416423,0,0,0.22416423,5.1268204,5.7998316)">
</g>
    <g
       id="g940"
       transform="matrix(0.22416423,0,0,0.22416423,5.1268204,5.7998316)">
</g>
    <g
       id="g1147"
       transform="matrix(-0.11213073,0,0,-0.11213073,88.24267,57.196907)"
       style="fill:#cccccc">
      <g
         id="g1081"
         style="fill:#cccccc">
	<g
   id="g1079"
   style="fill:#cccccc">
		<g
   id="g1077"
   style="fill:#cccccc">
			<path
   id="path1059"
   d="m 216.529,93.2 c -61.2,0 -111.2,50 -111.2,111.2 0,32 14,62.8 37.6,83.6 17.6,17.6 16,55.2 15.6,55.6 0,2 0.4,3.6 2,5.2 1.2,1.2 3.2,2 4.8,2 h 102 c 2,0 3.6,-0.8 4.8,-2 1.2,-1.2 2,-3.2 2,-5.2 0,-0.4 -2,-38 15.6,-55.6 0.4,-0.4 0.8,-0.8 1.2,-1.2 23.2,-21.2 36.8,-51.2 36.8,-82.4 0,-61.2 -50,-111.2 -111.2,-111.2 z m 64,184.4 c -0.4,0.4 -1.2,1.2 -1.2,1.6 -15.6,16.8 -18.4,44.4 -18.8,57.6 h -88.4 c -0.4,-13.2 -3.2,-42 -20,-59.2 -21.2,-18.4 -33.6,-45.2 -33.6,-73.6 0,-54 43.6,-97.6 97.6,-97.6 54,0 97.6,43.6 97.6,97.6 0,28.4 -12,55.2 -33.2,73.6 z"
   style="fill:#cccccc"
   inkscape:connector-curvature="0" />

			<path
   id="path1061"
   d="m 216.129,121.6 c -3.6,0 -6.8,3.2 -6.8,6.8 0,3.6 3.2,6.8 6.8,6.8 40.4,0 72.8,32.8 72.8,72.8 0,3.6 3.2,6.8 6.8,6.8 3.6,0 6.8,-3.2 6.8,-6.8 0.4,-47.6 -38.4,-86.4 -86.4,-86.4 z"
   style="fill:#cccccc"
   inkscape:connector-curvature="0" />

			<path
   id="path1063"
   d="m 260.529,358.4 h -88.8 c -9.2,0 -16.8,7.6 -16.8,16.8 0,9.2 7.6,16.8 16.8,16.8 h 88.4 c 9.6,-0.4 17.2,-7.6 17.2,-16.8 0,-9.2 -7.6,-16.8 -16.8,-16.8 z m 0,19.6 h -88.8 c -1.6,0 -3.2,-1.2 -3.2,-3.2 0,-2 1.2,-3.2 3.2,-3.2 h 88.4 c 1.6,0 3.2,1.2 3.2,3.2 0,2 -1.2,3.2 -2.8,3.2 z"
   style="fill:#cccccc"
   inkscape:connector-curvature="0" />

			<path
   id="path1065"
   d="m 247.329,398.8 h -62.4 c -9.2,0 -16.8,7.6 -16.8,16.8 0,9.2 7.6,16.8 16.8,16.8 h 62.4 c 9.2,0 16.8,-7.6 16.8,-16.8 0,-9.6 -7.6,-16.8 -16.8,-16.8 z m 0,19.6 h -62.4 c -1.6,0 -3.2,-1.2 -3.2,-3.2 0,-2 1.2,-3.2 3.2,-3.2 h 62.4 c 1.6,0 3.2,1.2 3.2,3.2 0,2 -1.6,3.2 -3.2,3.2 z"
   style="fill:#cccccc"
   inkscape:connector-curvature="0" />

			<path
   id="path1067"
   d="m 216.129,60 c 4,0 6.8,-3.2 6.8,-6.8 V 6.8 c 0,-3.6 -3.2,-6.8 -6.8,-6.8 -3.6,0 -6.8,3.2 -6.8,6.8 v 46.4 c 0,3.6 3.2,6.8 6.8,6.8 z"
   style="fill:#cccccc"
   inkscape:connector-curvature="0" />

			<path
   id="path1069"
   d="m 329.329,34.4 c -3.2,-2.4 -7.2,-1.2 -9.2,1.6 l -25.6,38.4 c -2.4,3.2 -1.6,7.6 1.6,9.6 1.2,0.8 2.4,1.2 3.6,1.2 2.4,0 4.4,-1.2 5.6,-3.2 l 25.6,-38.4 c 2.4,-2.8 1.6,-7.2 -1.6,-9.2 z"
   style="fill:#cccccc"
   inkscape:connector-curvature="0" />

			<path
   id="path1071"
   d="m 134.929,83.6 c 1.2,0 2.4,-0.4 3.6,-1.2 3.2,-2 4,-6.4 2,-9.6 L 115.729,34 c -2,-3.2 -6.4,-4 -9.6,-2 -3.2,2 -4,6.4 -2,9.6 l 24.8,38.8 c 1.6,2.4 3.6,3.2 6,3.2 z"
   style="fill:#cccccc"
   inkscape:connector-curvature="0" />

			<path
   id="path1073"
   d="m 86.529,126 -40.4,-22 c -3.2,-1.6 -7.6,-0.4 -9.2,2.8 -2,3.2 -0.8,7.6 2.8,9.2 l 40.4,22 c 1.2,0.4 2,0.8 3.2,0.8 2.4,0 4.8,-1.2 6,-3.6 1.6,-3.2 0.4,-7.6 -2.8,-9.2 z"
   style="fill:#cccccc"
   inkscape:connector-curvature="0" />

			<path
   id="path1075"
   d="m 395.729,106.8 c -1.6,-3.2 -6,-4.4 -9.2,-2.8 l -40.8,22 c -3.2,1.6 -4.4,6 -2.8,9.2 1.2,2.4 3.6,3.6 6,3.6 1.2,0 2.4,-0.4 3.2,-0.8 l 40.8,-22 c 3.2,-1.6 4.4,-6 2.8,-9.2 z"
   style="fill:#cccccc"
   inkscape:connector-curvature="0" />

		</g>

	</g>

</g>
      <g
         id="g1083"
         style="fill:#cccccc">
</g>
      <g
         id="g1085"
         style="fill:#cccccc">
</g>
      <g
         id="g1087"
         style="fill:#cccccc">
</g>
      <g
         id="g1089"
         style="fill:#cccccc">
</g>
      <g
         id="g1091"
         style="fill:#cccccc">
</g>
      <g
         id="g1093"
         style="fill:#cccccc">
</g>
      <g
         id="g1095"
         style="fill:#cccccc">
</g>
      <g
         id="g1097"
         style="fill:#cccccc">
</g>
      <g
         id="g1099"
         style="fill:#cccccc">
</g>
      <g
         id="g1101"
         style="fill:#cccccc">
</g>
      <g
         id="g1103"
         style="fill:#cccccc">
</g>
      <g
         id="g1105"
         style="fill:#cccccc">
</g>
      <g
         id="g1107"
         style="fill:#cccccc">
</g>
      <g
         id="g1109"
         style="fill:#cccccc">
</g>
      <g
         id="g1111"
         style="fill:#cccccc">
</g>
    </g>
  </g>
</svg>
