<?xml version="1.0" encoding="UTF-8" standalone="no"?>
<svg
   xmlns:dc="http://purl.org/dc/elements/1.1/"
   xmlns:cc="http://creativecommons.org/ns#"
   xmlns:rdf="http://www.w3.org/1999/02/22-rdf-syntax-ns#"
   xmlns:svg="http://www.w3.org/2000/svg"
   xmlns="http://www.w3.org/2000/svg"
   xmlns:sodipodi="http://sodipodi.sourceforge.net/DTD/sodipodi-0.dtd"
   xmlns:inkscape="http://www.inkscape.org/namespaces/inkscape"
   width="128pt"
   height="128pt"
   viewBox="0 0 128 128"
   version="1.1"
   id="svg5"
   sodipodi:docname="Forestry.svg"
   inkscape:version="0.92.4 (5da689c313, 2019-01-14)">
  <metadata
     id="metadata11">
    <rdf:RDF>
      <cc:Work
         rdf:about="">
        <dc:format>image/svg+xml</dc:format>
        <dc:type
           rdf:resource="http://purl.org/dc/dcmitype/StillImage" />
        <dc:title></dc:title>
      </cc:Work>
    </rdf:RDF>
  </metadata>
  <defs
     id="defs9" />
  <sodipodi:namedview
     pagecolor="#ffffff"
     bordercolor="#666666"
     borderopacity="1"
     objecttolerance="10"
     gridtolerance="10"
     guidetolerance="10"
     inkscape:pageopacity="0"
     inkscape:pageshadow="2"
     inkscape:window-width="1600"
     inkscape:window-height="837"
     id="namedview7"
     showgrid="false"
     inkscape:zoom="0.69140625"
     inkscape:cx="79.353817"
     inkscape:cy="203.19506"
     inkscape:window-x="-8"
     inkscape:window-y="-8"
     inkscape:window-maximized="1"
     inkscape:current-layer="layer2" />
  <g
     inkscape:groupmode="layer"
     id="layer1"
     inkscape:label="Layer 1" />
  <g
     inkscape:groupmode="layer"
     id="layer2"
     inkscape:label="Layer 2">
    <g
       id="g912"
       transform="matrix(0.22416423,0,0,0.22416423,5.1268204,5.7998316)">
</g>
    <g
       id="g914"
       transform="matrix(0.22416423,0,0,0.22416423,5.1268204,5.7998316)">
</g>
    <g
       id="g916"
       transform="matrix(0.22416423,0,0,0.22416423,5.1268204,5.7998316)">
</g>
    <g
       id="g918"
       transform="matrix(0.22416423,0,0,0.22416423,5.1268204,5.7998316)">
</g>
    <g
       id="g920"
       transform="matrix(0.22416423,0,0,0.22416423,5.1268204,5.7998316)">
</g>
    <g
       id="g922"
       transform="matrix(0.22416423,0,0,0.22416423,5.1268204,5.7998316)">
</g>
    <g
       id="g924"
       transform="matrix(0.22416423,0,0,0.22416423,5.1268204,5.7998316)">
</g>
    <g
       id="g926"
       transform="matrix(0.22416423,0,0,0.22416423,5.1268204,5.7998316)">
</g>
    <g
       id="g928"
       transform="matrix(0.22416423,0,0,0.22416423,5.1268204,5.7998316)">
</g>
    <g
       id="g930"
       transform="matrix(0.22416423,0,0,0.22416423,5.1268204,5.7998316)">
</g>
    <g
       id="g932"
       transform="matrix(0.22416423,0,0,0.22416423,5.1268204,5.7998316)">
</g>
    <g
       id="g934"
       transform="matrix(0.22416423,0,0,0.22416423,5.1268204,5.7998316)">
</g>
    <g
       id="g936"
       transform="matrix(0.22416423,0,0,0.22416423,5.1268204,5.7998316)">
</g>
    <g
       id="g938"
       transform="matrix(0.22416423,0,0,0.22416423,5.1268204,5.7998316)">
</g>
    <g
       id="g940"
       transform="matrix(0.22416423,0,0,0.22416423,5.1268204,5.7998316)">
</g>
    <g
       id="g1210"
       transform="matrix(0.21069904,0,0,0.21069904,3.6730156,3.8861182)"
       style="fill:#cccccc">
      <g
         id="g1153"
         style="fill:#cccccc">
	<g
   id="g1151"
   style="fill:#cccccc">
		<path
   id="path1149"
   d="m 552.963,141.235 c -1.216,-11.123 -4.438,-21.653 -9.212,-31.277 C 531.768,62.658 487.549,36.412 442.351,43.303 429.03,26.175 411.008,12.699 388.328,4.804 352.517,-7.66 314.231,5.086 290.8,32.038 224.753,-21.847 122.9,4.853 94.732,91.667 c -1.383,4.264 -3.733,8.229 -4.937,12.526 -0.041,0.151 -0.082,0.302 -0.118,0.457 -28.654,7.438 -57.079,30.89 -59.421,60.062 -0.146,1.836 -0.188,3.611 -0.179,5.357 -14.953,38.638 -12.983,76.316 10.208,112.727 24.194,37.993 59.127,56.609 102.522,57.066 41.518,56.187 79.58,114.824 114.174,175.571 -1.579,9.498 -4.827,19.837 -9.318,32.403 -10.127,28.331 -0.641,42.574 29.494,43.48 4.537,0.135 9.111,0.249 13.623,-0.139 17.471,-1.514 26.643,-14.55 21.828,-31.363 -3.228,-11.272 -8.878,-22.122 -10.396,-33.566 -0.074,-0.562 0.008,-3.227 0.314,-7.507 17.009,-32.248 54.989,-51.232 76.332,-80.515 13.864,-19.021 23.827,-40.176 29.604,-62.429 13.48,-0.889 27.079,-5.047 40.816,-13.745 20.73,-13.129 32.722,-35.125 35.729,-58.475 2.697,-5.635 6.124,-8.27 13.301,-9.375 41.146,-6.34 66.431,-32.803 71.755,-73.877 3.619,-27.936 -4.415,-52.848 -17.079,-76.985 0.033,-0.677 0.061,-1.355 -0.021,-2.105 z M 181.337,351.619 c 11.2,10.453 22.211,21.135 31.677,33.008 5.426,6.805 9.833,20.448 14.063,34.279 -14.72,-22.782 -30.003,-45.193 -45.74,-67.287 z m 99.042,93.771 c -8.535,1.343 -28.368,-42.057 -35.247,-56.096 21.489,-1.371 43.167,-2.75 66.083,-4.215 -0.514,1.502 -0.819,3.284 -1.673,4.754 -7.339,12.623 -11.86,52.836 -29.163,55.557 z m 66.851,-7.544 c -12.313,13.231 -26.406,24.468 -39.201,36.594 5.472,-32.484 15.569,-74.125 33.403,-106.32 2.057,-3.713 4.464,-5.762 7.332,-6.695 11.493,5.65 23.076,10.041 34.745,12.48 -6.748,23.467 -18.886,45.254 -36.279,63.941 z"
   inkscape:connector-curvature="0"
   style="fill:#cccccc" />

	</g>

</g>
      <g
         id="g1155"
         style="fill:#cccccc">
</g>
      <g
         id="g1157"
         style="fill:#cccccc">
</g>
      <g
         id="g1159"
         style="fill:#cccccc">
</g>
      <g
         id="g1161"
         style="fill:#cccccc">
</g>
      <g
         id="g1163"
         style="fill:#cccccc">
</g>
      <g
         id="g1165"
         style="fill:#cccccc">
</g>
      <g
         id="g1167"
         style="fill:#cccccc">
</g>
      <g
         id="g1169"
         style="fill:#cccccc">
</g>
      <g
         id="g1171"
         style="fill:#cccccc">
</g>
      <g
         id="g1173"
         style="fill:#cccccc">
</g>
      <g
         id="g1175"
         style="fill:#cccccc">
</g>
      <g
         id="g1177"
         style="fill:#cccccc">
</g>
      <g
         id="g1179"
         style="fill:#cccccc">
</g>
      <g
         id="g1181"
         style="fill:#cccccc">
</g>
      <g
         id="g1183"
         style="fill:#cccccc">
</g>
    </g>
    <g
       id="g1226"
       transform="matrix(0.11027947,0,0,0.11027947,65.266046,75.618626)"
       style="fill:#149fd1;fill-opacity:0.94117647">
      <path
         id="path1212"
         d="m 437.066,74.981 c -5.857,-5.858 -15.355,-5.858 -21.213,0 -5.858,5.858 -5.858,15.355 0,21.213 C 458.509,138.849 482,195.603 482,256 c 0,60.397 -23.491,117.151 -66.147,159.806 -5.858,5.857 -5.858,15.355 0,21.213 5.868,5.868 15.365,5.848 21.213,0 C 485.388,388.698 512,324.411 512,256 512,187.589 485.388,123.302 437.066,74.981 Z"
         inkscape:connector-curvature="0"
         style="fill:#149fd1;fill-opacity:0.94117647" />
      <path
         id="path1214"
         d="m 391.646,120.4 c -5.858,-5.857 -15.356,-5.857 -21.213,0 -5.857,5.858 -5.857,15.355 0,21.213 30.533,30.531 47.349,71.155 47.349,114.387 0,43.232 -16.815,83.855 -47.349,114.387 -5.858,5.858 -5.858,15.355 0,21.213 5.856,5.856 15.353,5.859 21.213,0 36.2,-36.198 56.136,-84.355 56.136,-135.601 0,-51.246 -19.937,-99.402 -56.136,-135.599 z"
         inkscape:connector-curvature="0"
         style="fill:#149fd1;fill-opacity:0.94117647" />
      <path
         id="path1216"
         d="m 346.193,165.852 c -5.858,-5.857 -15.356,-5.857 -21.213,0 -5.858,5.858 -5.857,15.356 0,21.213 18.4,18.398 28.533,42.88 28.533,68.934 0,26.054 -10.133,50.536 -28.533,68.934 -5.858,5.857 -5.858,15.355 0,21.213 5.857,5.857 15.354,5.859 21.213,0 24.066,-24.065 37.32,-56.08 37.32,-90.148 0,-34.068 -13.254,-66.081 -37.32,-90.146 z"
         inkscape:connector-curvature="0"
         style="fill:#149fd1;fill-opacity:0.94117647" />
      <path
         id="path1218"
         d="m 30,256 c 0,-60.397 23.491,-117.151 66.147,-159.806 5.858,-5.857 5.858,-15.355 0,-21.213 -5.857,-5.857 -15.354,-5.858 -21.213,0 C 26.612,123.302 0,187.589 0,256 c 0,68.411 26.612,132.698 74.934,181.019 5.856,5.857 15.355,5.859 21.213,0 5.858,-5.858 5.858,-15.355 0,-21.213 C 53.491,373.151 30,316.397 30,256 Z"
         inkscape:connector-curvature="0"
         style="fill:#149fd1;fill-opacity:0.94117647" />
      <path
         id="path1220"
         d="m 94.219,256 c 0,-43.232 16.815,-83.855 47.349,-114.387 5.858,-5.858 5.858,-15.355 0,-21.213 -5.857,-5.858 -15.355,-5.857 -21.213,0 -36.2,36.197 -56.136,84.355 -56.136,135.6 0,51.245 19.936,99.403 56.136,135.601 5.866,5.865 15.363,5.85 21.213,0 5.857,-5.858 5.857,-15.355 0,-21.213 C 111.034,339.856 94.219,299.232 94.219,256 Z"
         inkscape:connector-curvature="0"
         style="fill:#149fd1;fill-opacity:0.94117647" />
      <path
         id="path1222"
         d="m 187.021,165.853 c -5.857,-5.858 -15.355,-5.858 -21.213,0 -24.066,24.065 -37.32,56.08 -37.32,90.148 0,34.068 13.254,66.083 37.32,90.148 5.866,5.865 15.363,5.85 21.213,0 5.858,-5.858 5.857,-15.356 0,-21.213 -18.4,-18.398 -28.533,-42.88 -28.533,-68.934 0,-26.054 10.133,-50.536 28.533,-68.934 5.857,-5.859 5.857,-15.357 0,-21.215 z"
         inkscape:connector-curvature="0"
         style="fill:#149fd1;fill-opacity:0.94117647" />
      <path
         id="path1224"
         d="m 256,192.8 c -34.849,0 -63.2,28.352 -63.2,63.2 0,34.848 28.352,63.2 63.2,63.2 34.848,0 63.2,-28.352 63.2,-63.2 0,-34.848 -28.351,-63.2 -63.2,-63.2 z"
         inkscape:connector-curvature="0"
         style="fill:#149fd1;fill-opacity:0.94117647" />
    </g>
  </g>
</svg>
