<?xml version="1.0" encoding="UTF-8" standalone="no"?>
<svg
   xmlns:dc="http://purl.org/dc/elements/1.1/"
   xmlns:cc="http://creativecommons.org/ns#"
   xmlns:rdf="http://www.w3.org/1999/02/22-rdf-syntax-ns#"
   xmlns:svg="http://www.w3.org/2000/svg"
   xmlns="http://www.w3.org/2000/svg"
   xmlns:sodipodi="http://sodipodi.sourceforge.net/DTD/sodipodi-0.dtd"
   xmlns:inkscape="http://www.inkscape.org/namespaces/inkscape"
   width="128pt"
   height="128pt"
   viewBox="0 0 128 128"
   version="1.1"
   id="svg5"
   sodipodi:docname="MAP.svg"
   inkscape:version="0.92.4 (5da689c313, 2019-01-14)">
  <metadata
     id="metadata11">
    <rdf:RDF>
      <cc:Work
         rdf:about="">
        <dc:format>image/svg+xml</dc:format>
        <dc:type
           rdf:resource="http://purl.org/dc/dcmitype/StillImage" />
        <dc:title></dc:title>
      </cc:Work>
    </rdf:RDF>
  </metadata>
  <defs
     id="defs9" />
  <sodipodi:namedview
     pagecolor="#ffffff"
     bordercolor="#666666"
     borderopacity="1"
     objecttolerance="10"
     gridtolerance="10"
     guidetolerance="10"
     inkscape:pageopacity="0"
     inkscape:pageshadow="2"
     inkscape:window-width="1600"
     inkscape:window-height="837"
     id="namedview7"
     showgrid="false"
     inkscape:zoom="0.9777961"
     inkscape:cx="180.53222"
     inkscape:cy="43.864217"
     inkscape:window-x="-8"
     inkscape:window-y="-8"
     inkscape:window-maximized="1"
     inkscape:current-layer="layer2" />
  <g
     inkscape:groupmode="layer"
     id="layer1"
     inkscape:label="Layer 1">
    <path
       id="path818"
       d="m 114.37548,95.78429 -1.32472,-0.30376 c 12.8384,-10.517828 15.57422,-33.872169 3.48179,-46.040767 -4.65322,-4.68016 -7.4327,-12.086846 -7.4327,-19.814967 0,-11.201542 -7.3686,-20.316607 -16.427946,-20.316607 -9.056557,0 -16.427945,9.115065 -16.427945,20.316607 0,2.545385 -0.300996,5.053608 -0.873236,7.441066 C 66.931017,27.324664 53.528738,26.208041 44.566945,32.434938 V 9.585946 c 0,-0.990277 -0.803557,-1.793842 -1.792917,-1.793842 -0.990277,0 -1.793844,0.803565 -1.793844,1.793842 v 7.043465 C 35.622806,6.964387 25.874176,4.379061 14.956904,6.577007 13.854208,6.799966 13.225295,7.974185 13.65077,9.01649 c 0.100331,0.244317 2.516577,6.06804 7.18466,11.167167 5.524603,6.035535 12.381341,9.0324 20.144754,6.882755 v 5.368526 C 30.444716,25.114646 12.804475,27.7427 5.5575615,44.434465 c -0.3938852,0.90853 0.024154,1.962918 0.9326873,2.357728 0.9094644,0.394812 1.9638518,-0.02132 2.3586624,-0.930827 6.6319258,-15.272299 22.4904098,-16.505971 30.9013168,-9.881472 1.751113,1.473349 4.30486,1.465919 6.046683,0 9.574913,-7.541394 26.139401,-4.259336 31.815419,12.241985 3.051672,8.887481 2.441344,18.181845 -2.855654,27.795775 -2.10691,3.768828 -3.838517,6.902258 -5.269127,9.511737 -11.108644,-2.393039 -12.694405,-3.268128 -16.475314,-3.186386 -0.990284,0.01956 -1.777123,0.837017 -1.75576,1.8273 0.01947,0.993066 0.835148,1.781762 1.830078,1.757609 0.650279,-0.01354 1.388808,0.01955 2.168216,0.115268 l -1.075753,9.661308 c -0.109604,0.98377 0.599193,1.87094 1.583901,1.98055 0.988425,0.10971 1.871879,-0.60289 1.981495,-1.58389 l 1.040453,-9.339864 c 7.165156,1.635916 11.828597,2.702372 17.38477,3.973195 l -0.512786,4.606779 c -0.109547,0.98469 0.599178,1.87188 1.583894,1.9815 0.988432,0.10958 1.871871,-0.60292 1.981498,-1.58482 l 0.467279,-4.199896 c 1.108261,0.253609 26.56767,6.068986 26.88631,6.142366 l -1.3851,12.43614 c -0.10958,0.98473 0.6001,1.87188 1.58391,1.9815 0.98934,0.1097 1.87187,-0.60289 1.98148,-1.58389 l 1.34049,-12.02927 3.48088,0.79613 c 4.31508,0.98471 7.16516,4.99323 6.6728,9.39378 -0.48771,4.37638 -4.1785,7.68445 -8.58091,7.69374 l -18.360197,0.0353 0.652134,-5.84881 c 0.109547,-0.98471 -0.599194,-1.87187 -1.583894,-1.98149 -0.985647,-0.10878 -1.871886,0.59919 -1.981513,1.58389 l -0.69672,6.25384 -17.596579,0.0335 0.612178,-5.4986 c 0.109696,-0.98378 -0.599178,-1.87095 -1.583891,-1.98057 -0.981917,-0.11061 -1.871887,0.59919 -1.9815,1.58391 -0.152349,1.37023 -0.641921,5.75683 -0.656781,5.90268 l -8.424842,0.0158 1.066455,-9.57121 c 0.109604,-0.98378 -0.599185,-1.87093 -1.583892,-1.98056 -0.98564,-0.11058 -1.871879,0.5992 -1.981496,1.5839 l -1.111985,9.97531 c -0.01762,0 -0.03066,0 -0.04091,0 -8.79e-4,0 -0.0028,0 -0.0034,0 -0.0028,0 -0.0053,0 -0.008,0 0,0 -8.83e-4,0 -0.0018,0 -0.0034,0 -0.0053,0 -0.0094,0 -0.116108,0 -0.679072,8.7e-4 -2.970846,0.006 -7.04068,0 -13.076216,-4.8028 -14.792022,-11.43937 -1.760402,-6.77871 1.321921,-14.347976 8.260415,-17.6449 0.894604,-0.42546 1.276404,-1.494716 0.85094,-2.389306 -0.425466,-0.894606 -1.494712,-1.277345 -2.389317,-0.850936 -3.496649,1.659134 -6.317935,4.27606 -8.195386,7.475426 -3.63052,-1.810838 -7.783024,-4.659073 -9.997689,-8.853378 C 24.297277,77.34169 16.042435,79.383577 16.014565,85.522225 L 10.39449,75.303899 C 6.5420392,68.304083 5.130933,60.447778 6.8077283,52.3397 7.0083829,51.368935 6.3841142,50.419524 5.4133428,50.218855 4.4425626,50.018208 3.495014,50.64248 3.294352,51.613243 1.4958642,60.313999 2.8614572,69.054691 7.2499151,77.033639 L 14.913001,90.961695 9.2973727,90.335572 c -3.2495465,-0.361369 -6.1730211,1.974059 -6.5343915,5.225468 -0.3604389,3.24119 1.9805688,6.17302 5.2236119,6.53438 l 9.2980809,1.03488 c -2.305709,2.06418 -4.161795,3.93513 -3.928628,6.88554 0.403177,5.21525 6.964504,7.38813 10.393339,3.38426 2.82222,-3.30252 7.232044,-5.34252 11.702258,-6.44335 2.430196,7.5962 9.566557,13.1115 17.970962,13.1115 2.733034,-0.006 54.951485,-0.10603 58.252105,-0.11245 6.78058,-0.0136 12.21878,-5.50788 12.21878,-12.25035 -8.9e-4,-5.73921 -3.91376,-10.64231 -9.51731,-11.9215 z M 17.950977,9.705785 C 29.878046,8.077298 37.399003,13.761675 39.910938,23.639437 30.193896,26.255417 22.55217,18.573748 17.950977,9.705785 Z M 108.37246,94.41127 73.137482,86.360808 c 1.018151,-1.86537 2.147781,-3.923961 3.405607,-6.188803 3.321999,5.722471 9.515453,9.577708 16.592377,9.577708 9.104844,0 17.009464,-6.471215 18.793094,-15.387491 0.19416,-0.97078 -0.43756,-1.915542 -1.40832,-2.108762 -0.97357,-0.194152 -1.91554,0.43476 -2.10969,1.40554 -1.4492,7.244111 -7.87304,12.503954 -15.275084,12.503954 -6.552987,0 -12.173251,-4.067974 -14.471532,-9.810883 2.980148,-5.6723 4.407974,-11.666018 4.359654,-17.611446 8.9999,-7.695605 22.875942,-2.841718 25.336792,8.52797 0.21086,0.968913 1.16214,1.583892 2.13384,1.37302 0.968,-0.209954 1.58298,-1.164933 1.37209,-2.132929 -0.91039,-4.211955 -3.26439,-8.041173 -6.61985,-10.781647 -6.375535,-5.203156 -15.488748,-5.79027 -22.507134,-1.238323 -0.597327,-4.714516 -2.1645,-9.627851 -4.668084,-13.720899 1.150065,-3.467854 1.760409,-7.242267 1.760409,-11.143021 0,-8.276208 5.154866,-16.72892 12.840253,-16.72892 7.603626,0 12.840236,8.339384 12.840236,16.72892 0,8.782501 3.08978,16.925866 8.47595,22.345484 9.34173,9.393773 8.43786,26.834287 0.32328,37.107784 -1.76319,2.231384 -3.76978,4.025214 -5.93891,5.333206 z m -73.685127,9.01383 c -5.110277,1.24295 -10.280928,3.68615 -13.665174,7.64358 -0.835146,0.97636 -2.308495,1.0906 -3.28392,0.25639 -0.978203,-0.83885 -1.092465,-2.30662 -0.255468,-3.28205 1.561601,-1.82542 3.432556,-3.41399 5.42334,-4.69225 1.412042,-0.91318 0.900176,-3.10277 -0.774762,-3.28763 C 20.578113,99.88942 9.5577123,98.6604 8.3825674,98.52941 c -1.274546,-0.14116 -2.1979426,-1.2959 -2.056747,-2.57046 0.1411981,-1.26061 1.2699107,-2.197941 2.573259,-2.056743 0.00704,8.86e-4 0.0149,8.86e-4 0.021324,0.0015 -0.00346,0 -0.00704,-8.73e-4 -0.010259,-8.73e-4 0.00804,8.73e-4 0.0223,0.003 0.042747,0.0046 -8.809e-4,0 -0.00186,0 -0.00346,0 0.019471,0.0015 0.033406,0.003 0.04177,0.0046 -0.00618,-8.72e-4 -0.015777,-0.0015 -0.026006,-0.003 0.3669435,0.04093 2.5100836,0.279616 12.4249946,1.385086 0.570391,-0.0362 2.308495,0.7023 3.068397,-0.85652 0.332603,-0.6837 0.198828,-1.499345 -0.332543,-2.041867 -1.740889,-1.775262 -3.173361,-3.716815 -4.256543,-5.768906 -0.600119,-1.136129 -0.162569,-2.547238 0.970772,-3.147364 h 0.0028 c 1.14636,-0.602893 2.543531,-0.159782 3.144577,0.973565 2.642923,5.008085 7.490295,8.339378 11.66138,10.412832 -0.952192,2.68566 -1.307994,5.66953 -0.961483,8.55956 z m 0,0"
       inkscape:connector-curvature="0"
       style="fill:#cccccc;stroke-width:0.23781678" />
  </g>
  <g
     inkscape:groupmode="layer"
     id="layer2"
     inkscape:label="Layer 2">
    <g
       id="surface4070259"
       transform="matrix(0.52914926,0,0,0.52914926,64.650846,63.116784)"
       style="fill:#149fdf;fill-opacity:0.94117647">
      <path
         style="fill:#149fdf;fill-opacity:0.94117647;fill-rule:nonzero;stroke:none"
         d="m 64,13.5 c -27.800781,0 -50.5,22.699219 -50.5,50.5 0,27.800781 22.699219,50.5 50.5,50.5 27.800781,0 50.5,-22.699219 50.5,-50.5 C 114.5,36.199219 91.800781,13.5 64,13.5 Z m 0,6 c 24.5,0 44.5,20 44.5,44.5 0,24.5 -20,44.5 -44.5,44.5 -24.5,0 -44.5,-20 -44.5,-44.5 0,-24.5 20,-44.5 44.5,-44.5 z M 64,31 c -1.699219,0 -3,1.300781 -3,3 v 24.800781 c -1.800781,1 -3,3 -3,5.199219 0,3.300781 2.699219,6 6,6 2.199219,0 4.199219,-1.199219 5.199219,-3 H 84 c 1.699219,0 3,-1.300781 3,-3 0,-1.699219 -1.300781,-3 -3,-3 H 69.199219 C 68.699219,60.101562 67.898438,59.300781 67,58.800781 V 34 c 0,-1.699219 -1.300781,-3 -3,-3 z m 0,0"
         id="path2"
         inkscape:connector-curvature="0" />
    </g>
  </g>
</svg>
