<?xml version="1.0" encoding="UTF-8"?>
<svg id="svg1117" width="391mm" height="315mm" version="1.1" viewBox="0 0 1477.8 1190.6" xmlns="http://www.w3.org/2000/svg" xmlns:xlink="http://www.w3.org/1999/xlink">
 <defs id="defs871">
  <linearGradient id="linearGradient1319">
   <stop id="stop815" offset="0"/>
   <stop id="stop817" stop-color="#4d4d4d" offset="1"/>
  </linearGradient>
  <linearGradient id="linearGradient1293-4">
   <stop id="stop820" stop-color="#9bb6ce" offset="0"/>
   <stop id="stop822" stop-color="#0ea9ff" offset="1"/>
  </linearGradient>
  <linearGradient id="linearGradient1079-0">
   <stop id="stop825" stop-color="#a00" offset="0"/>
   <stop id="stop827" stop-color="#f55" offset="1"/>
  </linearGradient>
  <style id="style830">.cls-1 {
        clip-path: url(#clip-iPad_1);
      }

      .cls-10, .cls-11, .cls-16, .cls-19, .cls-2, .cls-20, .cls-22 {
        fill: #fff;
      }

      .cls-15, .cls-2 {
        font-size: 30px;
      }

      .cls-10, .cls-12, .cls-13, .cls-15, .cls-16, .cls-2, .cls-20, .cls-22 {
        font-family: MyriadPro-Semibold, Myriad Pro;
        font-weight: 600;
      }

      .cls-3 {
        fill: #390071;
      }

      .cls-4 {
        fill: #090cf9;
      }

      .cls-5 {
        fill: #0884f8;
      }

      .cls-6 {
        fill: #771000;
      }

      .cls-7 {
        fill: #f7c44f;
      }

      .cls-8 {
        fill: #c10099;
      }

      .cls-9 {
        fill: #f954f8;
      }

      .cls-10 {
        font-size: 20px;
      }

      .cls-11 {
        font-size: 50px;
        font-family: MyriadPro-Regular, Myriad Pro;
      }

      .cls-13 {
        font-size: 29.165px;
        baseline-shift: 16.664999433269266;
      }

      .cls-14 {
        fill: #ff0909;
      }

      .cls-16 {
        font-size: 40px;
      }

      .cls-17 {
        fill: #013300;
      }

      .cls-18 {
        fill: #097915;
      }

      .cls-20 {
        font-size: 25px;
      }

      .cls-21 {
        fill: #a1a0a0;
      }

      .cls-22 {
        font-size: 18px;
      }

      .cls-23 {
        font-size: 10.499px;
        baseline-shift: -5.999400079342301;
      }

      .cls-24, .cls-25 {
        stroke: none;
      }

      .cls-25 {
        fill: #707070;
      }

      .cls-26 {
        fill: #100c2f;
      }</style>
  <clipPath id="clip-iPad_1">
   <rect id="rect832" width="1024" height="768"/>
  </clipPath>
  <filter id="filter1234" color-interpolation-filters="sRGB">
   <feFlood id="feFlood835" flood-color="rgb(0,0,0)" flood-opacity=".49804" result="flood"/>
   <feComposite id="feComposite837" in="flood" in2="SourceGraphic" operator="in" result="composite1"/>
   <feGaussianBlur id="feGaussianBlur839" in="composite1" result="blur" stdDeviation="19.2708"/>
   <feOffset id="feOffset841" dx="8.2" dy="6.2" result="offset"/>
   <feComposite id="feComposite843" in="SourceGraphic" in2="offset" result="fbSourceGraphic"/>
   <feColorMatrix id="feColorMatrix845" in="fbSourceGraphic" result="fbSourceGraphicAlpha" values="0 0 0 -1 0 0 0 0 -1 0 0 0 0 -1 0 0 0 0 1 0"/>
   <feFlood id="feFlood847" flood-color="rgb(0,0,0)" flood-opacity=".49804" in="fbSourceGraphic" result="flood"/>
   <feComposite id="feComposite849" in="flood" in2="fbSourceGraphic" operator="in" result="composite1"/>
   <feGaussianBlur id="feGaussianBlur851" in="composite1" result="blur" stdDeviation="19.3"/>
   <feOffset id="feOffset853" dx="8.2" dy="6.2" result="offset"/>
   <feComposite id="feComposite855" in="fbSourceGraphic" in2="offset" result="composite2"/>
  </filter>
  <linearGradient id="linearGradient1081" x1="963.34" x2="1004.4" y1="393.12" y2="410.96" gradientTransform="matrix(.79904 0 0 .79904 15.047 155.74)" gradientUnits="userSpaceOnUse" xlink:href="#linearGradient1079-0"/>
  <linearGradient id="linearGradient1081-3" x1="963.34" x2="1004.4" y1="393.12" y2="410.96" gradientTransform="matrix(.79904 0 0 .79904 14.641 293.91)" gradientUnits="userSpaceOnUse" xlink:href="#linearGradient1079-0"/>
  <linearGradient id="linearGradient1081-3-6" x1="963.34" x2="1004.4" y1="393.12" y2="410.96" gradientTransform="matrix(.79904 0 0 .79904 14.641 428.56)" gradientUnits="userSpaceOnUse" xlink:href="#linearGradient1079-0"/>
  <linearGradient id="linearGradient1295" x1="330.5" x2="330.5" y1="867.62" y2="943.31" gradientTransform="matrix(1.017,0,0,1.0108,-26.223,-27.421)" gradientUnits="userSpaceOnUse" spreadMethod="reflect" xlink:href="#linearGradient1293-4"/>
  <linearGradient id="linearGradient1303" x1="193.26" x2="427.37" y1="905.46" y2="905.46" gradientTransform="matrix(1.017,0,0,1.0108,-26.223,-27.421)" gradientUnits="userSpaceOnUse" xlink:href="#linearGradient1319"/>
  <linearGradient id="linearGradient1295-0" x1="330.5" x2="330.5" y1="867.62" y2="943.31" gradientTransform="matrix(1.017,0,0,1.0108,310.97,-27.697)" gradientUnits="userSpaceOnUse" spreadMethod="reflect" xlink:href="#linearGradient1293-4"/>
  <linearGradient id="linearGradient1303-6" x1="193.26" x2="427.37" y1="905.46" y2="905.46" gradientTransform="matrix(1.017,0,0,1.0108,310.97,-27.697)" gradientUnits="userSpaceOnUse" xlink:href="#linearGradient1319"/>
  <linearGradient id="linearGradient1295-0-2" x1="330.5" x2="330.5" y1="867.62" y2="943.31" gradientTransform="matrix(1.017,0,0,1.0108,627.42,-29.122)" gradientUnits="userSpaceOnUse" spreadMethod="reflect">
   <stop id="stop865" stop-color="#0f0" offset="0"/>
   <stop id="stop867" stop-color="#008000" offset="1"/>
  </linearGradient>
  <linearGradient id="linearGradient1303-6-5" x1="193.26" x2="427.37" y1="905.46" y2="905.46" gradientTransform="matrix(1.017,0,0,1.0108,627.42,-29.122)" gradientUnits="userSpaceOnUse" xlink:href="#linearGradient1319"/>
 </defs>
 <g id="g877" transform="translate(-24.001 422.55)">
  <rect id="rect873" transform="matrix(.8298 0 0 .91489 177.71 -165.74)" x="-123.93" y="-76.829" width="1289" height="941.46" ry="44.445" fill="#333" filter="url(#filter1234)"/>
  <rect id="rect875" x="122.86" y="-187.95" width="970.37" height="728.89" ry=".67792" fill="#fff" stroke-width="1.4915"/>
 </g>
 <g id="g899" transform="translate(-24.001)">
  <rect id="rect879" x="122.86" y="234.6" width="971.27" height="81.305" fill="#f00" stroke-width=".87004"/>
  <rect id="rect881" x="763.41" y="325.88" width="327.37" height="81.251" fill="#f00" stroke-width=".95183"/>
  <rect id="rect883" x="122.52" y="425.67" width="722.15" height="106.91" fill="#0403bc" stroke-width=".91606"/>
  <rect id="rect885" x="157.95" y="437.07" width="470.8" height="82.677" fill="#fff" stroke-width=".79593"/>
  <rect id="rect887" x="122.7" y="561.97" width="720.54" height="106.91" fill="#398555" stroke-width=".91504"/>
  <rect id="rect889" x="159.15" y="573.37" width="470.8" height="82.677" fill="#fff" stroke-width=".79593"/>
  <rect id="rect891" x="123.53" y="697.22" width="721.14" height="106.91" fill="#b2b424" stroke-width=".91542"/>
  <rect id="rect893" x="157.95" y="708.62" width="470.8" height="82.677" fill="#fff" stroke-width=".79593"/>
  <rect id="rect895" x="157.95" y="437.07" width="419.42" height="82.677" fill="#0884f8" stroke-width=".75124"/>
  <rect id="rect897" x="157.95" y="708.62" width="69.305" height="82.677" fill="#f8c009" stroke-width=".30538"/>
 </g>
 <g id="g907" transform="translate(-24.001)" fill="#fff" stroke-width=".65854">
  <rect id="rect901" x="652.1" y="448.47" width="95.506" height="51.317"/>
  <rect id="rect903" x="652.42" y="589.59" width="95.506" height="51.317"/>
  <rect id="rect905" x="652.1" y="722.68" width="95.506" height="51.317"/>
 </g>
 <g id="g919" transform="translate(-24.001)">
  <g id="g915" stroke="#000" stroke-width="2.3172">
   <circle id="ellipse909" cx="797.63" cy="476.98" r="21.382" fill="url(#linearGradient1081)"/>
   <circle id="ellipse911" cx="797.22" cy="615.16" r="21.382" fill="url(#linearGradient1081-3)" stroke-opacity=".49724"/>
   <circle id="ellipse913" cx="797.22" cy="749.8" r="21.382" fill="url(#linearGradient1081-3-6)" stroke-opacity=".49724"/>
  </g>
  <rect id="rect917" x="861.73" y="494.2" width="215.7" height="219.73" ry="26.474" fill="#ff2a2a"/>
 </g>
 <g id="g941" transform="translate(-24.001)" font-family="sans-serif" font-size="21.308px" letter-spacing="0px" stroke-width=".79904" word-spacing="0px">
  <text id="text923" x="420.24435" y="284.54688" style="line-height:1.25" xml:space="preserve"><tspan id="tspan921" x="420.24435" y="284.54688" fill="#ffffff" font-family="sans-serif" font-size="38.354px" font-weight="bold" stroke-width=".79904">Product 1  - Ladoo</tspan></text>
  <text id="text927" x="278.12289" y="486.1376" style="line-height:1.25" xml:space="preserve"><tspan id="tspan925" x="278.12289" y="486.1376" font-family="sans-serif" font-size="29.831px" font-weight="bold" stroke-width=".79904">NITROGEN</tspan></text>
  <text id="text931" x="277.51407" y="620.97473" style="line-height:1.25" xml:space="preserve"><tspan id="tspan929" x="277.51407" y="620.97473" font-family="sans-serif" font-size="29.831px" font-weight="bold" stroke-width=".79904">OXYGEN</tspan></text>
  <text id="text935" x="276.90518" y="760.07233" style="line-height:1.25" xml:space="preserve"><tspan id="tspan933" x="276.90518" y="760.07233" font-family="sans-serif" font-size="29.831px" font-weight="bold" stroke-width=".79904">CARBON DI OXIDE</tspan></text>
  <text id="text939" x="880.87915" y="375.2627" style="line-height:1.25" xml:space="preserve"><tspan id="tspan937" x="880.87915" y="375.2627" fill="#ffffff" font-family="sans-serif" font-size="29.831px" font-weight="bold" stroke-width=".79904">ALARM</tspan></text>
 </g>
 <g id="g953" transform="translate(-24.001)">
  <text id="text945" x="910.98529" y="447.62125" fill="#ff0000" font-family="sans-serif" font-size="21.308px" letter-spacing="0px" stroke-width=".79904" word-spacing="0px" style="line-height:1.25" xml:space="preserve"><tspan id="tspan943" x="910.98529" y="447.62125" fill="#ff0000" font-family="sans-serif" font-size="29.831px" font-weight="bold" stroke-width=".79904">SOUND</tspan></text>
  <ellipse id="ellipse947" cx="971.09" cy="598.52" rx="34.774" ry="35.782" fill="#fff"/>
  <text id="text951" x="1132.4984" y="563.31995" fill="#ff0000" font-family="sans-serif" font-size="26.667px" letter-spacing="0px" word-spacing="0px" style="line-height:1.25" xml:space="preserve"><tspan id="tspan949" x="1132.4984" y="586.9137" fill="#ff0000" font-family="sans-serif" font-size="21.333px" font-weight="bold"/></text>
 </g>
 <g id="g971" transform="translate(-24.001)" font-family="sans-serif" font-size="21.308px" letter-spacing="0px" stroke-width=".79904" word-spacing="0px">
  <text id="text957" x="948.41211" y="608.10004" style="line-height:1.25" xml:space="preserve"><tspan id="tspan955" x="948.41211" y="608.10004" fill="#ff0000" font-family="sans-serif" font-weight="bold" stroke-width=".79904">ON</tspan></text>
  <text id="text961" x="673.5918" y="480.8605" style="line-height:1.25" xml:space="preserve"><tspan id="tspan959" x="673.5918" y="480.8605" fill="#0000ff" font-family="sans-serif" font-weight="bold" stroke-width=".79904">90 %</tspan></text>
  <text id="text965" x="672.05615" y="621.90405" style="line-height:1.25" xml:space="preserve"><tspan id="tspan963" x="672.05615" y="621.90405" fill="#0000ff" font-family="sans-serif" font-weight="bold" stroke-width=".79904">0 %</tspan></text>
  <text id="text969" x="672.95386" y="757.55994" style="line-height:1.25" xml:space="preserve"><tspan id="tspan967" x="672.95386" y="757.55994" fill="#0000ff" font-family="sans-serif" font-weight="bold" stroke-width=".79904">10 %</tspan></text>
 </g>
 <g id="g979" transform="translate(-24.001)" stroke-width="10.139">
  <rect id="rect973" x="171.35" y="852.09" width="236.06" height="71.402" ry="0" fill="url(#linearGradient1295)" stroke="url(#linearGradient1303)"/>
  <rect id="rect975" x="508.54" y="851.81" width="236.06" height="71.402" ry="0" fill="url(#linearGradient1295-0)" stroke="url(#linearGradient1303-6)"/>
  <rect id="rect977" x="824.99" y="850.39" width="236.06" height="71.402" ry="0" fill="url(#linearGradient1295-0-2)" stroke="url(#linearGradient1303-6-5)"/>
 </g>
 <g id="g993" transform="translate(-24.001)" font-family="sans-serif" font-size="21.308px" letter-spacing="0px" stroke-width=".79904" word-spacing="0px">
  <text id="text983" x="199.07481" y="896.58759" style="line-height:1.25" xml:space="preserve"><tspan id="tspan981" x="199.07481" y="896.58759" fill="#ff0000" font-family="sans-serif" font-size="29.831px" font-weight="bold" stroke-width=".79904">PRODUCTS</tspan></text>
  <text id="text987" x="566.40784" y="898.16199" style="line-height:1.25" xml:space="preserve"><tspan id="tspan985" x="566.40784" y="898.16199" fill="#ff0000" font-family="sans-serif" font-size="29.831px" font-weight="bold" stroke-width=".79904">ACCEPT</tspan></text>
  <text id="text991" x="896.7851" y="894.13019" style="line-height:1.25" xml:space="preserve"><tspan id="tspan989" x="896.7851" y="894.13019" fill="#ffffff" font-family="sans-serif" font-size="29.831px" font-weight="bold" stroke-width=".79904">START</tspan></text>
 </g>
 <g fill="#fff">
  <rect id="rect995" x="739.41" y="423.77" width="3.5278" height="380.88"/>
  <g id="g1003" transform="translate(-24.001)">
   <path id="path997" d="m1035.1 536.33c-0.9468-0.0429-1.9094 0.27559-2.665 0.96551-1.5102 1.3793-1.6163 3.7221-0.237 5.2322 12.93 14.156 20.346 34.934 20.346 57.009 0 21.266-6.9718 41.545-19.127 55.638-1.3361 1.549-1.1633 3.8872 0.386 5.2235 0.6996 0.60367 1.5604 0.89891 2.4171 0.89891 1.0399 0 2.0733-0.4353 2.8059-1.2845 13.298-15.417 20.926-37.46 20.926-60.476 0-23.901-8.1221-46.501-22.284-62.004-0.6901-0.75493-1.6209-1.1591-2.5678-1.202zm-9.4432 64.329c-0.01 0.38118-0.022 0.76153-0.038 1.1414 0.1301-0.30388 0.2748-0.6067 0.4298-0.89452-0.077-0.0491-0.1548-0.097-0.2321-0.14634-0.1 0.0367-0.18 0.0743-0.1224 0.0426 0.036-0.0199 0.075-0.0323 0.1126-0.0486-0.05-0.0319-0.1003-0.0627-0.1502-0.0945zm-47.812 56.24c-0.0237 0-0.0472 3e-3 -0.071 3e-3 -0.0159 0.0342-0.0316 0.0687-0.047 0.1032 0.0396-0.0355 0.0783-0.0699 0.11796-0.10538zm8.5504 2.2172c-0.0819 0.0594-0.16743 0.11928-0.25285 0.17915-9e-3 0.0622-0.0176 0.1245-0.0268 0.18674 0.0924-0.12064 0.18834-0.24691 0.2796-0.36589z" opacity=".99" stroke-width=".27961"/>
   <path id="path999" d="m1022 556.44c-0.6272-0.0284-1.265 0.18258-1.7655 0.63964-1.0005 0.91377-1.0708 2.4658-0.157 3.4663 8.5662 9.3779 13.479 23.143 13.479 37.767 0 14.088-4.6187 27.523-12.672 36.859-0.8851 1.0262-0.7706 2.5752 0.2558 3.4605 0.4634 0.39992 1.0337 0.59551 1.6012 0.59551 0.689 0 1.3736-0.28838 1.8589-0.85094 8.81-10.214 13.863-24.817 13.863-40.064 0-15.834-5.3808-30.806-14.763-41.077-0.4572-0.50013-1.0738-0.76788-1.7011-0.79629zm-6.256 42.617c-0.01 0.25253-0.015 0.5045-0.025 0.75613 0.086-0.20132 0.1821-0.40193 0.2848-0.59261-0.051-0.0325-0.1026-0.0643-0.1538-0.0969-0.066 0.0243-0.1192 0.0492-0.081 0.0282 0.024-0.0132 0.05-0.0214 0.075-0.0322-0.033-0.0211-0.066-0.0415-0.099-0.0626zm-31.675 37.258c-0.0159 0-0.0311 2e-3 -0.047 2e-3 -0.0106 0.0227-0.0212 0.0455-0.0311 0.0684 0.0265-0.0235 0.0517-0.0463 0.0781-0.0698zm5.6645 1.4688c-0.0543 0.0394-0.11097 0.079-0.16755 0.11869-7e-3 0.0412-0.0119 0.0825-0.0179 0.12371 0.061-0.0799 0.12481-0.16357 0.18523-0.2424z" opacity=".99" stroke-width=".18524"/>
   <path id="path1001" d="m1009.5 564.64c-0.4892-0.0222-0.9867 0.14242-1.3771 0.49893-0.7804 0.71274-0.8352 1.9234-0.1225 2.7037 6.6817 7.3148 10.514 18.052 10.514 29.459 0 10.989-3.6026 21.468-9.8839 28.75-0.6904 0.80043-0.6011 2.0087 0.1995 2.6992 0.3615 0.31193 0.8063 0.46449 1.249 0.46449 0.5374 0 1.0714-0.22493 1.4499-0.66373 6.8718-7.9667 10.813-19.357 10.813-31.25 0-12.351-4.197-24.029-11.515-32.04-0.3566-0.3901-0.8376-0.59895-1.3269-0.62111zm-4.8797 33.241c-0.01 0.19698-0.012 0.39352-0.019 0.58979 0.067-0.15703 0.142-0.31351 0.2221-0.46224-0.04-0.0254-0.08-0.0501-0.1199-0.0756-0.052 0.019-0.093 0.0384-0.063 0.022 0.019-0.0103 0.039-0.0167 0.058-0.0251-0.026-0.0165-0.052-0.0324-0.077-0.0488zm-24.706 29.062c-0.0124 0-0.0243 2e-3 -0.0367 2e-3 -8e-3 0.0177-0.0165 0.0355-0.0243 0.0534 0.0207-0.0183 0.0403-0.0361 0.0609-0.0544zm4.4183 1.1457c-0.0424 0.0307-0.0866 0.0616-0.13069 0.0926-5e-3 0.0321-9e-3 0.0643-0.014 0.0965 0.0476-0.0623 0.0974-0.12758 0.14448-0.18907z" opacity=".99" stroke-width=".14448"/>
  </g>
  <g id="g1011" transform="rotate(179.84 958.61 597.28)">
   <path id="path1005" d="m1035.1 536.33c-0.9468-0.0429-1.9094 0.27559-2.665 0.96551-1.5102 1.3793-1.6163 3.7221-0.237 5.2322 12.93 14.156 20.346 34.934 20.346 57.009 0 21.266-6.9718 41.545-19.127 55.638-1.3361 1.549-1.1633 3.8872 0.386 5.2235 0.6996 0.60367 1.5604 0.89891 2.4171 0.89891 1.0399 0 2.0733-0.4353 2.8059-1.2845 13.298-15.417 20.926-37.46 20.926-60.476 0-23.901-8.1221-46.501-22.284-62.004-0.6901-0.75493-1.6209-1.1591-2.5678-1.202zm-9.4432 64.329c-0.01 0.38118-0.022 0.76153-0.038 1.1414 0.1301-0.30388 0.2748-0.6067 0.4298-0.89452-0.077-0.0491-0.1548-0.097-0.2321-0.14634-0.1 0.0367-0.18 0.0743-0.1224 0.0426 0.036-0.0199 0.075-0.0323 0.1126-0.0486-0.05-0.0319-0.1003-0.0627-0.1502-0.0945zm-47.812 56.24c-0.0237 0-0.0472 3e-3 -0.071 3e-3 -0.0159 0.0342-0.0316 0.0687-0.047 0.1032 0.0396-0.0355 0.0783-0.0699 0.11796-0.10538zm8.5504 2.2172c-0.0819 0.0594-0.16743 0.11928-0.25285 0.17915-9e-3 0.0622-0.0176 0.1245-0.0268 0.18674 0.0924-0.12064 0.18834-0.24691 0.2796-0.36589z" opacity=".99" stroke-width=".27961"/>
   <path id="path1007" d="m1022 556.44c-0.6272-0.0284-1.265 0.18258-1.7655 0.63964-1.0005 0.91377-1.0708 2.4658-0.157 3.4663 8.5662 9.3779 13.479 23.143 13.479 37.767 0 14.088-4.6187 27.523-12.672 36.859-0.8851 1.0262-0.7706 2.5752 0.2558 3.4605 0.4634 0.39992 1.0337 0.59551 1.6012 0.59551 0.689 0 1.3736-0.28838 1.8589-0.85094 8.81-10.214 13.863-24.817 13.863-40.064 0-15.834-5.3808-30.806-14.763-41.077-0.4572-0.50013-1.0738-0.76788-1.7011-0.79629zm-6.256 42.617c-0.01 0.25253-0.015 0.5045-0.025 0.75613 0.086-0.20132 0.1821-0.40193 0.2848-0.59261-0.051-0.0325-0.1026-0.0643-0.1538-0.0969-0.066 0.0243-0.1192 0.0492-0.081 0.0282 0.024-0.0132 0.05-0.0214 0.075-0.0322-0.033-0.0211-0.066-0.0415-0.099-0.0626zm-31.675 37.258c-0.0159 0-0.0311 2e-3 -0.047 2e-3 -0.0106 0.0227-0.0212 0.0455-0.0311 0.0684 0.0265-0.0235 0.0517-0.0463 0.0781-0.0698zm5.6645 1.4688c-0.0543 0.0394-0.11097 0.079-0.16755 0.11869-7e-3 0.0412-0.0119 0.0825-0.0179 0.12371 0.061-0.0799 0.12481-0.16357 0.18523-0.2424z" opacity=".99" stroke-width=".18524"/>
   <path id="path1009" d="m1009.5 564.64c-0.4892-0.0222-0.9867 0.14242-1.3771 0.49893-0.7804 0.71274-0.8352 1.9234-0.1225 2.7037 6.6817 7.3148 10.514 18.052 10.514 29.459 0 10.989-3.6026 21.468-9.8839 28.75-0.6904 0.80043-0.6011 2.0087 0.1995 2.6992 0.3615 0.31193 0.8063 0.46449 1.249 0.46449 0.5374 0 1.0714-0.22493 1.4499-0.66373 6.8718-7.9667 10.813-19.357 10.813-31.25 0-12.351-4.197-24.029-11.515-32.04-0.3566-0.3901-0.8376-0.59895-1.3269-0.62111zm-4.8797 33.241c-0.01 0.19698-0.012 0.39352-0.019 0.58979 0.067-0.15703 0.142-0.31351 0.2221-0.46224-0.04-0.0254-0.08-0.0501-0.1199-0.0756-0.052 0.019-0.093 0.0384-0.063 0.022 0.019-0.0103 0.039-0.0167 0.058-0.0251-0.026-0.0165-0.052-0.0324-0.077-0.0488zm-24.706 29.062c-0.0124 0-0.0243 2e-3 -0.0367 2e-3 -8e-3 0.0177-0.0165 0.0355-0.0243 0.0534 0.0207-0.0183 0.0403-0.0361 0.0609-0.0544zm4.4183 1.1457c-0.0424 0.0307-0.0866 0.0616-0.13069 0.0926-5e-3 0.0321-9e-3 0.0643-0.014 0.0965 0.0476-0.0623 0.0974-0.12758 0.14448-0.18907z" opacity=".99" stroke-width=".14448"/>
  </g>
 </g>
 <g id="g1487">
  <rect id="rect1013" x="98.859" y="234.6" width="970.37" height="728.89" fill="#fff" opacity=".899"/>
  <text id="text1017" x="286.31775" y="592.61975" fill="#000000" font-family="sans-serif" font-size="26.667px" letter-spacing="0px" word-spacing="0px" style="line-height:1.25" xml:space="preserve"><tspan id="tspan1015" x="286.31775" y="592.61975" fill="#ff0000" font-family="sans-serif" font-size="42.667px" font-weight="bold">NITROGEN PRESSURE LOW</tspan></text>
 </g>
</svg>
