<svg xmlns="http://www.w3.org/2000/svg" xmlns:xlink="http://www.w3.org/1999/xlink" width="1920" height="1080" viewBox="0 0 1920 1080">
  <defs>
    <clipPath id="clip-UI">
      <rect width="1920" height="1080"/>
    </clipPath>
  </defs>
  <g id="UI" clip-path="url(#clip-UI)">
    <rect width="1920" height="1080" fill="#fff"/>
    <rect id="Rectangle_1" data-name="Rectangle 1" width="1920" height="1080" fill="#7a7a7a"/>
    <g id="layer1" transform="translate(492.125 607.03)">
      <path id="rect876" d="M-101.592-87.969H630.281c15.016,0,27.1,13.328,27.1,29.884v573.27c0,16.556-12.089,29.884-27.1,29.884H-101.592c-15.016,0-27.105-13.328-27.105-29.884V-58.084C-128.7-74.64-116.608-87.969-101.592-87.969Z" transform="translate(203.572 -296.061)" fill="#333"/>
      <path id="rect879-2" d="M135.421-323.858H847.594a.5.5,0,0,1,.5.5v534.7a.5.5,0,0,1-.5.5H135.421a.5.5,0,0,1-.5-.5v-534.7A.5.5,0,0,1,135.421-323.858Z" transform="translate(-24.784 -24.836)" fill="#fff"/>
      <path id="rect9" d="M138.972-318.68H847.686v530.2H138.972Z" transform="translate(-26.456 -26.973)" fill="#1b0c2f"/>
      <g id="MAP_Parameter" transform="translate(138.687 -325.638)">
        <path id="path942" d="M195.649-268.248a.528.528,0,0,1-.05.239.42.42,0,0,1-.24.151,2.388,2.388,0,0,1-.555.088q-.366.025-1,.025-.53,0-.845-.025a2.208,2.208,0,0,1-.5-.088.607.607,0,0,1-.252-.176,1.1,1.1,0,0,1-.126-.264l-1.464-3.637q-.265-.617-.517-1.095a3.255,3.255,0,0,0-.568-.793,1.952,1.952,0,0,0-.707-.491,2.473,2.473,0,0,0-.934-.164h-1.035v6.2a.335.335,0,0,1-.088.227.532.532,0,0,1-.265.164,2.655,2.655,0,0,1-.5.1,7.022,7.022,0,0,1-.807.038,7.229,7.229,0,0,1-.807-.038,2.655,2.655,0,0,1-.5-.1.532.532,0,0,1-.265-.164.367.367,0,0,1-.076-.227v-14.787a1,1,0,0,1,.278-.793,1.041,1.041,0,0,1,.707-.252h4.227q.643,0,1.06.025t.757.063a6.8,6.8,0,0,1,1.766.478,4.1,4.1,0,0,1,1.337.894,3.576,3.576,0,0,1,.845,1.3,4.68,4.68,0,0,1,.29,1.712,4.957,4.957,0,0,1-.214,1.5,3.732,3.732,0,0,1-.606,1.2,4.021,4.021,0,0,1-1,.919,5.4,5.4,0,0,1-1.35.629,3.574,3.574,0,0,1,.681.428,3.249,3.249,0,0,1,.606.617,5.122,5.122,0,0,1,.543.818,9.96,9.96,0,0,1,.492,1.032l1.375,3.209q.189.478.252.7a1.28,1.28,0,0,1,.063.34ZM191.372-279.3a2.412,2.412,0,0,0-.366-1.359,1.99,1.99,0,0,0-1.2-.78,4.589,4.589,0,0,0-.58-.1,7.9,7.9,0,0,0-.883-.038h-1.489v4.619h1.691a4.2,4.2,0,0,0,1.236-.164,2.608,2.608,0,0,0,.883-.478,2.011,2.011,0,0,0,.53-.742A2.485,2.485,0,0,0,191.372-279.3Z" transform="translate(-183.537 284.394)" fill="#fff"/>
        <path id="path944" d="M222-276.354a12.022,12.022,0,0,1-.5,3.624,7.361,7.361,0,0,1-1.5,2.718,6.545,6.545,0,0,1-2.473,1.7,9.185,9.185,0,0,1-3.394.579,10.236,10.236,0,0,1-3.331-.491,5.825,5.825,0,0,1-2.359-1.523,6.548,6.548,0,0,1-1.426-2.592,13.174,13.174,0,0,1-.467-3.725,11.593,11.593,0,0,1,.5-3.549,7.251,7.251,0,0,1,1.5-2.693,6.564,6.564,0,0,1,2.46-1.7,9.146,9.146,0,0,1,3.419-.591,9.949,9.949,0,0,1,3.268.491,5.706,5.706,0,0,1,2.372,1.51,6.469,6.469,0,0,1,1.438,2.58,12.141,12.141,0,0,1,.492,3.662Zm-3.482.176a12.313,12.313,0,0,0-.2-2.328,4.881,4.881,0,0,0-.694-1.8,3.173,3.173,0,0,0-1.287-1.158,4.388,4.388,0,0,0-2.019-.415,4.09,4.09,0,0,0-2.044.466,3.7,3.7,0,0,0-1.325,1.221,5.149,5.149,0,0,0-.719,1.8,11.13,11.13,0,0,0-.2,2.165,13.023,13.023,0,0,0,.2,2.4,5.153,5.153,0,0,0,.681,1.812,3.172,3.172,0,0,0,1.287,1.158,4.662,4.662,0,0,0,2.031.39,4.183,4.183,0,0,0,2.044-.453,3.662,3.662,0,0,0,1.325-1.233,5.106,5.106,0,0,0,.707-1.812,11,11,0,0,0,.214-2.215Z" transform="translate(-193.034 284.597)" fill="#fff"/>
        <path id="path946" d="M246.364-282.746a4.508,4.508,0,0,1-.038.629,1.621,1.621,0,0,1-.088.415.529.529,0,0,1-.164.227.3.3,0,0,1-.2.076h-4.088v13.126a.335.335,0,0,1-.088.227.532.532,0,0,1-.265.164,2.677,2.677,0,0,1-.517.1,6.891,6.891,0,0,1-.795.038,7.237,7.237,0,0,1-.807-.038,2.655,2.655,0,0,1-.5-.1.624.624,0,0,1-.278-.164.367.367,0,0,1-.076-.227V-281.4h-4.088a.319.319,0,0,1-.214-.076A.593.593,0,0,1,234-281.7a2,2,0,0,1-.1-.415q-.025-.264-.025-.629t.025-.642a1.763,1.763,0,0,1,.1-.415.485.485,0,0,1,.151-.227.319.319,0,0,1,.214-.076h11.506a.3.3,0,0,1,.2.076.443.443,0,0,1,.164.227,1.474,1.474,0,0,1,.088.415A4.617,4.617,0,0,1,246.364-282.746Z" transform="translate(-204.314 284.394)" fill="#fff"/>
        <path id="path948" d="M267.382-269.107a4.383,4.383,0,0,1,.189.717.448.448,0,0,1-.1.4.829.829,0,0,1-.492.151,9.667,9.667,0,0,1-.971.038q-.643,0-1.009-.025a2.6,2.6,0,0,1-.543-.063.532.532,0,0,1-.265-.164.86.86,0,0,1-.126-.264l-1.1-3.272h-6.132L255.8-268.4a1,1,0,0,1-.139.3.554.554,0,0,1-.265.189,2.087,2.087,0,0,1-.517.088q-.328.025-.871.025a8.407,8.407,0,0,1-.908-.038.716.716,0,0,1-.454-.176.509.509,0,0,1-.088-.415,4.094,4.094,0,0,1,.189-.7l5.034-14.447a1.164,1.164,0,0,1,.177-.34.574.574,0,0,1,.315-.2,2.259,2.259,0,0,1,.618-.088q.391-.025,1.035-.025.744,0,1.186.025a2.63,2.63,0,0,1,.681.088.6.6,0,0,1,.353.2,1.13,1.13,0,0,1,.189.378Zm-7.494-11.943h-.013l-2.309,6.922h4.63Z" transform="translate(-212.022 284.447)" fill="#fff"/>
        <path id="path950" d="M293.787-268.248a.528.528,0,0,1-.05.239.42.42,0,0,1-.24.151,2.388,2.388,0,0,1-.555.088q-.366.025-1,.025-.53,0-.845-.025a2.207,2.207,0,0,1-.5-.088.607.607,0,0,1-.252-.176,1.1,1.1,0,0,1-.126-.264l-1.464-3.637q-.265-.617-.517-1.095a3.255,3.255,0,0,0-.568-.793,1.952,1.952,0,0,0-.707-.491,2.473,2.473,0,0,0-.934-.164h-1.035v6.2a.335.335,0,0,1-.088.227.532.532,0,0,1-.265.164,2.656,2.656,0,0,1-.5.1,7.02,7.02,0,0,1-.807.038,7.228,7.228,0,0,1-.807-.038,2.656,2.656,0,0,1-.5-.1.532.532,0,0,1-.265-.164.367.367,0,0,1-.076-.227v-14.787a1,1,0,0,1,.278-.793,1.041,1.041,0,0,1,.706-.252h4.227q.643,0,1.06.025t.757.063a6.8,6.8,0,0,1,1.766.478,4.1,4.1,0,0,1,1.337.894,3.576,3.576,0,0,1,.845,1.3,4.68,4.68,0,0,1,.29,1.712,4.957,4.957,0,0,1-.214,1.5,3.732,3.732,0,0,1-.606,1.2,4.021,4.021,0,0,1-1,.919,5.4,5.4,0,0,1-1.35.629,3.574,3.574,0,0,1,.681.428,3.25,3.25,0,0,1,.606.617,5.124,5.124,0,0,1,.542.818,9.953,9.953,0,0,1,.492,1.032l1.375,3.209q.189.478.252.7A1.28,1.28,0,0,1,293.787-268.248ZM289.51-279.3a2.412,2.412,0,0,0-.366-1.359,1.99,1.99,0,0,0-1.2-.78,4.59,4.59,0,0,0-.58-.1,7.9,7.9,0,0,0-.883-.038h-1.489v4.619h1.691a4.2,4.2,0,0,0,1.236-.164,2.609,2.609,0,0,0,.883-.478,2.011,2.011,0,0,0,.53-.742,2.485,2.485,0,0,0,.177-.956Z" transform="translate(-224.043 284.394)" fill="#fff"/>
        <path id="path952" d="M311.171-274.052v5.726a.335.335,0,0,1-.088.227.532.532,0,0,1-.265.164,2.679,2.679,0,0,1-.517.1,6.89,6.89,0,0,1-.795.038,7.029,7.029,0,0,1-.807-.038,2.973,2.973,0,0,1-.517-.1.532.532,0,0,1-.265-.164.367.367,0,0,1-.076-.227v-5.726l-4.466-8.872a4.665,4.665,0,0,1-.315-.717.375.375,0,0,1,.076-.39.9.9,0,0,1,.542-.164q.391-.038,1.085-.038.58,0,.921.025a2.055,2.055,0,0,1,.555.1.572.572,0,0,1,.29.176,1.329,1.329,0,0,1,.189.289l1.817,4q.265.579.517,1.221t.53,1.347h.025q.24-.68.492-1.321t.492-1.221l1.792-3.977a1,1,0,0,1,.151-.315.689.689,0,0,1,.29-.2,1.811,1.811,0,0,1,.517-.1q.328-.025.871-.025.719,0,1.11.038a.86.86,0,0,1,.543.164.344.344,0,0,1,.076.39,4.493,4.493,0,0,1-.3.717Z" transform="translate(-232.861 284.447)" fill="#fff"/>
        <path id="path954" d="M348.2-282.746a4.505,4.505,0,0,1-.038.629,1.619,1.619,0,0,1-.088.415.528.528,0,0,1-.164.227.3.3,0,0,1-.2.076h-4.088v13.126a.335.335,0,0,1-.088.227.532.532,0,0,1-.265.164,2.677,2.677,0,0,1-.517.1,6.891,6.891,0,0,1-.795.038,7.237,7.237,0,0,1-.807-.038,2.655,2.655,0,0,1-.5-.1.624.624,0,0,1-.278-.164.367.367,0,0,1-.076-.227V-281.4H336.2a.319.319,0,0,1-.215-.076.594.594,0,0,1-.151-.227,2,2,0,0,1-.1-.415q-.025-.264-.025-.629t.025-.642a1.764,1.764,0,0,1,.1-.415.485.485,0,0,1,.151-.227.319.319,0,0,1,.215-.076h11.506a.3.3,0,0,1,.2.076.443.443,0,0,1,.164.227,1.475,1.475,0,0,1,.088.415A4.625,4.625,0,0,1,348.2-282.746Z" transform="translate(-246.345 284.394)" fill="#fff"/>
        <path id="path956" d="M372.418-268.248a.528.528,0,0,1-.05.239.42.42,0,0,1-.24.151,2.388,2.388,0,0,1-.555.088q-.366.025-1,.025-.53,0-.845-.025a2.207,2.207,0,0,1-.5-.088.607.607,0,0,1-.252-.176,1.1,1.1,0,0,1-.126-.264l-1.464-3.637q-.265-.617-.517-1.095a3.256,3.256,0,0,0-.568-.793,1.952,1.952,0,0,0-.707-.491,2.473,2.473,0,0,0-.934-.164h-1.035v6.2a.335.335,0,0,1-.088.227.532.532,0,0,1-.265.164,2.655,2.655,0,0,1-.5.1,7.022,7.022,0,0,1-.807.038,7.229,7.229,0,0,1-.807-.038,2.655,2.655,0,0,1-.5-.1.532.532,0,0,1-.265-.164.367.367,0,0,1-.076-.227v-14.787a1,1,0,0,1,.278-.793,1.041,1.041,0,0,1,.707-.252h4.227q.643,0,1.06.025t.757.063a6.8,6.8,0,0,1,1.766.478,4.1,4.1,0,0,1,1.337.894,3.576,3.576,0,0,1,.845,1.3,4.679,4.679,0,0,1,.29,1.712,4.956,4.956,0,0,1-.215,1.5,3.732,3.732,0,0,1-.606,1.2,4.021,4.021,0,0,1-1,.919,5.4,5.4,0,0,1-1.35.629,3.574,3.574,0,0,1,.681.428,3.25,3.25,0,0,1,.606.617,5.122,5.122,0,0,1,.543.818,9.947,9.947,0,0,1,.492,1.032l1.375,3.209q.189.478.252.7A1.28,1.28,0,0,1,372.418-268.248ZM368.141-279.3a2.412,2.412,0,0,0-.366-1.359,1.99,1.99,0,0,0-1.2-.78,4.591,4.591,0,0,0-.58-.1,7.9,7.9,0,0,0-.883-.038h-1.489v4.619h1.691a4.2,4.2,0,0,0,1.236-.164,2.608,2.608,0,0,0,.883-.478,2.011,2.011,0,0,0,.53-.742A2.485,2.485,0,0,0,368.141-279.3Z" transform="translate(-256.498 284.394)" fill="#fff"/>
        <path id="path958" d="M397.4-269.107a4.384,4.384,0,0,1,.189.717.448.448,0,0,1-.1.4.829.829,0,0,1-.492.151,9.666,9.666,0,0,1-.971.038q-.643,0-1.009-.025a2.6,2.6,0,0,1-.542-.063.532.532,0,0,1-.265-.164.86.86,0,0,1-.126-.264l-1.1-3.272h-6.132l-1.035,3.184a1,1,0,0,1-.139.3.554.554,0,0,1-.265.189,2.088,2.088,0,0,1-.517.088q-.328.025-.871.025a8.407,8.407,0,0,1-.908-.038.716.716,0,0,1-.454-.176.509.509,0,0,1-.088-.415,4.094,4.094,0,0,1,.189-.7l5.034-14.447a1.163,1.163,0,0,1,.177-.34.574.574,0,0,1,.315-.2,2.258,2.258,0,0,1,.618-.088q.391-.025,1.035-.025.744,0,1.186.025a2.63,2.63,0,0,1,.681.088.6.6,0,0,1,.353.2,1.131,1.131,0,0,1,.189.378Zm-7.494-11.943H389.9l-2.309,6.922h4.63Z" transform="translate(-265.687 284.447)" fill="#fff"/>
        <path id="path960" d="M413.606-274.052v5.726a.335.335,0,0,1-.088.227.532.532,0,0,1-.265.164,2.68,2.68,0,0,1-.517.1,6.89,6.89,0,0,1-.795.038,7.029,7.029,0,0,1-.807-.038,2.973,2.973,0,0,1-.517-.1.532.532,0,0,1-.265-.164.367.367,0,0,1-.076-.227v-5.726l-4.466-8.872a4.669,4.669,0,0,1-.315-.717.375.375,0,0,1,.076-.39.9.9,0,0,1,.543-.164q.391-.038,1.085-.038.58,0,.921.025a2.055,2.055,0,0,1,.555.1.572.572,0,0,1,.29.176,1.33,1.33,0,0,1,.189.289l1.817,4q.265.579.517,1.221t.53,1.347h.025q.24-.68.492-1.321t.492-1.221l1.792-3.977a1,1,0,0,1,.151-.315.689.689,0,0,1,.29-.2,1.811,1.811,0,0,1,.517-.1q.328-.025.871-.025.719,0,1.11.038a.86.86,0,0,1,.543.164.344.344,0,0,1,.076.39,4.5,4.5,0,0,1-.3.717Z" transform="translate(-275.141 284.447)" fill="#fff"/>
        <path id="path962" d="M449.9-272.906a5.02,5.02,0,0,1-.479,2.253,4.732,4.732,0,0,1-1.3,1.623,5.733,5.733,0,0,1-1.918.969,8.176,8.176,0,0,1-2.347.327,8.487,8.487,0,0,1-1.577-.138A9.65,9.65,0,0,1,441-268.2a6.245,6.245,0,0,1-.934-.415,2.729,2.729,0,0,1-.53-.378.979.979,0,0,1-.24-.466,4.827,4.827,0,0,1-.063-.894q0-.39.025-.654a2.2,2.2,0,0,1,.076-.428.485.485,0,0,1,.151-.227.37.37,0,0,1,.227-.076,1,1,0,0,1,.492.214q.328.2.833.453a7.95,7.95,0,0,0,1.2.466,5.954,5.954,0,0,0,1.628.2,3.912,3.912,0,0,0,1.085-.138,2.441,2.441,0,0,0,.807-.415,1.709,1.709,0,0,0,.517-.654,2.081,2.081,0,0,0,.177-.868,1.493,1.493,0,0,0-.3-.944,2.83,2.83,0,0,0-.795-.7,7.051,7.051,0,0,0-1.1-.579q-.618-.277-1.274-.579a12.366,12.366,0,0,1-1.274-.68,5.572,5.572,0,0,1-1.11-.919,4.494,4.494,0,0,1-.782-1.271,4.555,4.555,0,0,1-.3-1.749,4.633,4.633,0,0,1,.429-2.051,4.241,4.241,0,0,1,1.173-1.472,5.01,5.01,0,0,1,1.741-.881,7.7,7.7,0,0,1,2.132-.289,7.725,7.725,0,0,1,1.161.088,7.941,7.941,0,0,1,1.085.239,6.068,6.068,0,0,1,.9.34,2.1,2.1,0,0,1,.517.315.758.758,0,0,1,.164.214.731.731,0,0,1,.076.239,1.812,1.812,0,0,1,.05.365q.013.214.013.541,0,.365-.025.617a1.733,1.733,0,0,1-.063.415.434.434,0,0,1-.126.239.291.291,0,0,1-.214.076,1.055,1.055,0,0,1-.442-.176q-.3-.176-.744-.378a6.217,6.217,0,0,0-1.022-.378,4.37,4.37,0,0,0-1.274-.176,2.92,2.92,0,0,0-.946.138,1.891,1.891,0,0,0-.681.365,1.476,1.476,0,0,0-.4.554,1.907,1.907,0,0,0-.126.692,1.572,1.572,0,0,0,.29.944,3.117,3.117,0,0,0,.795.7,10.181,10.181,0,0,0,1.135.579q.631.264,1.287.566a11.93,11.93,0,0,1,1.287.692,4.934,4.934,0,0,1,1.123.919,4.171,4.171,0,0,1,.795,1.258,4.351,4.351,0,0,1,.3,1.7Z" transform="translate(-289.077 284.597)" fill="#fff"/>
        <path id="path964" d="M471.387-269.116a4.234,4.234,0,0,1-.038.617,1.413,1.413,0,0,1-.088.39.529.529,0,0,1-.164.227.339.339,0,0,1-.2.063h-8.2a1.075,1.075,0,0,1-.707-.239,1.039,1.039,0,0,1-.278-.805v-14.2a1,1,0,0,1,.278-.793,1.041,1.041,0,0,1,.707-.252h8.15a.339.339,0,0,1,.2.063.485.485,0,0,1,.151.227,1.442,1.442,0,0,1,.088.4,4.081,4.081,0,0,1,.038.617,4.133,4.133,0,0,1-.038.6,1.413,1.413,0,0,1-.088.39.594.594,0,0,1-.151.227.339.339,0,0,1-.2.063h-5.829v3.977h4.933a.3.3,0,0,1,.2.076.441.441,0,0,1,.164.214,1.279,1.279,0,0,1,.088.39,3.874,3.874,0,0,1,.038.592,3.976,3.976,0,0,1-.038.6,1.413,1.413,0,0,1-.088.39.446.446,0,0,1-.164.2.339.339,0,0,1-.2.063h-4.933v4.593h5.879a.3.3,0,0,1,.2.076.442.442,0,0,1,.164.214,1.441,1.441,0,0,1,.088.4,3.972,3.972,0,0,1,.038.6Z" transform="translate(-298.352 284.394)" fill="#fff"/>
        <path id="path966" d="M495.026-269.107a4.38,4.38,0,0,1,.189.717.449.449,0,0,1-.1.4.829.829,0,0,1-.492.151,9.667,9.667,0,0,1-.971.038q-.643,0-1.009-.025a2.6,2.6,0,0,1-.542-.063.532.532,0,0,1-.265-.164.86.86,0,0,1-.126-.264l-1.1-3.272h-6.132l-1.035,3.184a1,1,0,0,1-.139.3.554.554,0,0,1-.265.189,2.088,2.088,0,0,1-.517.088q-.328.025-.871.025a8.407,8.407,0,0,1-.908-.038.716.716,0,0,1-.454-.176.509.509,0,0,1-.088-.415,4.1,4.1,0,0,1,.189-.7l5.034-14.447a1.164,1.164,0,0,1,.177-.34.574.574,0,0,1,.315-.2,2.258,2.258,0,0,1,.618-.088q.391-.025,1.035-.025.744,0,1.186.025a2.63,2.63,0,0,1,.681.088.6.6,0,0,1,.353.2,1.13,1.13,0,0,1,.189.378Zm-7.494-11.943h-.013l-2.309,6.922h4.63Z" transform="translate(-305.981 284.447)" fill="#fff"/>
        <path id="path968" d="M518.288-269.257a4.625,4.625,0,0,1-.038.642,1.817,1.817,0,0,1-.088.428.525.525,0,0,1-.164.239.319.319,0,0,1-.214.076H510.3a1.075,1.075,0,0,1-.707-.239,1.039,1.039,0,0,1-.278-.805V-283.7a.368.368,0,0,1,.076-.227.623.623,0,0,1,.278-.164,2.653,2.653,0,0,1,.5-.1,7.237,7.237,0,0,1,.807-.038,7.028,7.028,0,0,1,.807.038,2.654,2.654,0,0,1,.5.1.532.532,0,0,1,.265.164.335.335,0,0,1,.088.227v13.1h5.135a.319.319,0,0,1,.214.076.443.443,0,0,1,.164.227,1.472,1.472,0,0,1,.088.415A4.35,4.35,0,0,1,518.288-269.257Z" transform="translate(-318.002 284.447)" fill="#fff"/>
        <path id="path970" d="M537.643-269.116a4.243,4.243,0,0,1-.038.617,1.412,1.412,0,0,1-.088.39.528.528,0,0,1-.164.227.34.34,0,0,1-.2.063h-8.2a1.075,1.075,0,0,1-.707-.239,1.039,1.039,0,0,1-.278-.805v-14.2a1,1,0,0,1,.278-.793,1.041,1.041,0,0,1,.707-.252h8.15a.339.339,0,0,1,.2.063.484.484,0,0,1,.151.227,1.441,1.441,0,0,1,.088.4,4.076,4.076,0,0,1,.038.617,4.129,4.129,0,0,1-.038.6,1.412,1.412,0,0,1-.088.39.593.593,0,0,1-.151.227.339.339,0,0,1-.2.063h-5.829v3.977H536.2a.3.3,0,0,1,.2.076.441.441,0,0,1,.164.214,1.28,1.28,0,0,1,.088.39,3.878,3.878,0,0,1,.038.592,3.981,3.981,0,0,1-.038.6,1.415,1.415,0,0,1-.088.39.445.445,0,0,1-.164.2.339.339,0,0,1-.2.063h-4.933v4.593h5.879a.3.3,0,0,1,.2.076.442.442,0,0,1,.164.214,1.441,1.441,0,0,1,.088.4,3.981,3.981,0,0,1,.038.6Z" transform="translate(-325.699 284.394)" fill="#fff"/>
        <path id="path972" d="M561.562-268.248a.527.527,0,0,1-.05.239.42.42,0,0,1-.24.151,2.388,2.388,0,0,1-.555.088q-.366.025-1,.025-.53,0-.845-.025a2.208,2.208,0,0,1-.5-.088.607.607,0,0,1-.252-.176,1.1,1.1,0,0,1-.126-.264l-1.464-3.637q-.265-.617-.517-1.095a3.255,3.255,0,0,0-.568-.793,1.952,1.952,0,0,0-.707-.491,2.473,2.473,0,0,0-.934-.164h-1.035v6.2a.335.335,0,0,1-.088.227.532.532,0,0,1-.265.164,2.655,2.655,0,0,1-.5.1,7.02,7.02,0,0,1-.807.038,7.227,7.227,0,0,1-.807-.038,2.653,2.653,0,0,1-.5-.1.532.532,0,0,1-.265-.164.367.367,0,0,1-.076-.227v-14.787a1,1,0,0,1,.278-.793,1.041,1.041,0,0,1,.707-.252h4.227q.643,0,1.06.025t.757.063a6.8,6.8,0,0,1,1.766.478,4.1,4.1,0,0,1,1.337.894,3.576,3.576,0,0,1,.845,1.3,4.679,4.679,0,0,1,.29,1.712,4.958,4.958,0,0,1-.214,1.5,3.732,3.732,0,0,1-.606,1.2,4.021,4.021,0,0,1-1,.919,5.4,5.4,0,0,1-1.35.629,3.571,3.571,0,0,1,.681.428,3.248,3.248,0,0,1,.606.617,5.12,5.12,0,0,1,.543.818,9.966,9.966,0,0,1,.492,1.032l1.375,3.209q.189.478.252.7a1.278,1.278,0,0,1,.063.34ZM557.285-279.3a2.411,2.411,0,0,0-.366-1.359,1.99,1.99,0,0,0-1.2-.78,4.591,4.591,0,0,0-.58-.1,7.9,7.9,0,0,0-.883-.038h-1.489v4.619h1.691a4.2,4.2,0,0,0,1.236-.164,2.608,2.608,0,0,0,.883-.478,2.011,2.011,0,0,0,.53-.742A2.485,2.485,0,0,0,557.285-279.3Z" transform="translate(-334.567 284.394)" fill="#fff"/>
      </g>
      <path id="Rectangle_1-2" data-name="Rectangle_1" d="M156.088-209.352H309.043A4.144,4.144,0,0,1,313.2-205.2V50.9a4.144,4.144,0,0,1-4.153,4.153H156.088a4.144,4.144,0,0,1-4.153-4.153V-205.2A4.144,4.144,0,0,1,156.088-209.352Z" transform="translate(-31.807 -72.098)" fill="#390071"/>
      <path id="Rectangle_2" d="M444.831-209.352H772.2a4.144,4.144,0,0,1,4.153,4.153V50.9a4.144,4.144,0,0,1-4.153,4.153H444.831a4.144,4.144,0,0,1-4.153-4.153V-205.2A4.144,4.144,0,0,1,444.831-209.352Z" transform="translate(-150.984 -72.098)" fill="#390071"/>
      <path id="Rectangle_3" d="M156.088,249.123H653.019a4.144,4.144,0,0,1,4.153,4.153V434.129a4.144,4.144,0,0,1-4.153,4.153H156.088a4.144,4.144,0,0,1-4.153-4.153V253.275a4.144,4.144,0,0,1,4.153-4.153Z" transform="translate(-31.807 -261.331)" fill="#390071"/>
      <path id="Rectangle_4" d="M1030.571-318.68h179.255a4.144,4.144,0,0,1,4.153,4.153V207.364a4.144,4.144,0,0,1-4.153,4.153H1030.571a4.143,4.143,0,0,1-4.153-4.153V-314.527a4.143,4.143,0,0,1,4.153-4.153Z" transform="translate(-392.746 -26.973)" fill="#390071"/>
      <g id="Vacuum_Time" transform="translate(132.732 -267.435)">
        <path id="path979" d="M180.85-170.964l4.838-13.959h-2.72l-2.035,6.379c-.561,1.7-1.059,3.4-1.433,5.053h-.042c-.374-1.7-.831-3.334-1.37-5.095l-1.91-6.338H173.4l4.526,13.959Z" transform="translate(-173.396 185.254)" fill="#fff"/>
        <path id="path981" d="M202.791-174.471c0-2.2-.934-4.246-4.173-4.246a7.3,7.3,0,0,0-3.654.891l.5,1.657a5.366,5.366,0,0,1,2.72-.746c1.786,0,2.056,1.1,2.056,1.76v.166c-3.737-.021-6,1.263-6,3.811a3,3,0,0,0,3.177,3,3.76,3.76,0,0,0,2.99-1.346h.062l.166,1.118h2.3a16.136,16.136,0,0,1-.145-2.423Zm-2.492,2.527a1.827,1.827,0,0,1-.083.559A2.068,2.068,0,0,1,198.224-170a1.339,1.339,0,0,1-1.453-1.45c0-1.533,1.723-1.926,3.53-1.885Z" transform="translate(-181.998 182.693)" fill="#fff"/>
        <path id="path983" d="M220.022-170.6a5.005,5.005,0,0,1-2.014.394,3,3,0,0,1-3.094-3.252,3.01,3.01,0,0,1,3.094-3.272,4.509,4.509,0,0,1,1.931.393l.457-1.905a6.387,6.387,0,0,0-2.471-.476c-3.55,0-5.627,2.361-5.627,5.385a4.866,4.866,0,0,0,5.212,5.157,7.34,7.34,0,0,0,2.865-.538Z" transform="translate(-189.453 182.692)" fill="#fff"/>
        <path id="path985" d="M238.3-178.328h-2.554v6.089a2.31,2.31,0,0,1-.145.787,2.152,2.152,0,0,1-1.952,1.367c-1.35,0-1.889-1.077-1.889-2.755v-5.488h-2.554v5.923c0,3.293,1.682,4.391,3.53,4.391a3.658,3.658,0,0,0,3.239-1.76h.042l.125,1.533h2.242c-.042-.828-.083-1.823-.083-3.024Z" transform="translate(-196.432 182.532)" fill="#fff"/>
        <path id="path987" d="M258.4-178.328h-2.554v6.089a2.31,2.31,0,0,1-.145.787,2.152,2.152,0,0,1-1.952,1.367c-1.35,0-1.889-1.077-1.889-2.755v-5.488H249.3v5.923c0,3.293,1.682,4.391,3.53,4.391a3.658,3.658,0,0,0,3.239-1.76h.042l.125,1.533h2.242c-.042-.828-.083-1.823-.083-3.024Z" transform="translate(-204.726 182.532)" fill="#fff"/>
        <path id="path989" d="M269.409-168.4H271.9v-5.965a2.174,2.174,0,0,1,.145-.828,1.993,1.993,0,0,1,1.827-1.45c1.183,0,1.744.994,1.744,2.4v5.84h2.492v-6.048a3.638,3.638,0,0,1,.125-.849,1.947,1.947,0,0,1,1.786-1.346c1.225,0,1.806.994,1.806,2.672v5.571h2.492v-5.944c0-3.231-1.7-4.37-3.384-4.37a3.383,3.383,0,0,0-2.035.6,3.823,3.823,0,0,0-1.246,1.263h-.042a2.915,2.915,0,0,0-2.8-1.864A3.5,3.5,0,0,0,271.693-177h-.062l-.1-1.491h-2.2c.062.87.083,1.843.083,3Z" transform="translate(-212.991 182.692)" fill="#fff"/>
        <path id="path991" d="M307.311-170.964h2.554V-182.79h4.028v-2.133H303.325v2.133h3.987Z" transform="translate(-227.024 185.254)" fill="#fff"/>
        <path id="path993" d="M325.8-171.2v-10.086h-2.575V-171.2Zm-1.287-14.29a1.362,1.362,0,0,0-1.433,1.388,1.34,1.34,0,0,0,1.412,1.367,1.352,1.352,0,0,0,1.453-1.367A1.362,1.362,0,0,0,324.515-185.487Z" transform="translate(-235.179 185.487)" fill="#fff"/>
        <path id="path995" d="M332.318-168.4h2.492v-5.965a2.175,2.175,0,0,1,.145-.828,1.993,1.993,0,0,1,1.827-1.45c1.183,0,1.744.994,1.744,2.4v5.84h2.492v-6.048a3.64,3.64,0,0,1,.125-.849,1.947,1.947,0,0,1,1.786-1.346c1.225,0,1.806.994,1.806,2.672v5.571h2.492v-5.944c0-3.231-1.7-4.37-3.384-4.37a3.383,3.383,0,0,0-2.035.6,3.823,3.823,0,0,0-1.246,1.263h-.042a2.915,2.915,0,0,0-2.8-1.864A3.5,3.5,0,0,0,334.6-177h-.062l-.1-1.491h-2.2c.062.87.083,1.843.083,3Z" transform="translate(-238.956 182.692)" fill="#fff"/>
        <path id="path997" d="M370.469-172.73a6.256,6.256,0,0,0,.083-1.077c0-2.216-1.059-4.908-4.36-4.908-3.239,0-4.942,2.63-4.942,5.426,0,3.086,1.931,5.116,5.212,5.116a9.5,9.5,0,0,0,3.53-.642l-.374-1.76a7.616,7.616,0,0,1-2.8.456c-1.62,0-3.052-.787-3.114-2.61Zm-6.769-1.781a2.5,2.5,0,0,1,2.346-2.465,2.17,2.17,0,0,1,2.1,2.465Z" transform="translate(-250.932 182.692)" fill="#fff"/>
      </g>
      <g id="Gas_Mix_" transform="translate(307.051 -267.435)">
        <path id="path1000" d="M482.174-178.77h-4.942v2.009H479.7v3.479a4.9,4.9,0,0,1-1.931.29c-2.907,0-4.859-1.885-4.859-5.053,0-3.252,2.1-5.012,5.087-5.012a7.553,7.553,0,0,1,3.177.6l.561-2.05a9.306,9.306,0,0,0-3.717-.663c-4.63,0-7.786,2.837-7.786,7.249a6.907,6.907,0,0,0,1.952,5.136,7.551,7.551,0,0,0,5.481,1.864,13.893,13.893,0,0,0,4.506-.787Z" transform="translate(-470.235 185.356)" fill="#fff"/>
        <path id="path1002" d="M502.472-174.471c0-2.2-.934-4.246-4.173-4.246a7.3,7.3,0,0,0-3.654.891l.5,1.657a5.366,5.366,0,0,1,2.72-.746c1.786,0,2.056,1.1,2.056,1.76v.166c-3.737-.021-6,1.263-6,3.811a3,3,0,0,0,3.177,3,3.759,3.759,0,0,0,2.99-1.346h.062l.166,1.118h2.3a16.134,16.134,0,0,1-.145-2.423Zm-2.492,2.527a1.826,1.826,0,0,1-.083.559A2.068,2.068,0,0,1,497.9-170a1.339,1.339,0,0,1-1.453-1.45c0-1.533,1.723-1.926,3.53-1.885Z" transform="translate(-480.01 182.693)" fill="#fff"/>
        <path id="path1004" d="M512.014-168.9a6.528,6.528,0,0,0,3.073.725c2.678,0,4.111-1.346,4.111-3.169-.021-1.491-.872-2.423-2.7-3.086-1.287-.456-1.765-.766-1.765-1.408,0-.621.5-1.056,1.412-1.056a4.55,4.55,0,0,1,2.139.58l.5-1.8a5.95,5.95,0,0,0-2.678-.6c-2.346,0-3.82,1.388-3.82,3.169-.021,1.181.81,2.257,2.782,2.941,1.246.435,1.661.787,1.661,1.47,0,.663-.5,1.118-1.62,1.118a5.708,5.708,0,0,1-2.6-.725Z" transform="translate(-487.479 182.692)" fill="#fff"/>
        <path id="path1006" d="M547.185-170.964h2.492l-.81-13.959h-3.322l-1.931,5.592c-.54,1.636-1.017,3.355-1.391,4.867h-.062c-.353-1.553-.789-3.21-1.287-4.846l-1.827-5.613h-3.364l-.934,13.959h2.388l.311-5.613c.1-1.905.187-4.121.249-5.965h.042c.374,1.76.872,3.666,1.412,5.447l1.869,5.965h1.973l2.035-6.048c.623-1.76,1.2-3.645,1.661-5.364h.062c-.021,1.905.083,4.08.166,5.882Z" transform="translate(-496.862 185.254)" fill="#fff"/>
        <path id="path1008" d="M567.2-171.2v-10.086h-2.575V-171.2Zm-1.287-14.29a1.362,1.362,0,0,0-1.433,1.388,1.34,1.34,0,0,0,1.412,1.367,1.352,1.352,0,0,0,1.453-1.367A1.362,1.362,0,0,0,565.913-185.487Z" transform="translate(-509.134 185.487)" fill="#fff"/>
        <path id="path1010" d="M571.742-178.328l3.384,4.95-3.509,5.136h2.824l1.163-2.009c.332-.559.623-1.056.914-1.636h.042c.291.559.581,1.1.914,1.636l1.246,2.009H581.6l-3.447-5.24,3.384-4.846H578.76l-1.121,1.864c-.291.518-.581,1.036-.872,1.595H576.7c-.291-.518-.581-1.015-.914-1.553l-1.2-1.905Z" transform="translate(-512.08 182.532)" fill="#fff"/>
        <path id="path1012" d="M600.772-184.464c-2.076,0-3.55,1.678-3.55,4.225.021,2.589,1.557,4.059,3.447,4.059,1.848,0,3.509-1.45,3.509-4.287,0-2.4-1.267-4-3.384-4Zm-.042,1.429c1.1,0,1.516,1.2,1.516,2.692,0,1.636-.5,2.713-1.516,2.713s-1.578-1.139-1.557-2.692c0-1.512.519-2.713,1.536-2.713Zm1.412,12.509,7.848-13.938h-1.453l-7.848,13.938Zm7.931-8.367c-2.055,0-3.53,1.7-3.53,4.225,0,2.61,1.557,4.059,3.426,4.059s3.509-1.45,3.509-4.266c0-2.423-1.267-4.018-3.384-4.018Zm-.042,1.45c1.1,0,1.516,1.181,1.516,2.692,0,1.636-.478,2.713-1.516,2.713-1.017,0-1.578-1.16-1.557-2.692,0-1.512.519-2.713,1.536-2.713Z" transform="translate(-522.648 185.065)" fill="#fff"/>
      </g>
      <g id="Flushing_Time" transform="translate(482.189 -267.849)">
        <path id="path1015" d="M768.466-170.964h2.554v-5.923h5.149v-2.092H771.02v-3.852h5.523v-2.092h-8.077Z" transform="translate(-768.466 185.668)" fill="#fff"/>
        <path id="path1017" d="M785.76-171.488h2.575v-14.7H785.76Z" transform="translate(-775.604 186.193)" fill="#fff"/>
        <path id="path1019" d="M803.9-178.328h-2.554v6.089a2.311,2.311,0,0,1-.145.787,2.152,2.152,0,0,1-1.952,1.367c-1.35,0-1.889-1.077-1.889-2.755v-5.488H794.8v5.923c0,3.293,1.682,4.391,3.53,4.391a3.658,3.658,0,0,0,3.239-1.76h.042l.125,1.533h2.242c-.042-.828-.083-1.823-.083-3.024Z" transform="translate(-779.337 182.946)" fill="#fff"/>
        <path id="path1021" d="M813.909-168.9a6.527,6.527,0,0,0,3.073.725c2.678,0,4.111-1.346,4.111-3.169-.021-1.491-.872-2.423-2.7-3.086-1.287-.456-1.765-.766-1.765-1.408,0-.621.5-1.056,1.412-1.056a4.549,4.549,0,0,1,2.139.58l.5-1.8a5.95,5.95,0,0,0-2.678-.6c-2.346,0-3.82,1.388-3.82,3.169-.021,1.181.81,2.257,2.782,2.941,1.246.435,1.661.787,1.661,1.47,0,.663-.5,1.118-1.62,1.118a5.707,5.707,0,0,1-2.6-.725Z" transform="translate(-787.223 183.107)" fill="#fff"/>
        <path id="path1023" d="M829.748-171.488h2.575v-6.027a2.14,2.14,0,0,1,.1-.766,2.083,2.083,0,0,1,1.973-1.429c1.412,0,1.952,1.1,1.952,2.568v5.654H838.9v-5.944c0-3.231-1.806-4.37-3.53-4.37a3.471,3.471,0,0,0-1.744.456,3.41,3.41,0,0,0-1.267,1.16h-.042v-6.006h-2.575Z" transform="translate(-793.76 186.192)" fill="#fff"/>
        <path id="path1025" d="M852.453-171.2v-10.086h-2.575V-171.2Zm-1.287-14.29a1.362,1.362,0,0,0-1.433,1.388,1.34,1.34,0,0,0,1.412,1.367A1.352,1.352,0,0,0,852.6-184.1,1.362,1.362,0,0,0,851.166-185.487Z" transform="translate(-802.009 185.901)" fill="#fff"/>
        <path id="path1027" d="M858.97-168.4h2.575v-5.923a2.589,2.589,0,0,1,.1-.828,2.142,2.142,0,0,1,1.993-1.491c1.391,0,1.931,1.1,1.931,2.547v5.7h2.554v-5.985c0-3.189-1.827-4.329-3.592-4.329a3.647,3.647,0,0,0-3.218,1.74h-.062l-.125-1.512h-2.242c.062.87.083,1.843.083,3Z" transform="translate(-805.787 183.107)" fill="#fff"/>
        <path id="path1029" d="M887.965-175.588c0-1.388.042-2.216.083-2.9h-2.222l-.1,1.346h-.042a3.184,3.184,0,0,0-2.928-1.574c-2.429,0-4.589,2.009-4.589,5.323,0,2.858,1.786,4.929,4.3,4.929a3.417,3.417,0,0,0,2.948-1.491h.042v.87c0,2.175-1.246,3.044-2.907,3.044a6.117,6.117,0,0,1-2.948-.766l-.561,1.926a7.169,7.169,0,0,0,3.53.808,5.826,5.826,0,0,0,3.9-1.222c1.059-.953,1.495-2.465,1.495-4.577Zm-2.554,2.775a4.375,4.375,0,0,1-.1.911,2.18,2.18,0,0,1-2.076,1.533c-1.6,0-2.471-1.388-2.471-3.107,0-2.05,1.059-3.293,2.492-3.293a2.12,2.12,0,0,1,2.076,1.636,2.469,2.469,0,0,1,.083.683Z" transform="translate(-813.744 183.106)" fill="#fff"/>
        <path id="path1031" d="M907.369-170.964h2.554V-182.79h4.028v-2.133H903.382v2.133h3.986Z" transform="translate(-824.152 185.668)" fill="#fff"/>
        <path id="path1033" d="M925.86-171.2v-10.086h-2.575V-171.2Zm-1.287-14.29a1.362,1.362,0,0,0-1.433,1.388,1.34,1.34,0,0,0,1.412,1.367,1.352,1.352,0,0,0,1.453-1.367A1.362,1.362,0,0,0,924.573-185.487Z" transform="translate(-832.307 185.901)" fill="#fff"/>
        <path id="path1035" d="M932.375-168.4h2.492v-5.965a2.176,2.176,0,0,1,.145-.828,1.993,1.993,0,0,1,1.827-1.45c1.183,0,1.744.994,1.744,2.4v5.84h2.492v-6.048a3.642,3.642,0,0,1,.125-.849,1.947,1.947,0,0,1,1.786-1.346c1.225,0,1.806.994,1.806,2.672v5.571h2.492v-5.944c0-3.231-1.7-4.37-3.384-4.37a3.382,3.382,0,0,0-2.035.6,3.822,3.822,0,0,0-1.246,1.263h-.042a2.915,2.915,0,0,0-2.8-1.864A3.5,3.5,0,0,0,934.659-177H934.6l-.1-1.491h-2.2c.062.87.083,1.843.083,3Z" transform="translate(-836.085 183.107)" fill="#fff"/>
        <path id="path1037" d="M970.526-172.73a6.249,6.249,0,0,0,.083-1.077c0-2.216-1.059-4.908-4.36-4.908-3.239,0-4.942,2.63-4.942,5.426,0,3.086,1.931,5.116,5.212,5.116a9.5,9.5,0,0,0,3.53-.642l-.374-1.76a7.616,7.616,0,0,1-2.8.456c-1.62,0-3.052-.787-3.114-2.61Zm-6.769-1.781a2.5,2.5,0,0,1,2.346-2.465,2.17,2.17,0,0,1,2.1,2.465Z" transform="translate(-848.061 183.106)" fill="#fff"/>
      </g>
      <g id="Sealing_Temperature" transform="translate(133.438 -2.06)">
        <path id="path1040" d="M174.6,280.809a8.31,8.31,0,0,0,3.779.891c3.613,0,5.315-1.968,5.315-4.2,0-2.009-1.184-3.231-3.613-4.142-1.869-.725-2.678-1.222-2.678-2.3,0-.808.706-1.678,2.325-1.678a5.937,5.937,0,0,1,2.782.663l.623-2.05a7.407,7.407,0,0,0-3.364-.7c-3.031,0-4.942,1.74-4.942,4.018,0,2.009,1.474,3.231,3.779,4.059,1.786.642,2.492,1.263,2.492,2.32,0,1.139-.914,1.905-2.554,1.905a7.085,7.085,0,0,1-3.384-.891Z" transform="translate(-174.599 -266.768)" fill="#fff"/>
        <path id="path1042" d="M202.181,279.866a6.254,6.254,0,0,0,.083-1.077c0-2.216-1.059-4.908-4.36-4.908-3.239,0-4.942,2.63-4.942,5.426,0,3.086,1.931,5.116,5.212,5.116a9.5,9.5,0,0,0,3.53-.642l-.374-1.76a7.616,7.616,0,0,1-2.8.456c-1.62,0-3.052-.787-3.114-2.61Zm-6.769-1.781a2.5,2.5,0,0,1,2.346-2.465,2.17,2.17,0,0,1,2.1,2.465Z" transform="translate(-182.178 -269.49)" fill="#fff"/>
        <path id="path1044" d="M219.642,278.126c0-2.2-.934-4.246-4.173-4.246a7.3,7.3,0,0,0-3.654.891l.5,1.657a5.365,5.365,0,0,1,2.72-.746c1.786,0,2.056,1.1,2.056,1.76v.166c-3.737-.021-6,1.263-6,3.811a3,3,0,0,0,3.177,3,3.76,3.76,0,0,0,2.99-1.346h.062l.166,1.118h2.3a16.133,16.133,0,0,1-.145-2.423Zm-2.492,2.527a1.826,1.826,0,0,1-.083.559,2.068,2.068,0,0,1-1.993,1.388,1.339,1.339,0,0,1-1.453-1.45c0-1.533,1.723-1.926,3.53-1.885Z" transform="translate(-189.659 -269.49)" fill="#fff"/>
        <path id="path1046" d="M230.244,281.108h2.575V266.4h-2.575Z" transform="translate(-197.566 -266.404)" fill="#fff"/>
        <path id="path1048" d="M241.831,281.4V271.313h-2.575V281.4Zm-1.287-14.29a1.362,1.362,0,0,0-1.433,1.388,1.434,1.434,0,0,0,2.865,0A1.362,1.362,0,0,0,240.544,267.109Z" transform="translate(-201.226 -266.695)" fill="#fff"/>
        <path id="path1050" d="M248.346,284.194h2.575v-5.923a2.589,2.589,0,0,1,.1-.828,2.142,2.142,0,0,1,1.993-1.491c1.391,0,1.931,1.1,1.931,2.547v5.7H257.5v-5.985c0-3.189-1.827-4.329-3.592-4.329a3.647,3.647,0,0,0-3.218,1.74h-.062l-.125-1.512h-2.242c.062.87.083,1.843.083,3Z" transform="translate(-205.003 -269.49)" fill="#fff"/>
        <path id="path1052" d="M277.342,277.008c0-1.388.042-2.216.083-2.9H275.2l-.1,1.346h-.042a3.184,3.184,0,0,0-2.928-1.574c-2.429,0-4.589,2.009-4.589,5.323,0,2.858,1.786,4.929,4.3,4.929a3.416,3.416,0,0,0,2.948-1.491h.042v.87c0,2.175-1.246,3.044-2.907,3.044a6.117,6.117,0,0,1-2.948-.766l-.561,1.926a7.169,7.169,0,0,0,3.53.808,5.826,5.826,0,0,0,3.9-1.222c1.059-.953,1.495-2.465,1.495-4.577Zm-2.554,2.775a4.375,4.375,0,0,1-.1.911,2.18,2.18,0,0,1-2.076,1.533c-1.6,0-2.471-1.388-2.471-3.107,0-2.05,1.059-3.293,2.492-3.293a2.12,2.12,0,0,1,2.076,1.636,2.468,2.468,0,0,1,.083.683Z" transform="translate(-212.961 -269.49)" fill="#fff"/>
        <path id="path1054" d="M296.746,281.632H299.3V269.806h4.028v-2.133H292.76v2.133h3.986Z" transform="translate(-223.369 -266.928)" fill="#fff"/>
        <path id="path1056" d="M318.815,279.866a6.256,6.256,0,0,0,.083-1.077c0-2.216-1.059-4.908-4.36-4.908-3.239,0-4.942,2.63-4.942,5.426,0,3.086,1.931,5.116,5.212,5.116a9.5,9.5,0,0,0,3.53-.642l-.374-1.76a7.616,7.616,0,0,1-2.8.456c-1.62,0-3.052-.787-3.114-2.61Zm-6.769-1.781a2.5,2.5,0,0,1,2.346-2.465,2.17,2.17,0,0,1,2.1,2.465Z" transform="translate(-230.318 -269.49)" fill="#fff"/>
        <path id="path1058" d="M328.865,284.194h2.492v-5.965a2.175,2.175,0,0,1,.145-.828,1.993,1.993,0,0,1,1.827-1.45c1.183,0,1.744.994,1.744,2.4v5.84h2.492v-6.048a3.64,3.64,0,0,1,.125-.849,1.947,1.947,0,0,1,1.786-1.346c1.225,0,1.806.994,1.806,2.672v5.571h2.492V278.25c0-3.231-1.7-4.37-3.384-4.37a3.383,3.383,0,0,0-2.035.6,3.823,3.823,0,0,0-1.246,1.263h-.042a2.915,2.915,0,0,0-2.8-1.864,3.5,3.5,0,0,0-3.114,1.719h-.062l-.1-1.491h-2.2c.062.87.083,1.843.083,3Z" transform="translate(-238.237 -269.49)" fill="#fff"/>
        <path id="path1060" d="M358.834,288.3h2.554v-5.219h.042a3.324,3.324,0,0,0,2.845,1.346c2.3,0,4.609-1.76,4.609-5.406,0-3.148-1.931-5.136-4.256-5.136a3.941,3.941,0,0,0-3.467,1.781h-.042l-.125-1.553h-2.242c.042.953.083,2.03.083,3.355Zm2.554-9.879a2.3,2.3,0,0,1,.1-.642,2.379,2.379,0,0,1,2.284-1.885c1.64,0,2.512,1.45,2.512,3.231,0,1.988-.955,3.334-2.575,3.334a2.308,2.308,0,0,1-2.242-1.781,2.618,2.618,0,0,1-.083-.7Z" transform="translate(-250.607 -269.49)" fill="#fff"/>
        <path id="path1062" d="M387.733,279.866a6.256,6.256,0,0,0,.083-1.077c0-2.216-1.059-4.908-4.36-4.908-3.239,0-4.942,2.63-4.942,5.426,0,3.086,1.931,5.116,5.212,5.116a9.5,9.5,0,0,0,3.53-.642l-.374-1.76a7.616,7.616,0,0,1-2.8.456c-1.62,0-3.052-.787-3.115-2.61Zm-6.769-1.781a2.5,2.5,0,0,1,2.346-2.465,2.17,2.17,0,0,1,2.1,2.465Z" transform="translate(-258.764 -269.49)" fill="#fff"/>
        <path id="path1064" d="M397.782,284.194h2.554v-5.219a4.361,4.361,0,0,1,.083-.787,2.25,2.25,0,0,1,2.284-1.926,3.556,3.556,0,0,1,.747.083v-2.4a2.69,2.69,0,0,0-.6-.062,3.014,3.014,0,0,0-2.762,2.154H400l-.083-1.926H397.7c.062.911.083,1.885.083,3.252Z" transform="translate(-266.683 -269.49)" fill="#fff"/>
        <path id="path1066" d="M417.415,278.126c0-2.2-.934-4.246-4.173-4.246a7.3,7.3,0,0,0-3.654.891l.5,1.657a5.365,5.365,0,0,1,2.72-.746c1.786,0,2.056,1.1,2.056,1.76v.166c-3.737-.021-6,1.263-6,3.811a3,3,0,0,0,3.177,3,3.76,3.76,0,0,0,2.99-1.346h.062l.166,1.118h2.3a16.133,16.133,0,0,1-.145-2.423Zm-2.492,2.527a1.826,1.826,0,0,1-.083.559,2.068,2.068,0,0,1-1.993,1.388,1.339,1.339,0,0,1-1.453-1.45c0-1.533,1.723-1.926,3.53-1.885Z" transform="translate(-271.29 -269.49)" fill="#fff"/>
        <path id="path1068" d="M427.531,270.585v1.864h-1.453v1.905h1.453V279.1a4.012,4.012,0,0,0,.789,2.817,2.971,2.971,0,0,0,2.2.849,5.522,5.522,0,0,0,1.848-.269l-.042-1.947a3.159,3.159,0,0,1-1,.124c-.976,0-1.308-.642-1.308-1.864v-4.453h2.429v-1.905h-2.429V269.86Z" transform="translate(-278.396 -267.83)" fill="#fff"/>
        <path id="path1070" d="M449.264,274.268H446.71v6.089a2.31,2.31,0,0,1-.145.787,2.152,2.152,0,0,1-1.952,1.367c-1.35,0-1.889-1.077-1.889-2.755v-5.488h-2.554v5.923c0,3.293,1.682,4.391,3.53,4.391a3.658,3.658,0,0,0,3.239-1.76h.042l.125,1.533h2.242c-.042-.828-.083-1.823-.083-3.024Z" transform="translate(-284.212 -269.65)" fill="#fff"/>
        <path id="path1072" d="M460.277,284.194h2.554v-5.219a4.364,4.364,0,0,1,.083-.787,2.25,2.25,0,0,1,2.284-1.926,3.556,3.556,0,0,1,.747.083v-2.4a2.69,2.69,0,0,0-.6-.062,3.014,3.014,0,0,0-2.762,2.154H462.5l-.083-1.926h-2.222c.062.911.083,1.885.083,3.252Z" transform="translate(-292.477 -269.49)" fill="#fff"/>
        <path id="path1074" d="M480.681,279.866a6.256,6.256,0,0,0,.083-1.077c0-2.216-1.059-4.908-4.36-4.908-3.239,0-4.942,2.63-4.942,5.426,0,3.086,1.931,5.116,5.212,5.116a9.5,9.5,0,0,0,3.53-.642l-.374-1.76a7.616,7.616,0,0,1-2.8.456c-1.62,0-3.052-.787-3.114-2.61Zm-6.769-1.781a2.5,2.5,0,0,1,2.346-2.465,2.17,2.17,0,0,1,2.1,2.465Z" transform="translate(-297.128 -269.49)" fill="#fff"/>
      </g>
      <g id="Sealing_Time" transform="translate(491.947 -2.06)">
        <path id="path1077" d="M785.083,280.809a8.31,8.31,0,0,0,3.779.891c3.613,0,5.315-1.968,5.315-4.2,0-2.009-1.184-3.231-3.613-4.142-1.869-.725-2.678-1.222-2.678-2.3,0-.808.706-1.678,2.325-1.678a5.936,5.936,0,0,1,2.782.663l.623-2.05a7.407,7.407,0,0,0-3.364-.7c-3.031,0-4.942,1.74-4.942,4.018,0,2.009,1.474,3.231,3.779,4.059,1.786.642,2.492,1.263,2.492,2.32,0,1.139-.914,1.905-2.554,1.905a7.085,7.085,0,0,1-3.384-.891Z" transform="translate(-785.083 -266.768)" fill="#fff"/>
        <path id="path1079" d="M812.666,279.866a6.257,6.257,0,0,0,.083-1.077c0-2.216-1.059-4.908-4.36-4.908-3.239,0-4.942,2.63-4.942,5.426,0,3.086,1.931,5.116,5.211,5.116a9.5,9.5,0,0,0,3.53-.642l-.374-1.76a7.616,7.616,0,0,1-2.8.456c-1.62,0-3.052-.787-3.114-2.61Zm-6.769-1.781a2.5,2.5,0,0,1,2.346-2.465,2.17,2.17,0,0,1,2.1,2.465Z" transform="translate(-792.663 -269.49)" fill="#fff"/>
        <path id="path1081" d="M830.126,278.126c0-2.2-.934-4.246-4.173-4.246a7.3,7.3,0,0,0-3.654.891l.5,1.657a5.365,5.365,0,0,1,2.72-.746c1.786,0,2.056,1.1,2.056,1.76v.166c-3.737-.021-6,1.263-6,3.811a3,3,0,0,0,3.177,3,3.76,3.76,0,0,0,2.99-1.346h.062l.166,1.118h2.3a16.134,16.134,0,0,1-.145-2.423Zm-2.492,2.527a1.826,1.826,0,0,1-.083.559,2.068,2.068,0,0,1-1.993,1.388,1.339,1.339,0,0,1-1.453-1.45c0-1.533,1.723-1.926,3.53-1.885Z" transform="translate(-800.143 -269.49)" fill="#fff"/>
        <path id="path1083" d="M840.728,281.108H843.3V266.4h-2.575Z" transform="translate(-808.05 -266.404)" fill="#fff"/>
        <path id="path1085" d="M852.315,281.4V271.313h-2.575V281.4Zm-1.287-14.29A1.362,1.362,0,0,0,849.6,268.5a1.434,1.434,0,0,0,2.865,0,1.362,1.362,0,0,0-1.433-1.388Z" transform="translate(-811.71 -266.695)" fill="#fff"/>
        <path id="path1087" d="M858.832,284.194h2.575v-5.923a2.589,2.589,0,0,1,.1-.828,2.142,2.142,0,0,1,1.993-1.491c1.391,0,1.931,1.1,1.931,2.547v5.7h2.554v-5.985c0-3.189-1.827-4.329-3.592-4.329a3.647,3.647,0,0,0-3.218,1.74h-.062l-.125-1.512h-2.242c.062.87.083,1.843.083,3Z" transform="translate(-815.488 -269.49)" fill="#fff"/>
        <path id="path1089" d="M887.827,277.008c0-1.388.042-2.216.083-2.9h-2.222l-.1,1.346h-.042a3.184,3.184,0,0,0-2.928-1.574c-2.429,0-4.589,2.009-4.589,5.323,0,2.858,1.786,4.929,4.3,4.929a3.416,3.416,0,0,0,2.948-1.491h.042v.87c0,2.175-1.246,3.044-2.907,3.044a6.117,6.117,0,0,1-2.948-.766l-.561,1.926a7.169,7.169,0,0,0,3.53.808,5.826,5.826,0,0,0,3.9-1.222c1.059-.953,1.495-2.465,1.495-4.577Zm-2.554,2.775a4.371,4.371,0,0,1-.1.911,2.18,2.18,0,0,1-2.076,1.533c-1.6,0-2.471-1.388-2.471-3.107,0-2.05,1.059-3.293,2.492-3.293a2.12,2.12,0,0,1,2.076,1.636,2.467,2.467,0,0,1,.083.683Z" transform="translate(-823.445 -269.49)" fill="#fff"/>
        <path id="path1091" d="M907.23,281.632h2.554V269.806h4.028v-2.133H903.244v2.133h3.987Z" transform="translate(-833.853 -266.928)" fill="#fff"/>
        <path id="path1093" d="M925.722,281.4V271.313h-2.575V281.4Zm-1.287-14.29A1.362,1.362,0,0,0,923,268.5a1.434,1.434,0,0,0,2.865,0A1.362,1.362,0,0,0,924.434,267.109Z" transform="translate(-842.008 -266.695)" fill="#fff"/>
        <path id="path1095" d="M932.237,284.194h2.492v-5.965a2.175,2.175,0,0,1,.145-.828,1.993,1.993,0,0,1,1.827-1.45c1.184,0,1.744.994,1.744,2.4v5.84h2.492v-6.048a3.642,3.642,0,0,1,.125-.849,1.947,1.947,0,0,1,1.786-1.346c1.225,0,1.806.994,1.806,2.672v5.571h2.492V278.25c0-3.231-1.7-4.37-3.384-4.37a3.383,3.383,0,0,0-2.035.6,3.823,3.823,0,0,0-1.246,1.263h-.042a2.915,2.915,0,0,0-2.8-1.864,3.5,3.5,0,0,0-3.114,1.719h-.062l-.1-1.491h-2.2c.062.87.083,1.843.083,3Z" transform="translate(-845.786 -269.49)" fill="#fff"/>
        <path id="path1097" d="M970.388,279.866a6.257,6.257,0,0,0,.083-1.077c0-2.216-1.059-4.908-4.36-4.908-3.239,0-4.942,2.63-4.942,5.426,0,3.086,1.931,5.116,5.212,5.116a9.5,9.5,0,0,0,3.53-.642l-.374-1.76a7.617,7.617,0,0,1-2.8.456c-1.62,0-3.052-.787-3.114-2.61Zm-6.769-1.781a2.5,2.5,0,0,1,2.346-2.465,2.17,2.17,0,0,1,2.1,2.465Z" transform="translate(-857.762 -269.49)" fill="#fff"/>
      </g>
      <path id="Rectangle_5" d="M215.577,132.741H275.79V201.66H215.577Z" transform="translate(-58.074 -242.864)" fill="#090cf9"/>
      <path id="Rectangle_6" d="M215.577-117.657H275.79V1.922H215.577Z" transform="translate(-58.074 -109.944)" fill="#0884f8"/>
      <path id="Rectangle_7" d="M821.349,132.741h60.213v39.351H821.349Z" transform="translate(-308.104 -213.295)" fill="#771000"/>
      <path id="Rectangle_8" d="M941.057-89.633h60.213V57.414H941.057Z" transform="translate(-427.815 -137.968)" fill="#f7c44f"/>
      <path id="Rectangle_9" d="M0,0H60.061V39.45H0Z" transform="translate(470.334 72.015) rotate(90)" fill="#c10099"/>
      <path id="Rectangle_10" d="M0,0H60.061V147.418H0Z" transform="translate(617.752 72.015) rotate(90)" fill="#f954f8"/>
      <g id="_0" transform="translate(132.365 152.636)">
        <path id="path1106" d="M176.066,529.827c-2.1,0-3.294,1.878-3.294,4.667.014,2.734,1.121,4.612,3.2,4.612,2.146,0,3.281-1.809,3.281-4.694C179.25,531.76,178.239,529.827,176.066,529.827Zm-.042,1.3c1.024,0,1.523,1.229,1.523,3.314,0,2.154-.526,3.369-1.523,3.369-.941,0-1.55-1.132-1.536-3.314C174.474,532.243,175.111,531.124,176.025,531.124Z" transform="translate(-172.772 -529.827)" fill="#fff"/>
      </g>
      <g id="_200" transform="translate(136.642 29.061)">
        <path id="path1109" d="M186.159,328.525v-1.408h-3.7v-.028l.789-.677c1.564-1.45,2.7-2.72,2.7-4.294a2.665,2.665,0,0,0-2.962-2.72,4.46,4.46,0,0,0-2.768.925l.5,1.2a3.281,3.281,0,0,1,1.924-.746,1.415,1.415,0,0,1,1.606,1.5c-.014,1.187-1.01,2.264-3.128,4.225l-1.066.98v1.036Z" transform="translate(-180.055 -319.398)" fill="#fff"/>
        <path id="path1111" d="M195.752,319.4c-2.1,0-3.294,1.878-3.294,4.667.014,2.734,1.121,4.612,3.2,4.612,2.146,0,3.281-1.809,3.281-4.694,0-2.651-1.01-4.584-3.184-4.584Zm-.042,1.3c1.024,0,1.523,1.229,1.523,3.314,0,2.154-.526,3.369-1.523,3.369-.941,0-1.55-1.132-1.536-3.314C194.16,321.815,194.8,320.7,195.71,320.7Z" transform="translate(-185.174 -319.399)" fill="#fff"/>
        <path id="path1113" d="M208.366,319.4c-2.1,0-3.294,1.878-3.294,4.667.014,2.734,1.121,4.612,3.2,4.612,2.146,0,3.281-1.809,3.281-4.694,0-2.651-1.01-4.584-3.184-4.584Zm-.042,1.3c1.024,0,1.523,1.229,1.523,3.314,0,2.154-.526,3.369-1.523,3.369-.941,0-1.55-1.132-1.536-3.314C206.774,321.815,207.411,320.7,208.324,320.7Z" transform="translate(-190.38 -319.399)" fill="#fff"/>
      </g>
      <g id="_100" transform="translate(133.888 86.361)">
        <path id="path1116" d="M177.33,426.2h1.647V417.23h-1.426l-2.187,1.077.291,1.284,1.647-.828h.028Z" transform="translate(-175.365 -417.078)" fill="#fff"/>
        <path id="path1118" d="M189.859,416.972c-2.1,0-3.294,1.878-3.294,4.667.014,2.734,1.121,4.612,3.2,4.612,2.146,0,3.281-1.809,3.281-4.694,0-2.651-1.01-4.584-3.184-4.584Zm-.042,1.3c1.024,0,1.523,1.229,1.523,3.314,0,2.154-.526,3.369-1.523,3.369-.941,0-1.55-1.132-1.536-3.314-.014-2.251.623-3.369,1.536-3.369Z" transform="translate(-179.988 -416.972)" fill="#fff"/>
        <path id="path1120" d="M202.473,416.972c-2.1,0-3.294,1.878-3.294,4.667.014,2.734,1.121,4.612,3.2,4.612,2.146,0,3.281-1.809,3.281-4.694C205.657,418.9,204.646,416.972,202.473,416.972Zm-.042,1.3c1.024,0,1.523,1.229,1.523,3.314,0,2.154-.526,3.369-1.523,3.369-.941,0-1.55-1.132-1.536-3.314-.014-2.251.623-3.369,1.536-3.369Z" transform="translate(-185.194 -416.972)" fill="#fff"/>
      </g>
      <g id="SV_:_160o_C" transform="translate(202.559 82.198)">
        <path id="path1123" d="M292.3,432.389a12.065,12.065,0,0,0,5.952,1.519c5.5,0,8.167-3.141,8.167-6.731,0-3.417-2.007-5.316-5.952-6.835-3.218-1.243-4.637-2.313-4.637-4.487,0-1.588,1.211-3.486,4.395-3.486a9.308,9.308,0,0,1,4.429,1.1l.831-2.451a10.62,10.62,0,0,0-5.156-1.139c-4.533,0-7.544,2.692-7.544,6.317,0,3.279,2.353,5.247,6.16,6.593,3.149,1.208,4.395,2.451,4.395,4.625,0,2.347-1.8,3.97-4.879,3.97a10.689,10.689,0,0,1-5.4-1.519Z" transform="translate(-292.3 -409.883)" fill="#fff"/>
        <path id="path1125" d="M330,433.794l8.34-23.265h-3.218l-3.945,11.494c-1.038,3.038-2.007,5.972-2.665,8.664h-.069c-.623-2.727-1.488-5.557-2.492-8.7l-3.633-11.46h-3.253l7.613,23.265Z" transform="translate(-303.347 -410.149)" fill="#fff"/>
        <path id="path1127" d="M357.38,427.175a2.54,2.54,0,0,0,2.63-2.692,2.632,2.632,0,1,0-5.26,0,2.551,2.551,0,0,0,2.6,2.692Zm0,11.633a2.711,2.711,0,0,0,0-5.419,2.712,2.712,0,0,0-.035,5.419Z" transform="translate(-318.076 -414.783)" fill="#fff"/>
        <path id="path1129" d="M388.323,434.377h4.118V411.94h-3.564l-5.468,2.692.727,3.21,4.118-2.071h.069Z" transform="translate(-329.905 -410.732)" fill="#fff"/>
        <path id="path1131" d="M425.341,411.4a12.078,12.078,0,0,0-2.146.069,13.037,13.037,0,0,0-7.994,3.314,13.722,13.722,0,0,0-3.91,10.079c0,5.523,3.011,9.665,8.478,9.665a7.8,7.8,0,0,0,7.925-8.008c0-4.556-3.011-7.318-6.886-7.318a6.482,6.482,0,0,0-5.052,2.175h-.1c.554-3.107,2.838-6.006,7.544-6.558a17.16,17.16,0,0,1,2.18-.1Zm-5.606,19.951c-2.734,0-4.153-2.416-4.222-5.385a2.893,2.893,0,0,1,.277-1.346,4.135,4.135,0,0,1,3.668-2.313c2.492,0,3.91,1.829,3.91,4.453,0,2.692-1.419,4.591-3.6,4.591Z" transform="translate(-341.413 -410.499)" fill="#fff"/>
        <path id="path1133" d="M451.18,411.293c-5.26,0-8.236,4.694-8.236,11.667.035,6.835,2.8,11.529,7.994,11.529,5.364,0,8.2-4.522,8.2-11.736,0-6.628-2.526-11.46-7.959-11.46Zm-.1,3.245c2.561,0,3.807,3.072,3.807,8.284,0,5.385-1.315,8.422-3.807,8.422-2.353,0-3.876-2.83-3.841-8.284C447.2,417.334,448.793,414.538,451.077,414.538Z" transform="translate(-354.478 -410.465)" fill="#fff"/>
        <path id="path1135" d="M478.765,416.428a4.847,4.847,0,0,0-5.087,5.195,4.747,4.747,0,0,0,4.925,5.054,4.864,4.864,0,0,0,5.046-5.215A4.71,4.71,0,0,0,478.765,416.428Zm-.061,1.812c1.7,0,2.382,1.752,2.382,3.282,0,1.973-.989,3.362-2.4,3.362-1.514,0-2.442-1.43-2.442-3.322C476.242,419.931,476.948,418.24,478.7,418.24Z" transform="translate(-367.163 -412.584)" fill="#fff"/>
        <path id="path1137" d="M523.432,429.489a11.941,11.941,0,0,1-4.637.863c-5.122,0-8.132-3.279-8.132-8.388,0-5.592,3.426-8.56,8.167-8.56a11.357,11.357,0,0,1,4.568.9l.934-3.383a13.428,13.428,0,0,0-5.675-1.036c-7.129,0-12.458,4.625-12.458,12.288,0,7.076,4.5,11.736,11.9,11.736a14.644,14.644,0,0,0,6.021-1.07Z" transform="translate(-380.586 -409.882)" fill="#fff"/>
      </g>
      <path id="Ellipse_1" d="M601.848-17.71c0,38.318-29.747,69.381-66.442,69.381S468.964,20.608,468.964-17.71s29.747-69.382,66.442-69.381,66.441,31.063,66.441,69.381Z" transform="translate(-162.659 -122.56)" fill="#ff0909"/>
      <g id="_0-2" transform="translate(225.799 -45.498)">
        <path id="path1141" d="M335.169,192.436c-2.1,0-3.294,1.878-3.294,4.667.014,2.734,1.121,4.612,3.2,4.612,2.146,0,3.281-1.809,3.281-4.694C338.353,194.369,337.342,192.436,335.169,192.436Zm-.042,1.3c1.024,0,1.523,1.229,1.523,3.314,0,2.154-.526,3.369-1.523,3.369-.941,0-1.55-1.132-1.536-3.314C333.577,194.852,334.214,193.734,335.128,193.734Z" transform="translate(-331.875 -192.436)" fill="#fff"/>
      </g>
      <g id="_15" transform="translate(223.169 -135.783)">
        <path id="path1144" d="M329.362,47.669h1.647V38.695h-1.426L327.4,39.772l.291,1.284,1.647-.828h.028Z" transform="translate(-327.396 -38.695)" fill="#fff"/>
        <path id="path1146" d="M344.516,38.695h-4.651l-.6,4.529a7.851,7.851,0,0,1,1.232-.083c1.8,0,2.561.677,2.561,1.7a1.755,1.755,0,0,1-1.952,1.643,4.563,4.563,0,0,1-1.979-.469l-.346,1.284a5.188,5.188,0,0,0,2.381.525c2.215,0,3.64-1.395,3.64-3.107a2.573,2.573,0,0,0-1.177-2.278,4.019,4.019,0,0,0-2.187-.58,4.547,4.547,0,0,0-.651.041l.263-1.795h3.46Z" transform="translate(-332.097 -38.695)" fill="#fff"/>
      </g>
      <g id="_30" transform="translate(222.422 -231.895)">
        <path id="path1149" d="M326.123-116.312a4.921,4.921,0,0,0,2.519.621c2.229,0,3.5-1.2,3.5-2.72a2.268,2.268,0,0,0-1.979-2.237v-.028a2.191,2.191,0,0,0,1.661-2.1c0-1.174-.955-2.2-2.81-2.2a4.868,4.868,0,0,0-2.588.69l.388,1.229a3.628,3.628,0,0,1,1.841-.566c.983,0,1.44.511,1.44,1.118,0,.9-1,1.256-1.786,1.256h-.761V-120h.789c1.038,0,2.035.456,2.035,1.519.014.7-.512,1.436-1.813,1.436a4.459,4.459,0,0,1-2.049-.552Z" transform="translate(-326.123 124.969)" fill="#fff"/>
        <path id="path1151" d="M341.891-124.968c-2.1,0-3.294,1.878-3.294,4.667.014,2.734,1.121,4.612,3.2,4.612,2.146,0,3.281-1.809,3.281-4.694,0-2.651-1.01-4.584-3.184-4.584Zm-.042,1.3c1.024,0,1.523,1.229,1.523,3.314,0,2.154-.526,3.369-1.523,3.369-.941,0-1.55-1.132-1.536-3.314C340.3-122.552,340.936-123.67,341.849-123.67Z" transform="translate(-331.272 124.969)" fill="#fff"/>
      </g>
      <g id="_0-3" transform="translate(581.54 -45.498)">
        <path id="path1154" d="M940.94,192.436c-2.1,0-3.294,1.878-3.294,4.667.014,2.734,1.121,4.612,3.2,4.612,2.146,0,3.281-1.809,3.281-4.694C944.123,194.369,943.113,192.436,940.94,192.436Zm-.042,1.3c1.024,0,1.523,1.229,1.523,3.314,0,2.154-.526,3.369-1.523,3.369-.941,0-1.55-1.132-1.536-3.314C939.348,194.852,939.984,193.734,940.9,193.734Z" transform="translate(-937.645 -192.436)" fill="#fff"/>
      </g>
      <g id="_15-2" transform="translate(578.91 -135.783)">
        <path id="path1157" d="M935.133,47.669h1.647V38.695h-1.426l-2.187,1.077.291,1.284,1.647-.828h.028Z" transform="translate(-933.168 -38.695)" fill="#fff"/>
        <path id="path1159" d="M950.286,38.695h-4.651l-.6,4.529a7.852,7.852,0,0,1,1.232-.083c1.8,0,2.561.677,2.561,1.7a1.755,1.755,0,0,1-1.952,1.643,4.563,4.563,0,0,1-1.979-.469l-.346,1.284a5.189,5.189,0,0,0,2.381.525c2.215,0,3.64-1.395,3.64-3.107a2.573,2.573,0,0,0-1.177-2.278,4.019,4.019,0,0,0-2.187-.58,4.547,4.547,0,0,0-.651.041l.263-1.795h3.461Z" transform="translate(-937.868 -38.695)" fill="#fff"/>
      </g>
      <g id="_30-2" transform="translate(578.162 -231.895)">
        <path id="path1162" d="M931.894-116.312a4.921,4.921,0,0,0,2.519.621c2.229,0,3.5-1.2,3.5-2.72a2.268,2.268,0,0,0-1.979-2.237v-.028a2.191,2.191,0,0,0,1.661-2.1c0-1.174-.955-2.2-2.81-2.2a4.868,4.868,0,0,0-2.589.69l.388,1.229a3.627,3.627,0,0,1,1.841-.566c.983,0,1.44.511,1.44,1.118,0,.9-1,1.256-1.786,1.256h-.761V-120h.789c1.038,0,2.035.456,2.035,1.519.014.7-.512,1.436-1.813,1.436a4.459,4.459,0,0,1-2.049-.552Z" transform="translate(-931.894 124.969)" fill="#fff"/>
        <path id="path1164" d="M947.661-124.968c-2.1,0-3.294,1.878-3.294,4.667.014,2.734,1.121,4.612,3.2,4.612,2.146,0,3.281-1.809,3.281-4.694,0-2.651-1.01-4.584-3.184-4.584Zm-.042,1.3c1.024,0,1.523,1.229,1.523,3.314,0,2.154-.526,3.369-1.523,3.369-.941,0-1.55-1.132-1.536-3.314C946.069-122.552,946.706-123.67,947.62-123.67Z" transform="translate(-937.042 124.969)" fill="#fff"/>
      </g>
      <g id="_0-4" transform="translate(431.354 144.351)">
        <path id="path1167" d="M685.2,515.719c-2.1,0-3.294,1.878-3.294,4.667.014,2.734,1.121,4.612,3.2,4.612,2.146,0,3.281-1.809,3.281-4.694,0-2.651-1.01-4.584-3.184-4.584Zm-.042,1.3c1.024,0,1.523,1.229,1.523,3.314,0,2.154-.526,3.369-1.523,3.369-.941,0-1.55-1.132-1.536-3.314-.014-2.251.623-3.369,1.536-3.369Z" transform="translate(-681.902 -515.719)" fill="#fff"/>
      </g>
      <g id="_15-3" transform="translate(606.594 144.503)">
        <path id="path1170" d="M982.274,524.953h1.647v-8.975H982.5l-2.187,1.077.291,1.284,1.647-.828h.028Z" transform="translate(-980.309 -515.978)" fill="#fff"/>
        <path id="path1172" d="M997.433,515.978h-4.651l-.6,4.529a7.852,7.852,0,0,1,1.232-.083c1.8,0,2.561.677,2.561,1.7a1.755,1.755,0,0,1-1.952,1.643,4.562,4.562,0,0,1-1.979-.469l-.346,1.284a5.188,5.188,0,0,0,2.381.525c2.215,0,3.64-1.395,3.64-3.107a2.573,2.573,0,0,0-1.177-2.278,4.019,4.019,0,0,0-2.187-.58,4.543,4.543,0,0,0-.651.041l.263-1.795h3.461Z" transform="translate(-985.011 -515.978)" fill="#fff"/>
      </g>
      <g id="_10" transform="translate(180.218 -101.123)">
        <path id="path1175" d="M257.205,96.241h2.471V82.779h-2.139l-3.281,1.615.436,1.926,2.471-1.243h.042Z" transform="translate(-254.257 -82.551)" fill="#fff"/>
        <path id="path1177" d="M276,82.391c-3.156,0-4.942,2.817-4.942,7,.021,4.1,1.682,6.917,4.8,6.917,3.218,0,4.921-2.713,4.921-7.042,0-3.976-1.516-6.876-4.776-6.876Zm-.062,1.947c1.536,0,2.284,1.843,2.284,4.971,0,3.231-.789,5.053-2.284,5.053-1.412,0-2.325-1.7-2.3-4.971C273.61,86.015,274.565,84.338,275.935,84.338Z" transform="translate(-261.19 -82.391)" fill="#fff"/>
      </g>
      <g id="_6" transform="translate(538.131 -108.022)">
        <path id="path1180" d="M872.157,85.98a7.251,7.251,0,0,0-1.287.041,7.822,7.822,0,0,0-4.8,1.988,8.233,8.233,0,0,0-2.346,6.048c0,3.314,1.806,5.8,5.087,5.8a4.683,4.683,0,0,0,4.755-4.8,4.06,4.06,0,0,0-4.132-4.391,3.889,3.889,0,0,0-3.031,1.3h-.062a4.779,4.779,0,0,1,4.526-3.935,10.3,10.3,0,0,1,1.308-.062ZM868.794,97.95c-1.64,0-2.492-1.45-2.533-3.231a1.737,1.737,0,0,1,.166-.808,2.481,2.481,0,0,1,2.2-1.388c1.495,0,2.346,1.1,2.346,2.672,0,1.615-.851,2.755-2.159,2.755Z" transform="translate(-863.727 -85.967)"/>
      </g>
      <g id="_3.3" transform="translate(481.545 95.605)">
        <path id="path1183" d="M767.37,445.7a7.381,7.381,0,0,0,3.779.932c3.343,0,5.253-1.8,5.253-4.08a3.4,3.4,0,0,0-2.969-3.355v-.041a3.286,3.286,0,0,0,2.492-3.148c0-1.76-1.433-3.293-4.215-3.293a7.3,7.3,0,0,0-3.883,1.036l.581,1.843a5.441,5.441,0,0,1,2.761-.849c1.474,0,2.159.766,2.159,1.678,0,1.346-1.495,1.885-2.678,1.885h-1.142v1.864h1.184c1.557,0,3.052.683,3.052,2.278.021,1.056-.768,2.154-2.72,2.154a6.689,6.689,0,0,1-3.073-.828Z" transform="translate(-767.37 -432.713)"/>
        <path id="path1185" d="M788.258,454.112a1.569,1.569,0,1,0-.021,0Z" transform="translate(-775.34 -440.195)"/>
        <path id="path1187" d="M794.647,445.7a7.381,7.381,0,0,0,3.779.932c3.343,0,5.253-1.8,5.253-4.08a3.4,3.4,0,0,0-2.969-3.355v-.041a3.286,3.286,0,0,0,2.492-3.148c0-1.76-1.433-3.293-4.215-3.293a7.3,7.3,0,0,0-3.883,1.036l.581,1.843a5.441,5.441,0,0,1,2.761-.849c1.474,0,2.159.766,2.159,1.678,0,1.346-1.495,1.885-2.678,1.885h-1.142v1.864h1.183c1.557,0,3.052.683,3.052,2.278.021,1.056-.768,2.154-2.72,2.154a6.688,6.688,0,0,1-3.073-.828Z" transform="translate(-778.628 -432.713)"/>
      </g>
      <g id="ROTA_MAP" transform="translate(664.514 -331.208)">
        <path id="path1190" d="M1078.938-275.05h3.377V-282.7h1.716c1.938.055,2.824.828,3.35,3.258a26.256,26.256,0,0,0,1.246,4.391h3.516a37.056,37.056,0,0,1-1.467-5.192c-.471-1.795-1.273-3.093-2.6-3.59v-.083a4.966,4.966,0,0,0,3.377-4.667,4.7,4.7,0,0,0-1.606-3.728c-1.246-1.049-3.073-1.491-5.758-1.491a32.406,32.406,0,0,0-5.149.387Zm3.377-16.016a9.814,9.814,0,0,1,2.1-.166c2.215,0,3.654.939,3.654,2.982,0,1.85-1.44,3.065-3.737,3.065h-2.021Z" transform="translate(-1078.938 293.966)" fill="#fff"/>
        <path id="path1192" d="M1112.942-294.082c-5.26,0-8.859,4.032-8.859,9.748,0,5.468,3.322,9.472,8.582,9.472,5.149,0,8.942-3.562,8.942-9.8C1121.607-289.967,1118.4-294.082,1112.942-294.082Zm-.083,2.706c3.405,0,5.149,3.341,5.149,6.848,0,3.894-1.855,6.959-5.149,6.959-3.267,0-5.177-3.038-5.177-6.821,0-3.838,1.8-6.986,5.177-6.986Z" transform="translate(-1089.316 294.082)" fill="#fff"/>
        <path id="path1194" d="M1139.933-274.953h3.405v-15.768h5.371v-2.844h-14.091v2.844h5.315Z" transform="translate(-1101.92 293.869)" fill="#fff"/>
        <path id="path1196" d="M1167.636-280.228l1.688,5.274h3.654l-6.063-18.612h-4.346l-5.98,18.612h3.516l1.606-5.274Zm-5.371-2.568,1.44-4.584c.332-1.1.609-2.4.886-3.479h.055c.277,1.077.581,2.347.941,3.479l1.467,4.584Z" transform="translate(-1110.988 293.869)" fill="#fff"/>
        <path id="path1198" d="M1214.508-274.953h3.322l-1.08-18.612h-4.429l-2.575,7.456c-.72,2.182-1.356,4.474-1.855,6.489h-.083c-.471-2.071-1.052-4.28-1.716-6.462l-2.436-7.483h-4.485l-1.246,18.612h3.184l.415-7.484c.138-2.54.249-5.5.332-7.953h.055c.5,2.347,1.163,4.888,1.883,7.263l2.492,7.953h2.63l2.713-8.063c.831-2.347,1.606-4.86,2.215-7.152h.083c-.028,2.541.111,5.44.222,7.842Z" transform="translate(-1128.049 293.869)" fill="#fff"/>
        <path id="path1200" d="M1246.084-280.228l1.689,5.274h3.654l-6.063-18.612h-4.346l-5.98,18.612h3.516l1.606-5.274Zm-5.371-2.568,1.439-4.584c.332-1.1.609-2.4.886-3.479h.055c.277,1.077.581,2.347.941,3.479l1.467,4.584Z" transform="translate(-1143.368 293.869)" fill="#fff"/>
        <path id="path1202" d="M1267.415-275.05h3.377v-7.014a9.624,9.624,0,0,0,1.661.11,8.246,8.246,0,0,0,5.9-1.988,5.632,5.632,0,0,0,1.606-4.225,5.251,5.251,0,0,0-1.827-4.115c-1.191-.994-3.018-1.519-5.509-1.519a29.594,29.594,0,0,0-5.2.387Zm3.377-15.989a9.433,9.433,0,0,1,1.966-.166c2.353,0,3.793,1.1,3.793,3.176,0,2.182-1.55,3.424-4.1,3.424a6.887,6.887,0,0,1-1.661-.138Z" transform="translate(-1156.731 293.966)" fill="#fff"/>
      </g>
      <path id="Rectangle_11" d="M1065.156,438.39h143.958a6.906,6.906,0,0,1,6.921,6.921v58.646a6.906,6.906,0,0,1-6.921,6.921H1065.156a6.906,6.906,0,0,1-6.921-6.921V445.311A6.906,6.906,0,0,1,1065.156,438.39Z" transform="translate(-405.878 -339.451)" fill="#013300"/>
      <path id="Ellipse_2" d="M1125.539,484.339c0,12.391-10.845,22.437-24.224,22.437s-24.224-10.045-24.224-22.437,10.845-22.437,24.224-22.437,24.224,10.045,24.224,22.437Z" transform="translate(-413.661 -349.155)" fill="#097915"/>
      <g id="Polygon_1" data-name="Polygon 1" transform="translate(704.957 122.412) rotate(90)">
        <path id="path96" d="M25.089,23.828H0L12.544,0Z" transform="translate(0.572 0.741)" fill="#fff"/>
        <path id="path98" d="M13.117,1.483,1.145,24.224H25.089L13.117,1.483m0-1.483L26.234,24.916H0Z" fill="#707070"/>
      </g>
      <g id="START" transform="translate(728.647 128.245)">
        <path id="path1207" d="M1188.145,501.818a8.31,8.31,0,0,0,3.779.891c3.613,0,5.315-1.968,5.315-4.2,0-2.009-1.184-3.231-3.613-4.142-1.869-.725-2.678-1.222-2.678-2.3,0-.808.706-1.678,2.325-1.678a5.937,5.937,0,0,1,2.782.663l.623-2.05a7.406,7.406,0,0,0-3.364-.7c-3.031,0-4.942,1.74-4.942,4.018,0,2.009,1.474,3.231,3.779,4.059,1.786.642,2.492,1.263,2.492,2.32,0,1.139-.914,1.905-2.554,1.905a7.085,7.085,0,0,1-3.384-.891Z" transform="translate(-1188.145 -488.293)" fill="#fff"/>
        <path id="path1209" d="M1209.333,502.641h2.554V490.815h4.028v-2.133h-10.568v2.133h3.987Z" transform="translate(-1195.245 -488.453)" fill="#fff"/>
        <path id="path1211" d="M1230.113,498.685l1.267,3.956h2.741l-4.547-13.959h-3.26l-4.485,13.959h2.637l1.2-3.956Zm-4.028-1.926,1.08-3.438c.249-.828.457-1.8.665-2.61h.042c.208.808.436,1.76.706,2.61l1.1,3.438Z" transform="translate(-1202.048 -488.454)" fill="#fff"/>
        <path id="path1213" d="M1246.108,502.568h2.533v-5.737h1.287c1.453.041,2.118.621,2.512,2.444a19.675,19.675,0,0,0,.934,3.293h2.637a27.8,27.8,0,0,1-1.1-3.894,3.553,3.553,0,0,0-1.952-2.692v-.062a3.724,3.724,0,0,0,2.533-3.5,3.528,3.528,0,0,0-1.2-2.8c-.934-.787-2.3-1.118-4.319-1.118a24.3,24.3,0,0,0-3.862.29Zm2.533-12.012a7.362,7.362,0,0,1,1.578-.124c1.661,0,2.741.7,2.741,2.237,0,1.388-1.08,2.3-2.8,2.3h-1.516Z" transform="translate(-1212.069 -488.381)" fill="#fff"/>
        <path id="path1215" d="M1268.167,502.641h2.554V490.815h4.028v-2.133h-10.568v2.133h3.986Z" transform="translate(-1219.529 -488.453)" fill="#fff"/>
      </g>
      <g id="Parameter_Edit" transform="translate(673.658 -253.662)">
        <path id="path1218" d="M1094.507-149.4h2.111v-4.384a6.013,6.013,0,0,0,1.038.069,5.153,5.153,0,0,0,3.685-1.243,3.52,3.52,0,0,0,1-2.641,3.282,3.282,0,0,0-1.142-2.572,5.286,5.286,0,0,0-3.443-.949,18.491,18.491,0,0,0-3.253.242Zm2.111-9.993a5.9,5.9,0,0,1,1.229-.1c1.471,0,2.37.69,2.37,1.985,0,1.363-.969,2.14-2.561,2.14a4.3,4.3,0,0,1-1.038-.086Z" transform="translate(-1094.507 161.658)" fill="#fff"/>
        <path id="path1220" d="M1116.311-152.266c0-1.829-.779-3.538-3.478-3.538a6.079,6.079,0,0,0-3.045.742l.415,1.381a4.471,4.471,0,0,1,2.267-.621c1.488,0,1.713.915,1.713,1.467v.138c-3.115-.017-5,1.053-5,3.176a2.5,2.5,0,0,0,2.647,2.5,3.133,3.133,0,0,0,2.492-1.122h.052l.138.932h1.921a13.455,13.455,0,0,1-.121-2.019Zm-2.076,2.106a1.516,1.516,0,0,1-.069.466,1.724,1.724,0,0,1-1.661,1.156,1.116,1.116,0,0,1-1.211-1.208c0-1.277,1.436-1.605,2.941-1.571Z" transform="translate(-1100.564 159.463)" fill="#fff"/>
        <path id="path1222" d="M1125.1-147.209h2.128v-4.349a3.64,3.64,0,0,1,.069-.656,1.875,1.875,0,0,1,1.9-1.605,2.969,2.969,0,0,1,.623.069v-2a2.24,2.24,0,0,0-.5-.052,2.512,2.512,0,0,0-2.3,1.795h-.069l-.069-1.605h-1.851c.052.759.069,1.571.069,2.71Z" transform="translate(-1107.105 159.463)" fill="#fff"/>
        <path id="path1224" d="M1141.453-152.266c0-1.829-.779-3.538-3.478-3.538a6.08,6.08,0,0,0-3.045.742l.415,1.381a4.472,4.472,0,0,1,2.267-.621c1.488,0,1.713.915,1.713,1.467v.138c-3.114-.017-5,1.053-5,3.176a2.5,2.5,0,0,0,2.647,2.5,3.133,3.133,0,0,0,2.492-1.122h.052l.138.932h1.921a13.439,13.439,0,0,1-.121-2.019Zm-2.076,2.106a1.516,1.516,0,0,1-.069.466,1.724,1.724,0,0,1-1.661,1.156,1.116,1.116,0,0,1-1.211-1.208c0-1.277,1.436-1.605,2.941-1.571Z" transform="translate(-1110.942 159.463)" fill="#fff"/>
        <path id="path1226" d="M1150.239-147.209h2.076v-4.971a1.814,1.814,0,0,1,.121-.69,1.661,1.661,0,0,1,1.523-1.208c.986,0,1.453.828,1.453,2v4.867h2.076v-5.04a3.015,3.015,0,0,1,.1-.708,1.622,1.622,0,0,1,1.488-1.122c1.021,0,1.505.828,1.505,2.226v4.643h2.076v-4.953c0-2.692-1.419-3.642-2.82-3.642a2.819,2.819,0,0,0-1.7.5,3.187,3.187,0,0,0-1.038,1.053h-.035a2.429,2.429,0,0,0-2.336-1.553,2.916,2.916,0,0,0-2.6,1.432h-.052l-.087-1.243h-1.834c.052.725.069,1.536.069,2.5Z" transform="translate(-1117.482 159.463)" fill="#fff"/>
        <path id="path1228" d="M1182.035-150.816a5.2,5.2,0,0,0,.069-.9c0-1.847-.883-4.09-3.634-4.09-2.7,0-4.118,2.192-4.118,4.522a3.994,3.994,0,0,0,4.343,4.263,7.92,7.92,0,0,0,2.942-.535l-.312-1.467a6.347,6.347,0,0,1-2.336.38c-1.349,0-2.543-.656-2.6-2.175Zm-5.641-1.484a2.079,2.079,0,0,1,1.955-2.054,1.808,1.808,0,0,1,1.748,2.054Z" transform="translate(-1127.463 159.463)" fill="#fff"/>
        <path id="path1230" d="M1190.228-158.55V-157h-1.211v1.588h1.211v3.952a3.343,3.343,0,0,0,.657,2.347,2.476,2.476,0,0,0,1.834.708,4.6,4.6,0,0,0,1.54-.224l-.035-1.622a2.631,2.631,0,0,1-.83.1c-.813,0-1.09-.535-1.09-1.553v-3.711h2.024V-157H1192.3v-2.157Z" transform="translate(-1133.516 160.846)" fill="#fff"/>
        <path id="path1232" d="M1207.417-150.816a5.192,5.192,0,0,0,.069-.9c0-1.847-.882-4.09-3.633-4.09-2.7,0-4.118,2.192-4.118,4.522a3.994,3.994,0,0,0,4.343,4.263,7.918,7.918,0,0,0,2.941-.535l-.311-1.467a6.346,6.346,0,0,1-2.336.38c-1.35,0-2.543-.656-2.6-2.175Zm-5.641-1.484a2.079,2.079,0,0,1,1.955-2.054,1.808,1.808,0,0,1,1.747,2.054Z" transform="translate(-1137.939 159.463)" fill="#fff"/>
        <path id="path1234" d="M1215.792-147.209h2.128v-4.349a3.629,3.629,0,0,1,.069-.656,1.875,1.875,0,0,1,1.9-1.605,2.967,2.967,0,0,1,.623.069v-2a2.239,2.239,0,0,0-.5-.052,2.512,2.512,0,0,0-2.3,1.795h-.069l-.069-1.605h-1.851c.052.759.069,1.571.069,2.71Z" transform="translate(-1144.538 159.463)" fill="#fff"/>
        <path id="path1236" d="M1239.08-156.23h-4.395v-3h4.654v-1.743h-6.783v11.633h7.042v-1.743h-4.914V-154.5h4.395Z" transform="translate(-1151.487 161.598)" fill="#fff"/>
        <path id="path1238" d="M1252.75-162.035v4.763h-.035a2.687,2.687,0,0,0-2.37-1.1c-2.024,0-3.789,1.674-3.772,4.487,0,2.589,1.592,4.3,3.6,4.3a3.035,3.035,0,0,0,2.751-1.519h.035l.087,1.329h1.9c-.035-.57-.069-1.5-.069-2.365v-9.889Zm0,8.612a2.35,2.35,0,0,1-.069.621,1.876,1.876,0,0,1-1.834,1.5c-1.35,0-2.111-1.122-2.111-2.658,0-1.571.761-2.779,2.128-2.779a1.863,1.863,0,0,1,1.834,1.5,2.978,2.978,0,0,1,.052.552Z" transform="translate(-1157.272 162.035)" fill="#fff"/>
        <path id="path1240" d="M1266.633-149.538v-8.405h-2.146v8.405Zm-1.073-11.909a1.135,1.135,0,0,0-1.194,1.156,1.117,1.117,0,0,0,1.177,1.139,1.127,1.127,0,0,0,1.211-1.139A1.135,1.135,0,0,0,1265.56-161.447Z" transform="translate(-1164.616 161.792)" fill="#fff"/>
        <path id="path1242" d="M1271.88-158.55V-157h-1.211v1.588h1.211v3.952a3.344,3.344,0,0,0,.657,2.347,2.476,2.476,0,0,0,1.834.708,4.6,4.6,0,0,0,1.54-.224l-.035-1.622a2.63,2.63,0,0,1-.83.1c-.813,0-1.09-.535-1.09-1.553v-3.711h2.025V-157h-2.025v-2.157Z" transform="translate(-1167.218 160.846)" fill="#fff"/>
      </g>
      <g id="Module_Change" transform="translate(673.36 -187.388)">
        <path id="path1245" d="M1104.365-36.489h2.076l-.675-11.633H1103l-1.609,4.66c-.45,1.363-.848,2.8-1.159,4.056h-.052c-.294-1.294-.657-2.675-1.073-4.039l-1.523-4.677h-2.8L1094-36.489h1.99l.26-4.677c.087-1.588.156-3.435.208-4.971h.035c.311,1.467.727,3.055,1.177,4.539l1.557,4.971h1.644l1.7-5.04c.519-1.467,1-3.038,1.384-4.47H1104c-.017,1.588.069,3.4.138,4.9Z" transform="translate(-1094.001 48.743)" fill="#fff"/>
        <path id="path1247" d="M1122.322-42.949a4.155,4.155,0,0,0-4.36,4.453,4.069,4.069,0,0,0,4.222,4.332,4.169,4.169,0,0,0,4.326-4.47,4.037,4.037,0,0,0-4.187-4.315Zm-.052,1.553c1.453,0,2.042,1.5,2.042,2.813,0,1.691-.848,2.882-2.059,2.882-1.3,0-2.094-1.225-2.094-2.848,0-1.4.606-2.848,2.111-2.848Z" transform="translate(-1103.89 46.608)" fill="#fff"/>
        <path id="path1249" d="M1140.77-49.179v4.763h-.035a2.687,2.687,0,0,0-2.37-1.1c-2.024,0-3.789,1.674-3.772,4.487,0,2.589,1.592,4.3,3.6,4.3a3.035,3.035,0,0,0,2.751-1.519h.035l.086,1.329h1.9c-.035-.57-.069-1.5-.069-2.364v-9.889Zm0,8.612a2.35,2.35,0,0,1-.069.621,1.876,1.876,0,0,1-1.834,1.5c-1.35,0-2.111-1.122-2.111-2.658,0-1.571.761-2.779,2.128-2.779a1.863,1.863,0,0,1,1.834,1.5,2.978,2.978,0,0,1,.052.552Z" transform="translate(-1110.755 49.179)" fill="#fff"/>
        <path id="path1251" d="M1160.11-42.626h-2.128v5.074a1.919,1.919,0,0,1-.121.656,1.793,1.793,0,0,1-1.626,1.139c-1.125,0-1.575-.9-1.575-2.3v-4.574h-2.128v4.936c0,2.744,1.4,3.659,2.941,3.659a3.048,3.048,0,0,0,2.7-1.467h.035l.1,1.277h1.869c-.035-.69-.069-1.519-.069-2.52Z" transform="translate(-1118.159 46.474)" fill="#fff"/>
        <path id="path1253" d="M1169.342-36.926h2.146V-49.179h-2.146Z" transform="translate(-1125.097 49.179)" fill="#fff"/>
        <path id="path1255" d="M1183.707-37.961a5.22,5.22,0,0,0,.069-.9c0-1.847-.882-4.09-3.634-4.09-2.7,0-4.118,2.192-4.118,4.522a3.994,3.994,0,0,0,4.343,4.263,7.919,7.919,0,0,0,2.941-.535L1183-36.166a6.347,6.347,0,0,1-2.336.38c-1.35,0-2.543-.656-2.6-2.175Zm-5.641-1.484a2.079,2.079,0,0,1,1.955-2.054,1.808,1.808,0,0,1,1.748,2.054Z" transform="translate(-1127.856 46.608)" fill="#fff"/>
        <path id="path1257" d="M1205.959-38.642a5.971,5.971,0,0,1-2.319.431c-2.561,0-4.066-1.64-4.066-4.194,0-2.8,1.713-4.28,4.083-4.28a5.678,5.678,0,0,1,2.284.449l.467-1.691a6.714,6.714,0,0,0-2.838-.518,5.858,5.858,0,0,0-6.229,6.144c0,3.538,2.249,5.868,5.952,5.868a7.323,7.323,0,0,0,3.011-.535Z" transform="translate(-1136.655 48.876)" fill="#fff"/>
        <path id="path1259" d="M1215.429-36.926h2.146v-5.022a1.782,1.782,0,0,1,.086-.639,1.736,1.736,0,0,1,1.644-1.191c1.177,0,1.626.915,1.626,2.14v4.712h2.128v-4.953c0-2.692-1.505-3.642-2.941-3.642a2.892,2.892,0,0,0-1.453.38,2.842,2.842,0,0,0-1.056.967h-.035v-5.005h-2.146Z" transform="translate(-1144.12 49.179)" fill="#fff"/>
        <path id="path1261" d="M1238.425-39.411c0-1.829-.779-3.538-3.478-3.538a6.079,6.079,0,0,0-3.045.742l.415,1.381a4.472,4.472,0,0,1,2.267-.621c1.488,0,1.713.915,1.713,1.467v.138c-3.115-.017-5,1.053-5,3.176a2.5,2.5,0,0,0,2.647,2.5,3.133,3.133,0,0,0,2.492-1.122h.052l.138.932h1.921a13.457,13.457,0,0,1-.121-2.019Zm-2.076,2.106a1.516,1.516,0,0,1-.069.466,1.724,1.724,0,0,1-1.661,1.156,1.116,1.116,0,0,1-1.211-1.208c0-1.277,1.436-1.605,2.941-1.571Z" transform="translate(-1150.669 46.608)" fill="#fff"/>
        <path id="path1263" d="M1247.211-34.354h2.146V-39.29a2.151,2.151,0,0,1,.087-.69,1.785,1.785,0,0,1,1.661-1.243c1.159,0,1.609.915,1.609,2.123v4.746h2.128v-4.988c0-2.658-1.523-3.607-2.993-3.607a3.039,3.039,0,0,0-2.682,1.45h-.052l-.1-1.26h-1.869c.052.725.069,1.536.069,2.5Z" transform="translate(-1157.209 46.608)" fill="#fff"/>
        <path id="path1265" d="M1271.367-40.343c0-1.156.035-1.847.069-2.416h-1.851l-.087,1.122h-.035a2.653,2.653,0,0,0-2.44-1.312c-2.024,0-3.824,1.674-3.824,4.436,0,2.382,1.488,4.108,3.582,4.108a2.847,2.847,0,0,0,2.457-1.243h.035v.725a2.237,2.237,0,0,1-2.422,2.537,5.1,5.1,0,0,1-2.457-.639l-.467,1.605a5.974,5.974,0,0,0,2.941.673,4.855,4.855,0,0,0,3.253-1.018c.882-.794,1.246-2.054,1.246-3.814Zm-2.128,2.313a3.649,3.649,0,0,1-.087.759,1.816,1.816,0,0,1-1.73,1.277c-1.332,0-2.059-1.156-2.059-2.589,0-1.709.882-2.744,2.076-2.744a1.766,1.766,0,0,1,1.73,1.363,2.062,2.062,0,0,1,.069.57Z" transform="translate(-1163.837 46.608)" fill="#fff"/>
        <path id="path1267" d="M1287.748-37.961a5.2,5.2,0,0,0,.069-.9c0-1.847-.882-4.09-3.634-4.09-2.7,0-4.118,2.192-4.118,4.522a3.994,3.994,0,0,0,4.343,4.263,7.918,7.918,0,0,0,2.941-.535l-.311-1.467a6.347,6.347,0,0,1-2.336.38c-1.35,0-2.543-.656-2.6-2.175Zm-5.641-1.484a2.079,2.079,0,0,1,1.955-2.054,1.808,1.808,0,0,1,1.748,2.054Z" transform="translate(-1170.798 46.608)" fill="#fff"/>
      </g>
      <g id="Film_Manual_Control" transform="translate(673.05 -107.996)">
        <path id="path1270" d="M1094.507,98.7h2.128V93.766h4.291V92.023h-4.291v-3.21h4.6V87.07h-6.731Z" transform="translate(-1093.899 -86.448)" fill="#fff"/>
        <path id="path1272" d="M1110.807,98.508V90.1h-2.146v8.405ZM1109.734,86.6a1.135,1.135,0,0,0-1.194,1.156,1.2,1.2,0,0,0,2.388,0A1.135,1.135,0,0,0,1109.734,86.6Z" transform="translate(-1099.691 -86.254)" fill="#fff"/>
        <path id="path1274" d="M1116.285,98.266h2.146V86.012h-2.146Z" transform="translate(-1102.888 -86.012)" fill="#fff"/>
        <path id="path1276" d="M1123.826,100.837h2.076V95.867a1.812,1.812,0,0,1,.121-.69,1.661,1.661,0,0,1,1.523-1.208c.986,0,1.453.828,1.453,2v4.867h2.076V95.8a3.028,3.028,0,0,1,.1-.708,1.622,1.622,0,0,1,1.488-1.122c1.021,0,1.505.828,1.505,2.226v4.643h2.076V95.884c0-2.692-1.419-3.642-2.82-3.642a2.819,2.819,0,0,0-1.7.5,3.187,3.187,0,0,0-1.038,1.053h-.035a2.429,2.429,0,0,0-2.336-1.553,2.916,2.916,0,0,0-2.6,1.433h-.052l-.087-1.243h-1.834c.052.725.069,1.536.069,2.5Z" transform="translate(-1105.972 -88.583)" fill="#fff"/>
        <path id="path1278" d="M1164.961,98.7h2.076l-.675-11.633h-2.768l-1.609,4.66c-.45,1.363-.848,2.8-1.159,4.056h-.052c-.294-1.294-.657-2.675-1.073-4.039l-1.523-4.677h-2.8L1154.6,98.7h1.99l.26-4.677c.087-1.588.156-3.435.208-4.971h.035c.311,1.467.727,3.055,1.177,4.539l1.557,4.971h1.644l1.7-5.04c.519-1.467,1-3.038,1.384-4.47h.052c-.017,1.588.069,3.4.138,4.9Z" transform="translate(-1118.701 -86.448)" fill="#fff"/>
        <path id="path1280" d="M1185.538,95.78c0-1.829-.779-3.538-3.478-3.538a6.079,6.079,0,0,0-3.045.742l.415,1.381a4.472,4.472,0,0,1,2.267-.621c1.488,0,1.713.915,1.713,1.467v.138c-3.114-.017-5,1.053-5,3.176a2.5,2.5,0,0,0,2.647,2.5,3.133,3.133,0,0,0,2.492-1.122h.052l.138.932h1.921a13.439,13.439,0,0,1-.121-2.019Zm-2.076,2.106a1.534,1.534,0,0,1-.069.466,1.724,1.724,0,0,1-1.661,1.156,1.116,1.116,0,0,1-1.211-1.208c0-1.277,1.436-1.605,2.941-1.571Z" transform="translate(-1128.529 -88.583)" fill="#fff"/>
        <path id="path1282" d="M1194.324,100.837h2.146V95.9a2.151,2.151,0,0,1,.086-.69,1.785,1.785,0,0,1,1.661-1.243c1.159,0,1.609.915,1.609,2.123v4.746h2.128V95.849c0-2.658-1.523-3.607-2.993-3.607a3.04,3.04,0,0,0-2.682,1.45h-.052l-.1-1.26h-1.869c.052.725.069,1.536.069,2.5Z" transform="translate(-1135.07 -88.583)" fill="#fff"/>
        <path id="path1284" d="M1218.754,92.566h-2.128V97.64a1.919,1.919,0,0,1-.121.656,1.793,1.793,0,0,1-1.627,1.139c-1.125,0-1.574-.9-1.574-2.3V92.566h-2.128V97.5c0,2.744,1.4,3.659,2.941,3.659a3.048,3.048,0,0,0,2.7-1.467h.035l.1,1.277h1.869c-.035-.69-.069-1.519-.069-2.52Z" transform="translate(-1142.053 -88.717)" fill="#fff"/>
        <path id="path1286" d="M1234.109,95.78c0-1.829-.779-3.538-3.478-3.538a6.079,6.079,0,0,0-3.045.742l.415,1.381a4.471,4.471,0,0,1,2.267-.621c1.488,0,1.713.915,1.713,1.467v.138c-3.115-.017-5,1.053-5,3.176a2.5,2.5,0,0,0,2.647,2.5,3.133,3.133,0,0,0,2.492-1.122h.052l.138.932h1.921a13.455,13.455,0,0,1-.121-2.019Zm-2.076,2.106a1.516,1.516,0,0,1-.069.466,1.724,1.724,0,0,1-1.661,1.156,1.116,1.116,0,0,1-1.211-1.208c0-1.277,1.436-1.605,2.941-1.571Z" transform="translate(-1148.577 -88.583)" fill="#fff"/>
        <path id="path1288" d="M1242.944,98.266h2.146V86.012h-2.146Z" transform="translate(-1155.166 -86.012)" fill="#fff"/>
        <path id="path1290" d="M1102.088,131.817a5.971,5.971,0,0,1-2.319.431c-2.561,0-4.066-1.64-4.066-4.194,0-2.8,1.713-4.28,4.083-4.28a5.678,5.678,0,0,1,2.284.449l.467-1.691a6.714,6.714,0,0,0-2.838-.518,5.858,5.858,0,0,0-6.229,6.144c0,3.538,2.249,5.868,5.952,5.868a7.321,7.321,0,0,0,3.011-.535Z" transform="translate(-1093.472 -100.871)" fill="#fff"/>
        <path id="path1292" d="M1114.662,127.509a4.155,4.155,0,0,0-4.36,4.453,4.069,4.069,0,0,0,4.222,4.332,4.169,4.169,0,0,0,4.326-4.47,4.037,4.037,0,0,0-4.187-4.315Zm-.052,1.553c1.453,0,2.042,1.5,2.042,2.813,0,1.691-.848,2.882-2.059,2.882-1.3,0-2.094-1.225-2.094-2.848C1112.5,130.512,1113.1,129.062,1114.61,129.062Z" transform="translate(-1100.418 -103.14)" fill="#fff"/>
        <path id="path1294" d="M1127.8,136.1h2.146v-4.936a2.151,2.151,0,0,1,.087-.69,1.785,1.785,0,0,1,1.661-1.243c1.159,0,1.609.915,1.609,2.123V136.1h2.128v-4.988c0-2.658-1.522-3.607-2.993-3.607a3.04,3.04,0,0,0-2.682,1.45h-.052l-.1-1.26h-1.869c.052.725.069,1.536.069,2.5Z" transform="translate(-1107.612 -103.14)" fill="#fff"/>
        <path id="path1296" d="M1144.3,124.764v1.553h-1.211V127.9h1.211v3.952a3.343,3.343,0,0,0,.657,2.347,2.476,2.476,0,0,0,1.834.708,4.6,4.6,0,0,0,1.54-.224l-.035-1.622a2.632,2.632,0,0,1-.831.1c-.813,0-1.09-.535-1.09-1.553V127.9h2.024v-1.588h-2.024v-2.157Z" transform="translate(-1113.951 -101.757)" fill="#fff"/>
        <path id="path1298" d="M1154.845,136.1h2.128v-4.349a3.628,3.628,0,0,1,.069-.656,1.875,1.875,0,0,1,1.9-1.605,2.962,2.962,0,0,1,.623.069v-2a2.243,2.243,0,0,0-.5-.052,2.512,2.512,0,0,0-2.3,1.795h-.069l-.069-1.605h-1.851c.052.759.069,1.571.069,2.71Z" transform="translate(-1118.775 -103.14)" fill="#fff"/>
        <path id="path1300" d="M1168.53,127.509a4.155,4.155,0,0,0-4.36,4.453,4.069,4.069,0,0,0,4.222,4.332,4.169,4.169,0,0,0,4.326-4.47,4.037,4.037,0,0,0-4.187-4.315Zm-.052,1.553c1.453,0,2.042,1.5,2.042,2.813,0,1.691-.848,2.882-2.059,2.882-1.3,0-2.094-1.225-2.094-2.848C1166.367,130.512,1166.973,129.062,1168.478,129.062Z" transform="translate(-1122.652 -103.14)" fill="#fff"/>
        <path id="path1302" d="M1181.707,133.533h2.146V121.279h-2.146Z" transform="translate(-1129.891 -100.568)" fill="#fff"/>
      </g>
      <g id="Polygon_2" data-name="Polygon 2" transform="translate(662.739 -106.788) rotate(90)">
        <path id="path115" d="M25.089,23.828H0L12.544,0Z" transform="translate(0.572 0.741)" fill="#fff"/>
        <path id="path117" d="M13.117,1.483,1.145,24.224H25.089L13.117,1.483m0-1.483L26.234,24.916H0Z" fill="#707070"/>
      </g>
      <g id="Polygon_3" data-name="Polygon 3" transform="translate(664.815 -194.464) rotate(90)">
        <path id="path120" d="M25.089,23.828H0L12.544,0Z" transform="translate(0.572 0.741)" fill="#fff"/>
        <path id="path122" d="M13.117,1.483,1.145,24.224H25.089L13.117,1.483m0-1.483L26.234,24.916H0Z" fill="#707070"/>
      </g>
      <g id="Polygon_4" data-name="Polygon 4" transform="translate(664.815 -260.048) rotate(90)">
        <path id="path125" d="M25.089,23.828H0L12.544,0Z" transform="translate(0.572 0.741)" fill="#fff"/>
        <path id="path127" d="M13.117,1.483,1.145,24.224H25.089L13.117,1.483m0-1.483L26.234,24.916H0Z" fill="#707070"/>
      </g>
      <g id="Sec" transform="translate(246.801 -38.529)">
        <path id="path1305" d="M367.638,215.574a6.925,6.925,0,0,0,3.149.742c3.011,0,4.429-1.64,4.429-3.5,0-1.674-.986-2.692-3.011-3.452-1.557-.6-2.232-1.018-2.232-1.916,0-.673.588-1.4,1.938-1.4a4.947,4.947,0,0,1,2.319.552l.519-1.709a6.172,6.172,0,0,0-2.8-.587c-2.526,0-4.118,1.45-4.118,3.348,0,1.674,1.228,2.692,3.149,3.383,1.488.535,2.076,1.053,2.076,1.933,0,.949-.761,1.588-2.128,1.588a5.9,5.9,0,0,1-2.82-.742Z" transform="translate(-367.638 -204.304)" fill="#fff"/>
        <path id="path1307" d="M390.623,214.788a5.205,5.205,0,0,0,.069-.9c0-1.847-.882-4.09-3.634-4.09-2.7,0-4.118,2.192-4.118,4.522a3.994,3.994,0,0,0,4.343,4.263,7.92,7.92,0,0,0,2.941-.535l-.311-1.467a6.347,6.347,0,0,1-2.336.38c-1.35,0-2.543-.656-2.6-2.175Zm-5.641-1.484a2.079,2.079,0,0,1,1.955-2.054,1.808,1.808,0,0,1,1.748,2.054Z" transform="translate(-373.954 -206.572)" fill="#fff"/>
        <path id="path1309" d="M404.57,216.566a4.171,4.171,0,0,1-1.678.328,2.722,2.722,0,0,1,0-5.437,3.757,3.757,0,0,1,1.609.328l.381-1.588a5.322,5.322,0,0,0-2.059-.4,4.352,4.352,0,0,0-4.689,4.487,4.055,4.055,0,0,0,4.343,4.3,6.116,6.116,0,0,0,2.388-.449Z" transform="translate(-380.225 -206.572)" fill="#fff"/>
      </g>
      <g id="Sec-2" transform="translate(593.545 -36.458)">
        <path id="path1312" d="M958.088,219.1a6.925,6.925,0,0,0,3.149.742c3.011,0,4.429-1.64,4.429-3.5,0-1.674-.986-2.692-3.011-3.452-1.557-.6-2.232-1.018-2.232-1.916,0-.673.588-1.4,1.938-1.4a4.947,4.947,0,0,1,2.319.552l.519-1.709a6.173,6.173,0,0,0-2.8-.587c-2.526,0-4.118,1.45-4.118,3.348,0,1.674,1.228,2.692,3.149,3.383,1.488.535,2.076,1.053,2.076,1.933,0,.949-.761,1.588-2.128,1.588a5.9,5.9,0,0,1-2.82-.742Z" transform="translate(-958.088 -207.83)" fill="#fff"/>
        <path id="path1314" d="M981.073,218.314a5.212,5.212,0,0,0,.069-.9c0-1.847-.882-4.09-3.634-4.09-2.7,0-4.118,2.192-4.118,4.522a3.994,3.994,0,0,0,4.343,4.263,7.919,7.919,0,0,0,2.941-.535l-.311-1.467a6.348,6.348,0,0,1-2.336.38c-1.35,0-2.544-.656-2.6-2.175Zm-5.641-1.484a2.079,2.079,0,0,1,1.955-2.054,1.808,1.808,0,0,1,1.748,2.054Z" transform="translate(-964.404 -210.099)" fill="#fff"/>
        <path id="path1316" d="M995.019,220.092a4.171,4.171,0,0,1-1.678.328,2.722,2.722,0,0,1,0-5.437,3.757,3.757,0,0,1,1.609.328l.381-1.588a5.322,5.322,0,0,0-2.059-.4,4.352,4.352,0,0,0-4.689,4.487,4.055,4.055,0,0,0,4.343,4.3,6.116,6.116,0,0,0,2.388-.449Z" transform="translate(-970.674 -210.099)" fill="#fff"/>
      </g>
      <g id="Sec-3" transform="translate(574.166 155.463)">
        <path id="path1319" d="M925.088,545.911a6.926,6.926,0,0,0,3.149.742c3.011,0,4.43-1.64,4.43-3.5,0-1.674-.986-2.692-3.011-3.452-1.557-.6-2.232-1.018-2.232-1.916,0-.673.588-1.4,1.938-1.4a4.947,4.947,0,0,1,2.319.552l.519-1.709a6.172,6.172,0,0,0-2.8-.587c-2.526,0-4.118,1.45-4.118,3.348,0,1.674,1.228,2.692,3.149,3.383,1.488.535,2.076,1.053,2.076,1.933,0,.949-.761,1.588-2.128,1.588a5.9,5.9,0,0,1-2.82-.742Z" transform="translate(-925.088 -534.641)" fill="#fff"/>
        <path id="path1321" d="M948.073,545.124a5.21,5.21,0,0,0,.069-.9c0-1.847-.882-4.09-3.634-4.09-2.7,0-4.118,2.192-4.118,4.522a3.994,3.994,0,0,0,4.343,4.263,7.919,7.919,0,0,0,2.941-.535l-.311-1.467a6.347,6.347,0,0,1-2.336.38c-1.35,0-2.544-.656-2.6-2.175Zm-5.641-1.484a2.079,2.079,0,0,1,1.955-2.054,1.808,1.808,0,0,1,1.748,2.054Z" transform="translate(-931.404 -536.909)" fill="#fff"/>
        <path id="path1323" d="M962.021,546.9a4.171,4.171,0,0,1-1.678.328,2.722,2.722,0,0,1,0-5.437,3.758,3.758,0,0,1,1.609.328l.381-1.588a5.322,5.322,0,0,0-2.059-.4,4.352,4.352,0,0,0-4.689,4.487,4.055,4.055,0,0,0,4.343,4.3,6.116,6.116,0,0,0,2.388-.449Z" transform="translate(-937.675 -536.909)" fill="#fff"/>
      </g>
      <g id="N2_:_70_" transform="translate(355.636 -166.25)">
        <path id="path1326" d="M554.374-4.81V-7.8c0-1.379-.013-2.485-.075-3.566l.037-.012A27.669,27.669,0,0,0,555.844-8.5l2.193,3.691h1.582v-8.375H558.2v2.92c0,1.28.037,2.361.137,3.479h-.025a23.015,23.015,0,0,0-1.433-2.808l-2.168-3.591h-1.744V-4.81Z" transform="translate(-552.967 13.186)" fill="#fff"/>
        <path id="path1328" d="M569.533,3.7V2.962h-1.94V2.947l.414-.355c.821-.761,1.417-1.428,1.417-2.254a1.4,1.4,0,0,0-1.555-1.428,2.341,2.341,0,0,0-1.453.486l.262.631a1.722,1.722,0,0,1,1.01-.391.743.743,0,0,1,.843.79c-.007.623-.53,1.189-1.642,2.218l-.56.515V3.7Z" transform="translate(-558.482 8.193)" fill="#fff"/>
        <path id="path1330" d="M578.839-7.193a.914.914,0,0,0,.947-.969.932.932,0,0,0-.947-.982.932.932,0,0,0-.947.982.919.919,0,0,0,.934.969Zm0,4.188a.921.921,0,0,0,.947-.969.925.925,0,0,0-.947-.982.932.932,0,0,0-.947.982.926.926,0,0,0,.934.969Z" transform="translate(-563.255 11.517)" fill="#fff"/>
        <path id="path1332" d="M587.34-12.678v1.268h3.812v.025L587.739-4.6h1.62l3.426-7.1v-.982Z" transform="translate(-567.154 12.976)" fill="#fff"/>
        <path id="path1334" d="M601.254-12.911c-1.894,0-2.965,1.69-2.965,4.2.012,2.46,1.009,4.15,2.878,4.15,1.931,0,2.953-1.628,2.953-4.225,0-2.386-.909-4.126-2.865-4.126Zm-.037,1.168c.922,0,1.37,1.106,1.37,2.982,0,1.939-.473,3.032-1.37,3.032-.847,0-1.4-1.019-1.383-2.982C599.822-10.736,600.395-11.743,601.217-11.743Z" transform="translate(-571.673 13.072)" fill="#fff"/>
        <path id="path1336" d="M611.645-12.911c-1.246,0-2.13,1.007-2.13,2.535a2.164,2.164,0,0,0,2.068,2.436c1.109,0,2.105-.87,2.105-2.572,0-1.441-.76-2.4-2.031-2.4Zm-.025.857c.66,0,.909.721.909,1.615,0,.982-.3,1.628-.909,1.628s-.947-.683-.934-1.615c0-.907.311-1.628.922-1.628Zm.847,7.506,4.709-8.363H616.3L611.6-4.548Zm4.759-5.02a2.246,2.246,0,0,0-2.118,2.535A2.149,2.149,0,0,0,617.164-4.6c1.121,0,2.105-.87,2.105-2.56,0-1.454-.76-2.411-2.031-2.411Zm-.025.87c.66,0,.909.708.909,1.615,0,.982-.287,1.628-.909,1.628s-.947-.7-.934-1.615.311-1.628.922-1.628Z" transform="translate(-576.307 13.072)" fill="#fff"/>
      </g>
      <g id="CO2_:_30_" transform="translate(376.656 -113.92)">
        <path id="path1339" d="M594.964,82.984a4.3,4.3,0,0,1-1.669.311,2.753,2.753,0,0,1-2.928-3.02,2.793,2.793,0,0,1,2.94-3.082,4.088,4.088,0,0,1,1.644.323l.336-1.218a4.835,4.835,0,0,0-2.043-.373,4.218,4.218,0,0,0-4.485,4.424,3.966,3.966,0,0,0,4.286,4.225,5.271,5.271,0,0,0,2.168-.385Z" transform="translate(-588.76 -75.925)" fill="#fff"/>
        <path id="path1341" d="M604.679,75.925c-2.367,0-3.987,1.814-3.987,4.387,0,2.46,1.495,4.262,3.862,4.262,2.317,0,4.024-1.6,4.024-4.411,0-2.386-1.445-4.237-3.9-4.237Zm-.037,1.218c1.532,0,2.317,1.5,2.317,3.082,0,1.752-.835,3.131-2.317,3.131s-2.33-1.367-2.33-3.069C602.312,78.56,603.121,77.143,604.641,77.143Z" transform="translate(-593.685 -75.925)" fill="#fff"/>
        <path id="path1343" d="M618.581,93.045v-.739h-1.94v-.014l.414-.355c.821-.761,1.417-1.428,1.417-2.254a1.4,1.4,0,0,0-1.555-1.428,2.341,2.341,0,0,0-1.453.486l.262.631a1.722,1.722,0,0,1,1.01-.391.743.743,0,0,1,.843.79c-.007.623-.53,1.189-1.642,2.218l-.56.515v.544Z" transform="translate(-599.746 -81.014)" fill="#fff"/>
        <path id="path1345" d="M627.887,82.151a.914.914,0,0,0,.947-.969.947.947,0,1,0-1.894,0,.919.919,0,0,0,.934.969Zm0,4.188a.976.976,0,0,0,0-1.951.976.976,0,0,0-.013,1.951Z" transform="translate(-604.518 -77.689)" fill="#fff"/>
        <path id="path1347" d="M636.112,84.225a4.428,4.428,0,0,0,2.267.559c2.006,0,3.152-1.081,3.152-2.448a2.041,2.041,0,0,0-1.781-2.013V80.3a1.972,1.972,0,0,0,1.495-1.889c0-1.056-.86-1.976-2.529-1.976a4.382,4.382,0,0,0-2.33.621l.349,1.106a3.265,3.265,0,0,1,1.657-.509c.884,0,1.3.46,1.3,1.007,0,.808-.9,1.131-1.607,1.131h-.685v1.118h.71c.934,0,1.831.41,1.831,1.367.012.634-.461,1.292-1.632,1.292a4.013,4.013,0,0,1-1.844-.5Z" transform="translate(-608.304 -76.135)" fill="#fff"/>
        <path id="path1349" d="M650.3,76.433c-1.894,0-2.965,1.69-2.965,4.2.013,2.46,1.009,4.15,2.878,4.15,1.931,0,2.953-1.628,2.953-4.225,0-2.386-.909-4.126-2.865-4.126Zm-.037,1.168c.922,0,1.37,1.106,1.37,2.982,0,1.939-.473,3.032-1.37,3.032-.847,0-1.4-1.019-1.383-2.982C648.869,78.608,649.443,77.6,650.265,77.6Z" transform="translate(-612.937 -76.135)" fill="#fff"/>
        <path id="path1351" d="M660.693,76.433c-1.246,0-2.13,1.007-2.13,2.535a2.164,2.164,0,0,0,2.068,2.436c1.109,0,2.105-.87,2.105-2.572,0-1.441-.76-2.4-2.031-2.4Zm-.025.857c.66,0,.909.721.909,1.615,0,.982-.3,1.628-.909,1.628s-.947-.683-.934-1.615c0-.907.312-1.628.922-1.628Zm.847,7.506,4.709-8.363h-.872L660.643,84.8Zm4.759-5.02a2.246,2.246,0,0,0-2.118,2.535,2.149,2.149,0,0,0,2.056,2.436c1.121,0,2.105-.87,2.105-2.56,0-1.454-.76-2.411-2.031-2.411Zm-.025.87c.66,0,.909.708.909,1.615,0,.982-.287,1.628-.909,1.628s-.947-.7-.934-1.615.311-1.628.922-1.628Z" transform="translate(-617.571 -76.135)" fill="#fff"/>
      </g>
      <path id="path1778" d="M648.549,29.87H582.138V99.9c36.7,0,66.443-31.063,66.442-69.382q-.014-.325-.031-.65Z" transform="translate(-209.371 -170.835)" fill="#999"/>
      <text id="text1115" transform="translate(377.316 -121.998)" fill="#fff" font-size="9" font-family="SegoeUI-Bold, Segoe UI" font-weight="700"><tspan x="0" y="0">CO</tspan><tspan y="0" font-size="8.75" baseline-shift="-4.999500156940817">2</tspan><tspan y="0" xml:space="preserve"> : 30%</tspan></text>
    </g>
    <line id="Line_1" data-name="Line 1" x2="330" transform="translate(343.5 439.5)" fill="none" stroke="#000" stroke-width="3"/>
    <circle id="Ellipse_1-2" data-name="Ellipse 1" cx="5.5" cy="5.5" r="5.5" transform="translate(664 434)"/>
    <text id="Vacuum_Control" data-name="Vacuum Control" transform="translate(343 471)" font-size="20" font-family="SegoeUI-Semibold, Segoe UI" font-weight="600"><tspan x="0" y="0">Vacuum Control</tspan></text>
    <path id="Path_1" data-name="Path 1" d="M0,0H330" transform="translate(343.5 664.5)" fill="none" stroke="#000" stroke-width="3"/>
    <circle id="Ellipse_1-3" data-name="Ellipse 1" cx="5.5" cy="5.5" r="5.5" transform="translate(708 675)"/>
    <text id="Sealing_Temperature_Control" data-name="Sealing Temperature 
Control" transform="translate(343 730)" font-size="20" font-family="SegoeUI-Semibold, Segoe UI" font-weight="600"><tspan x="0" y="0">Sealing Temperature </tspan><tspan x="0" y="27">Control</tspan></text>
    <line id="Line_1-2" data-name="Line 1" x1="0.25" y2="288.25" transform="translate(956.5 101.25)" fill="none" stroke="#000" stroke-width="3"/>
    <circle id="Ellipse_1-4" data-name="Ellipse 1" cx="5.5" cy="5.5" r="5.5" transform="translate(925.25 422.75) rotate(90)"/>
    <text id="Built-in_Gas_Mixer_Gas_Mix_Control" data-name="Built-in Gas Mixer
Gas Mix Control" transform="translate(983 123)" font-size="20" font-family="SegoeUI-Semibold, Segoe UI" font-weight="600"><tspan x="0" y="0">Built-in Gas Mixer</tspan><tspan x="0" y="27">Gas Mix Control</tspan></text>
    <line id="Line_1-3" data-name="Line 1" x2="499.5" transform="translate(1534.5 545.5) rotate(180)" fill="none" stroke="#000" stroke-width="3"/>
    <circle id="Ellipse_1-5" data-name="Ellipse 1" cx="5.5" cy="5.5" r="5.5" transform="translate(1044.5 551) rotate(180)"/>
    <text id="Gas_Flushing_Time_Control" data-name="Gas Flushing Time Control" transform="translate(1370 574)" font-size="20" font-family="SegoeUI-Semibold, Segoe UI" font-weight="600"><tspan x="0" y="0">Gas Flushing Time Control</tspan></text>
    <line id="Line_1-4" data-name="Line 1" x2="440.5" transform="translate(1522.5 691.5) rotate(180)" fill="none" stroke="#000" stroke-width="3"/>
    <circle id="Ellipse_1-6" data-name="Ellipse 1" cx="5.5" cy="5.5" r="5.5" transform="translate(1091.5 697) rotate(180)"/>
    <text id="Sealing_Time_Control" data-name="Sealing Time Control" transform="translate(1390 726)" font-size="20" font-family="SegoeUI-Semibold, Segoe UI" font-weight="600"><tspan x="0" y="0">Sealing Time Control</tspan></text>
    <path id="Path_2" data-name="Path 2" d="M0,0H.7L2.549.751,40,16" transform="translate(673.5 664.5)" fill="none" stroke="#000" stroke-width="3"/>
    <path id="Path_3" data-name="Path 3" d="M0,38l2.188-2.375L30.625,4.75,35.357-.932" transform="translate(921.5 389.5)" fill="none" stroke="#000" stroke-width="3"/>
  </g>
</svg>
